<svg xmlns="http://www.w3.org/2000/svg" width="207.01894" height="189.6442" viewBox="0 0 54.773759 50.176695">
  <path d="M-58.337373-30.2041357l-.64312 1.075758-.11693.982216s.0234 1.064066.0702 1.099145c.0468.03508.68989 1.017296.68989 1.017296l.80682-.68989.45603-.970523.0234-1.0056-.40926-.970523z" fill="#14130d"/>
  <path d="M-61.447723-29.6077917c.0468-.09354.78343-.713274.8419-.713274.0585 0 2.26845.11693 2.26845.11693l-.64312 1.075756-.11693.982218.0502 1.016852.70992 1.099587.80682-.689888.45603-.970523.0234-1.005602-.40926-.970521 1.73052 1.262848.76005.876978-.0234.841898-.53788 1.216078-1.20439.596345-1.62533.01169-1.39147-.654809-.98222-.900364-.59634-.865285-.0935-1.426552z" fill="#393720"/>
  <path d="M-61.939323-29.7254017l1.62802-1.501688 2.09249-.08151 3.3643 3.047656.57455.994407.17747 2.053246-2.05816 1.06866-2.65186-.07916-2.01857-1.187399-.91034-1.345719.41065-.523973.59634.865286.98222.900364 1.39147.654809 1.62533-.0117 1.20439-.596346.53788-1.216079.0234-.841896-.76005-.876977-1.73052-1.262848-.87706-.53788-2.29273-.106809-.81762.703154z" fill="#3b2612"/>
  <path d="M-61.741423-26.7569087l-.1979-2.968493.4916.11761.11695 2.326912z" fill="#331e13"/>
  <path d="M-39.608853-29.5257917l-.59531 1.124479.13229 1.405596.74414 1.273307.94258-.611849.41341-1.124479-.0331-.926039-.9095-1.455208z" fill="#16130e"/>
  <path d="M-38.914343-29.8399847s.68204.31703.68204.383176c0 .06615.22746 1.072032.22746 1.072032l-.89294-.562239z" fill="#999"/>
  <path d="M-39.608853-29.5257917l-1.14219.432493-1.12253 1.145918-.3274 1.122532s.33909 1.064067.33909 1.145918c0 .08185.97053 1.028989.97053 1.028989s1.91766.01169 1.97612-.0117c.0585-.02339 1.54348-.865285 1.60195-.912058.0585-.04677 1.11084-1.297927 1.11084-1.297927l.39756-1.22777.0234-1.122532-.85359-.853593-1.44994-.04677-.82932.2823s.77357.220552.77732.267915c.004.04736.16528 2.113333.16528 2.113333l-.41341 1.124476-.94258.611849-.74414-1.273305-.13229-1.405596z" fill="#453f20"/>
  <path d="M-42.200973-26.8248487l.3274-1.122532 1.12253-1.145918-.20964-.349618-1.56473 1.102812-.67286 1.385298.099 1.919629 2.55291 1.147818-.34499-.762582-.95876-1.00256z" fill="#321e10"/>
  <path d="M-40.751043-29.0932987l-.20964-.349618 1.72046-1.212615 2.65185-.07916 1.30614.712441.29685.415589-.15832 1.820677-.96971 1.899838.63593-2.365253-.304-.970529-.85359-.853594-1.44994-.04677z" fill="#211306"/>
  <path d="M-35.781483-29.2219287l-.0234 1.122532-.39756 1.22777-1.10887 1.296241-1.59025.907119-1.98979.01834.34499.762582 2.42265-.393393 2.0103-1.605394.63593-2.365253z" fill="#624730"/>
  <path d="M-67.036993-34.3083957l.0935-1.216078-1.30962-2.712786 1.12253-1.870885-.0935-1.777344 6.17392 3.367596.56127 2.619243-2.43215 1.870887z" fill="#804f3e"/>
  <path d="M-67.878893-27.7602947l.65481-3.274049 4.30304-2.993419 2.43215-1.870887 3.1805-.561266 1.68381 2.712786-6.64165 3.180506-4.11595.561266z" fill="#edc292"/>
  <path d="M-67.036993-34.3083957l-1.91766 3.975634-.14032 3.601456 1.21608-1.028991.65481-3.274047 4.30304-2.993419z" fill="#c5a17b"/>
  <path d="M-67.224083-41.8854907l-3.84673-10.440001-3.80627-5.989269 13.65778 14.83324 2.01508 1.51131 1.23144 2.406904-5.3571-.198072z" fill="#915b42"/>
  <path d="M-74.877083-58.3147607l13.99363 10.691127-1.51311 2.863536z" fill="#d29b6a"/>
  <path d="M-63.329883-39.7613787l5.3571.198072.66439 3.103391-3.1805.561266-.56127-2.619243z" fill="#a77658"/>
  <path d="M-69.094973-26.7313057l2.5248 6.42593s4.82875 5.936993 4.98707 5.897413c.15832-.0396 2.25606-.1979 2.25606-.1979l.55411-1.226978-4.67043-4.947494 1.02908-2.374797-3.24556-4.195474 1.10623-2.904104-1.82857.249352-1.49671 2.245061z" fill="#7d6149"/>
  <path d="M-64.553613-30.2547117l1.14806-.156552 1.66413 3.654357.91034 1.345718-2.4882 1.086183-2.34056-3.0256z" fill="#a27856"/>
  <path d="M-61.741423-26.7569067l-.1979-2.968496 2.24963-2.075061-2.57654 1.23384-1.13932.155358z" fill="#5b3722"/>
  <path d="M-60.831083-25.4111887l2.01857 1.1874 2.65186.07916 1.7811 1.622779v1.978996l-1.93942 1.583198-2.09774-1.266558-4.25739.260782-.76926-.814901 1.02908-2.374797-.905-1.169876z" fill="#dac4a6"/>
  <path d="M-56.160653-24.1446307l2.05816-1.068658.83118 1.147818-1.10824 1.543619z" fill="#68463a"/>
  <path d="M-60.311303-31.2270897l2.09249-.08151 3.32472.55412 2.69144-.989499-3.42193-2.00315-4.06511 1.946664z" fill="#bc8a5d"/>
  <path d="M-58.218813-31.3086007l3.3643 3.047656 1.30614.03958.63328.55412.75201-1.147818-.0396-2.928916-2.69144.989499z" fill="#6b4e32"/>
  <path d="M-54.854513-28.2609467l1.02908 1.781101.3958.672859.15832 1.741514-1.10824 1.543621v1.978996l2.61228-3.008077 2.41437-.831178-3.56219-3.285135-.63328-.55412z" fill="#b19883"/>
  <path d="M-54.102493-25.2132907l-.17747-2.053246.85033 1.45955.15832 1.741514z" fill="#765e4d"/>
  <path d="M-62.674103-19.9654337l4.25739-.260782 2.09774 1.266558-1.10824 1.741517-2.09744.588989z" fill="#907e67"/>
  <path d="M-52.163083-28.8150637l.94992-.514541s.51454 1.42488.55412 1.583198c.0396.158322-.54566 1.656525-.54566 1.656525l-1.71039-1.577364z" fill="#998368"/>
  <path d="M-60.883453-47.6236337l2.71476 1.51131-3.43396-.150246z" fill="#eecb9b"/>
  <path d="M-61.602653-46.2625697l-.52069.985401 2.24743 1.963571 1.70722-2.798726z" fill="#ca8f57"/>
  <path d="M-62.123343-45.2771687l-.27322.51707 1.17726 1.278578 2.01508 1.51131-.67169-1.343387z" fill="#d29968"/>
  <path d="M-59.875913-43.3135977l1.70722-2.798726s3.02263 3.554381 3.05061 3.722307c.028.167923-4.75783-.923581-4.75783-.923581z" fill="#e1ae76"/>
  <path d="M-59.875913-43.3135977l.67169 1.343387 1.23144 2.406904.66439 3.103391 5.60476-2.99144-3.52916-2.922924z" fill="#dfaf75"/>
  <path d="M-57.645073-45.4940797l6.58514-.282395-4.17286 3.402195z" fill="#f0ca95"/>
  <path d="M-55.232793-42.3742797l4.17286-3.402195 2.69653 1.485651-5.09068 3.38971z" fill="#f2d29f"/>
  <path d="M-51.703633-39.4513557l3.08296-2.425089s1.16761.771808 1.26656.752017c.099-.01979 1.54362-.969708 1.54362-.969708l-2.55291-2.19669-5.09068 3.389712z" fill="#edc08d"/>
  <path d="M-52.202683-31.7439797l.67288-4.116314-.90701-3.199744-4.87158 2.600122 1.68381 2.712786z" fill="#d6a777"/>
  <path d="M-52.436813-39.0600397l2.37114-1.679752.67319 1.396462-.94992-.07916-.31664 1.543619z" fill="#d1a37a"/>
  <path d="M-50.065673-40.7397917l1.445-1.136653 1.28346.74586.95281.995657-.5937 1.543618 1.50404 1.860257-2.05816 1.622777-1.3853 2.968497-1.93942-.237479-.67286-3.483036-.90701-3.199746 1.77777 1.181169.31664-1.543619.94992.07916z" fill="#f9f1d9"/>
  <path d="M-51.529803-35.8602937l-.67288 4.116314.0396 2.928916.94992-.514543.55517 1.58868-.54671 1.651045 3.39542.559953-.47496-3.364296.63328-3.443454.6172-3.163617 2.1801 2.340971 1.31901 1.416345.13078-5.869155-2.07019.882082-2.05816 1.622777-1.3853 2.968495-1.93942-.237477z" fill="#d6b992"/>
  <path d="M-47.033763-35.5012957l-1.25048 6.607069.17734 1.25615.29762 2.108146 1.14335-.935345.2239 2.406904 1.90313 1.567286v-4.533934l1.90313-2.238978-.89888-2.479982z" fill="#9b6e45"/>
  <path d="M-45.474063-36.7310527l-1.50404-1.860259.5937-1.543616-.95281-.995657 1.52672-.963551z" fill="#e8cbab"/>
  <path d="M-45.474063-36.7310527l-.33643-5.363083-2.55291-2.19669 4.2723-.869929 5.7094.391821-2.29496 1.847157z" fill="#efc996"/>
  <path d="M-45.474063-36.7310527l4.7974-6.190724 2.29496-1.847159s2.6443-1.105085 2.60472-.946764c-.0396.158319-2.13731 3.641355-2.13731 3.641355l-3.00808 3.403875z" fill="#c38953"/>
  <path d="M-43.403873-37.6131367l-.13078 5.869157.35488.979098 4.19682-3.670535-1.74152-.870757.23748-1.06866 1.3853-.158319 3.20597 1.701938.3958-1.504038-2.41437-1.741519.35621-.989499-1.26655.474961.5937-1.662358-2.69144 1.583198z" fill="#d59f66"/>
  <path d="M-43.179773-30.7648817l.544 1.500884 4.04862-3.152842 4.55169 1.622777-1.86026-4.037152-3.20597-1.701938-1.3853.158319-.23748 1.06866 1.74152.870757z" fill="#f1cb9b"/>
  <path d="M-40.922373-38.6704697l3.00808-3.403875 2.12363-3.608279 1.71562.837681 5.42245-7.599349-.5937 5.699514-2.61227 1.108236-.55412.989499.94992 1.464459-1.7811 2.889337-4.31422 1.226976-1.26655.474959.5937-1.662356z" fill="#853"/>
  <path d="M-37.558083-39.0662707l-.35621.989499 2.41437 1.741517 2.25606-3.957992z" fill="#86563b"/>
  <path d="M-35.790663-45.6826237l4.24874-4.78267 5.14539-5.145394 2.7706-2.335215 2.45395-.791599-1.62277 1.266558-5.85784 5.026652-5.42245 7.599349z" fill="#835738"/>
  <path d="M-34.989423-37.2308747c-.0851.149368.79564 1.84554.79564 1.84554l.71244-1.583198.83118.474959 1.1874-1.424876-1.7811-2.374797z" fill="#452016"/>
  <path d="M-33.243863-40.2932467l1.7811-2.889337-.94992-1.464459.55412-.989499 2.61227-1.108236 2.3748 2.889334-4.59127 5.936994z" fill="#81442b"/>
  <path d="M-31.462763-37.9184497l.7916.395798.0396.63328 3.24556-3.878837 1.10824-.07916s2.98259-4.388456 2.82426-4.348877c-.15831.03958-3.41796 1.3408-3.41796 1.3408z" fill="#834b32"/>
  <path d="M-26.871463-43.8554457l3.04762-4.630852-4.02906 3.436808z" fill="#854528"/>
  <path d="M-27.852903-45.0494897l-1.39339-1.695288.5937-5.699514 4.42761-3.799361-.15297 4.35348-3.04766 3.403875.37464 1.509094 1.24467.181954z" fill="#a8653b"/>
  <path d="M-26.796183-45.9508777l2.97234-2.53542 1.66236-3.166395.55412-5.105813-1.27211-.639747-1.34551 1.1546-.15297 4.35348-3.04766 3.403875z" fill="#b06f3a"/>
  <path d="M-21.171983-58.7375017l1.06866 1.464458-.35622 4.235053-1.86026 6.253631-1.06866 3.483036-1.34571 1.781098 2.13731-6.134891 1.66236-5.422453-.67286-3.680936-1.27211-.639747z" fill="#9f6940"/>
  <path d="M-26.871463-43.8554457l4.70998-7.797247.55412-5.105813.67286 3.680936-1.28355 4.672197-1.10098 3.255901z" fill="#9b5d37"/>
  <path d="M-23.453503-45.1962457l-2.82426 4.348877.39577 1.781098 1.14782-2.453955z" fill="#945d3f"/>
  <path d="M-30.631563-36.8893717l2.7351-3.268776 2.29153 1.843897-1.50404 1.543619-4.07674 2.216475z" fill="#82462c"/>
  <path d="M-27.896463-40.1581477l.51046-.610061 1.10824-.07916.39577 1.781098.86086.178109-1.24209 4.0547-.55975.223899.028 2.882685-4.39073-2.827279 4.07674-2.216475 1.50404-1.543619z" fill="#b17758"/>
  <path d="M-26.263223-34.8334617l.92357-.867605-.0142-2.101112z" fill="#ab9075"/>
  <path d="M-25.021133-38.8881637l.28696-2.632062-1.14782 2.453955z" fill="#815132"/>
  <path d="M-31.462763-37.9184497l.7916.395798.0396.63328-.55414 2.335215-3.00808-.831178.71244-1.583198.83118.474959z" fill="#b18364"/>
  <path d="M-34.989423-37.2308747l-.5105.89562-.3958 1.50404 1.86026 4.03715 4.5517 1.266563 1.42487 3.562194 1.979.593698s-3.12682-5.184971-2.9685-5.343292c.15832-.158319 2.25342-1.011978 2.25342-1.011978l-4.39073-2.827277-3.00808-.831178z" fill="#d09b62"/>
  <path d="M-29.217893-30.8793237l2.42292-.847556 1.54626 3.663836-.83118 2.691434-1.9324-2.817523z" fill="#c69260"/>
  <path d="M-42.635773-29.2639977l.11041.923893 3.28514-2.315427.1409-1.362461z" fill="#574634"/>
  <path d="M-42.635773-29.2639977l-1.90313 2.238978v4.533934l1.1032-.604676.7916 1.959208 2.43417-1.325928-.33643-1.424879-2.55291-1.147818-.099-1.919629.67286-1.385297z" fill="#a06952"/>
  <path d="M-40.546363-23.8873607s2.35501-.37601 2.43416-.395801c.0792-.01979 1.99879-1.602986 1.99879-1.602986l.96971-1.899838.15832-1.820677 1.20719 1.899838-.89055 1.959208-1.72173 1.642567-2.63206.514538.0396.81139-1.22698.316638z" fill="#a0795f"/>
  <path d="M-39.240223-30.6555317l2.39224-1.141254-1.73917-.620056-.51217.398849z" fill="#be946b"/>
  <path d="M-39.240223-30.6555317l2.65185-.07916 1.30614.712441.29685.415589.5937-.712438-2.84422-1.292625z" fill="#664529"/>
  <path d="M-37.235903-31.6117257l.38792-.18506 2.81252 1.002721 4.5517 1.266563 1.42487 3.562194 1.979.593698-.2673 1.90097-1.20345.699683-2.09904-1.511313-.33585-1.623259-4.18794-.93169.39528-.869606-1.20719-1.899838.5937-.712438z" fill="#a37142"/>
  <path d="M-39.022533-23.5905137l.0396.811392-1.22698.316638 3.42348.335232 5.183-4.138213-2.57004-.571754-.49527 1.089602-1.72173 1.642565z" fill="#a47f5f"/>
  <path d="M-31.603433-26.2654647l1.6179.359934.33585 1.623261-1.65125 3.330482-6.74493 2.238981-.084 2.406904-3.83425-1.93112-.68003-2.899531s.83992-.457518 1.63704-.891723l.79713-.434207h.00002l3.42348.335232z" fill="#bba585"/>
  <path d="M-38.045863-18.7128097l-.084 2.406904.22394 1.763203 1.7632-3.106587 1.48332-.279874 2.12703-1.93112 1.37138 3.582369 2.26696-1.791184 1.34339-4.701858-2.09904-1.511313-1.65125 3.33048z" fill="#9d876e"/>
  <path d="M-37.905923-14.5427027l-.58773 2.32294-1.11949 1.0915-2.29496.951566s6.26915-.4478 6.35311-.55975c.084-.111946 3.27451-2.574826 3.27451-2.574826l1.87514-2.238975.86761-1.203452s-.008-.800753-.0902-.735541c-.0825.06521-1.53307 1.211326-1.53307 1.211326l-1.37138-3.582371-2.12703 1.931122-1.48332.279874z" fill="#77684f"/>
  <path d="M-49.352903-24.3821127l-1.8518-1.707769 3.39542.559951 1.14335-.935347.2239 2.406904 1.90313 1.567288.0148 1.671172 1.88004-.31664.67999 2.899529-2.95583.108545-1.82068-2.533115z" fill="#ddc9ae"/>
  <path d="M-51.767273-23.5509347l.43538.752022-.94993 1.1874 1.10824 1.306137-1.14781 2.493536 1.26655-1.068657 1.1874-.03958.93394.40417 1.40128-.602068 1.0683-1.158695-2.88898-4.105441z" fill="#e7d1b9"/>
  <path d="M-47.532223-19.1179767l1.7811 1.583198.83122-.593704-1.54402-2.148189z" fill="#b48b6e"/>
  <path d="M-61.379683-14.4344327l1.30062 2.08463 3.32471.83118-2.57269-3.08724 3.76009-.83118-.87076-1.464458-.35389-1.315453-.63561.998813-2.09744.588989.75172.796311-.55411 1.226978z" fill="#cdbaa6"/>
  <path d="M-56.791603-18.2169567l.47263-.742703 1.93942-1.583198.89826-1.034357 1.71402-1.97372.43538.75202-.94993 1.187402 1.10824 1.306137-1.14781 2.493534-1.62278-.791597z" fill="#836043"/>
  <path d="M-59.327043-14.6058627l2.57269 3.08724 6.09531-2.21648.47496-1.1874-2.13731-2.889339-1.62278-.791599-2.84743.386484.35389 1.315456.87076 1.464458z" fill="#71543b"/>
  <path d="M-50.184083-14.9225027l.7916 1.34572-.0792 1.3853-3.52261 1.820666-1.14782-.35622 1.22698-1.226966-1.08397-.56655 3.34002-1.21455z" fill="#625140"/>
  <path d="M-45.751123-17.5347787l-1.3853 1.978998-1.30614.949918s3.91842 2.29564 4.15589 2.37479c.23748.0792 3.7601-1.10823 3.7601-1.10823l-.47496-3.126816z" fill="#855f3f"/>
  <path d="M-45.751123-17.5347807l.83122-.593704 2.95583-.10854 3.83421 1.931119.22394 1.763203-.58773 2.32294-2.03292-1.11954-.47496-3.126818z" fill="#ccb698"/>
  <path d="M-48.442563-14.6058627l-.94992 1.02908 1.82068 2.13731 5.6637 1.262776 2.29496-.951566 1.11949-1.0915-2.03292-1.11954-3.80855 1.08705z" fill="#8e7861"/>
  <path d="M-44.538903-22.4910857l1.1032-.604676.79164 1.959208-1.88004.31664z" fill="#6d4c35"/>
  <path d="M-52.321393-17.8118417l1.26655-1.068655 1.1874-.03958.93394.40417 1.40128-.602068 1.7811 1.583196-1.32062.319291-.83962.014-.36384.61572.65771.909585-.14712.57727-.67795.49306-.94992 1.02908-.7916-1.34572-.53914-1.079228.50291-.262194-.15393-.69968-1.02153-.349841-.92562-.498398z" fill="#4d2b1f"/>
  <path d="M-52.321393-17.8118337l1.41874 1.91793.68234-.370012-.15393-.69968-1.02153-.34984z" fill="#230f08"/>
  <path d="M-48.275203-16.5857687l.36384-.615719 1.24903-.112985.91121-.220308-1.3853 1.978998-.62819.45687.14712-.577271z" fill="#230d06"/>
  <path d="M-50.921043-15.9187647l.18335-.113966.55361 1.110238z" fill="#230f08"/>
  <path d="M-56.754353-11.5186227l2.61224.791586 1.22698-1.226966-1.08397-.56655z" fill="#4c3b26"/>
  <path d="M-52.513603-10.6192667l3.20418 2.05846 2.92695-.39688 1.90663-1.79151-3.09596-.690276-1.82068-2.1373-.0792 1.38529z" fill="#3c2c1b"/>
  <g>
    <path d="M5.819687-32.8872417l.0935-1.216078-1.30962-2.712786 1.12253-1.870885-.0935-1.777344 6.17392 3.367596.56127 2.619243-2.43215 1.870887z" fill="#804f3e"/>
    <path d="M4.977787-26.3391407l.65481-3.274049 4.30304-2.993419 2.43215-1.870887 3.1805-.561266 1.68381 2.712786-6.64165 3.180506-4.11595.561266z" fill="#edc292"/>
    <path d="M5.819687-32.8872417l-1.91766 3.975634-.14032 3.601456 1.21608-1.028991.65481-3.274047 4.30304-2.993419z" fill="#c5a17b"/>
    <path d="M5.632597-40.4643367l-3.84673-10.440001-3.80627-5.989269 13.65778 14.83324 2.01508 1.51131 1.23144 2.406904-5.3571-.198072z" fill="#915b42"/>
    <path d="M-2.020403-56.8936067l13.99363 10.691127-1.51311 2.863536z" fill="#d29b6a"/>
    <path d="M9.526797-38.3402247l5.3571.198072.66439 3.103391-3.1805.561266-.56127-2.619243z" fill="#a77658"/>
    <path d="M3.761707-25.3101517l2.5248 6.42593s4.82875 5.936989 4.98707 5.897409c.15832-.0396 2.25606-.1979 2.25606-.1979l.55411-1.22698-4.67043-4.947488 1.02908-2.374797-3.24556-4.195474 1.10623-2.904104-1.82857.249352-1.49671 2.245061z" fill="#7d6149"/>
    <path d="M8.303067-28.8335577l1.14806-.156552 1.66413 3.654357.91034 1.345718-2.4882 1.086183-2.34056-3.0256z" fill="#a27856"/>
    <path d="M11.115257-25.3357527l-.1979-2.968496 2.24963-2.075061-2.57654 1.23384-1.13932.155358z" fill="#5b3722"/>
    <path d="M12.025597-23.9900347l2.01857 1.1874 2.65186.07916 1.7811 1.622779v1.978996l-1.93942 1.583198-2.09774-1.266558-4.25739.260782-.76926-.814901 1.02908-2.374797-.905-1.169876z" fill="#dac4a6"/>
    <path d="M16.696027-22.7234767l2.05816-1.068658.83118 1.147818-1.10824 1.543619z" fill="#68463a"/>
    <path d="M12.545377-29.8059357l2.09249-.08151 3.32472.55412 2.69144-.989499-3.42193-2.00315-4.06511 1.946664z" fill="#bc8a5d"/>
    <path d="M14.637867-29.8874467l3.3643 3.047656 1.30614.03958.63328.55412.75201-1.147818-.0396-2.928916-2.69144.989499z" fill="#6b4e32"/>
    <path d="M18.002167-26.8397927l1.02908 1.781101.3958.672859.15832 1.741514-1.10824 1.543621v1.978996l2.61228-3.008077 2.41437-.831178-3.56219-3.285135-.63328-.55412z" fill="#b19883"/>
    <path d="M18.754187-23.7921367l-.17747-2.053246.85033 1.45955.15832 1.741514z" fill="#765e4d"/>
    <path d="M10.182577-18.5442797l4.25739-.260782 2.09774 1.266558-1.10824 1.741517-2.09744.588984z" fill="#907e67"/>
    <path d="M20.693597-27.3939097l.94992-.514541s.51454 1.42488.55412 1.583198c.0396.158322-.54566 1.656525-.54566 1.656525l-1.71039-1.577364z" fill="#998368"/>
    <path d="M11.973227-46.2024797l2.71476 1.51131-3.43396-.150246z" fill="#eecb9b"/>
    <path d="M11.254027-44.8414157l-.52069.985401 2.24743 1.963571 1.70722-2.798726z" fill="#ca8f57"/>
    <path d="M10.733337-43.8560147l-.27322.51707 1.17726 1.278578 2.01508 1.51131-.67169-1.343387z" fill="#d29968"/>
    <path d="M12.980767-41.8924437l1.70722-2.798726s3.02263 3.554381 3.05061 3.722307c.028.167923-4.75783-.923581-4.75783-.923581z" fill="#e1ae76"/>
    <path d="M12.980767-41.8924437l.67169 1.343387 1.23144 2.406904.66439 3.103391 5.60476-2.99144-3.52916-2.922924z" fill="#dfaf75"/>
    <path d="M15.211607-44.0729257l6.58514-.282395-4.17286 3.402195z" fill="#f0ca95"/>
    <path d="M17.623887-40.9531257l4.17286-3.402195 2.69653 1.485651-5.09068 3.38971z" fill="#f2d29f"/>
    <path d="M21.153047-38.0302017l3.08296-2.425089s1.16761.771808 1.26656.752017c.099-.01979 1.54362-.969708 1.54362-.969708l-2.55291-2.19669-5.09068 3.389712z" fill="#edc08d"/>
    <path d="M20.653997-30.3228257l.67288-4.116314-.90701-3.199744-4.87158 2.600122 1.68381 2.712786z" fill="#d6a777"/>
    <path d="M20.419867-37.6388857l2.37114-1.679752.67319 1.396462-.94992-.07916-.31664 1.543619z" fill="#d1a37a"/>
    <path d="M22.791007-39.3186377l1.445-1.136653 1.28346.74586.95281.995657-.5937 1.543618 1.50404 1.860257-2.05816 1.622777-1.3853 2.968497-1.93942-.237479-.67286-3.483036-.90701-3.199746 1.77777 1.181169.31664-1.543619.94992.07916z" fill="#f9f1d9"/>
    <path d="M21.326877-34.4391397l-.67288 4.116314.0396 2.928916.94992-.514543.55517 1.58868-.54671 1.651045 3.39542.559953-.47496-3.364296.63328-3.443454.6172-3.163617 2.1801 2.340971 1.31901 1.416345.13078-5.869155-2.07019.882082-2.05816 1.622777-1.3853 2.968495-1.93942-.237477z" fill="#d6b992"/>
    <path d="M25.822917-34.0801417l-1.25048 6.607069.47496 3.364296 1.14335-.935345.2239 2.406904 1.90313 1.567286v-4.533934l1.90313-2.238978-.89888-2.479982z" fill="#9b6e45"/>
    <path d="M27.382617-35.3098987l-1.50404-1.860259.5937-1.543616-.95281-.995657 1.52672-.963551z" fill="#e8cbab"/>
    <path d="M27.382617-35.3098987l-.33643-5.363083-2.55291-2.19669 4.2723-.869929 5.7094.391821-2.29496 1.847157z" fill="#efc996"/>
    <path d="M27.382617-35.3098987l4.7974-6.190724 2.29496-1.847159s2.6443-1.105085 2.60472-.946764c-.0396.158319-2.13731 3.641355-2.13731 3.641355l-3.00808 3.403875z" fill="#c38953"/>
    <path d="M29.452807-36.1919827l-.13078 5.869157.35488.979098 4.19682-3.670535-1.74152-.870757.23748-1.06866 1.3853-.158319 3.20597 1.701938.3958-1.504038-2.41437-1.741519.35621-.989499-1.26655.474961.5937-1.662358-2.69144 1.583198z" fill="#d59f66"/>
    <path d="M29.676907-29.3437277l.544 1.500884 4.04862-3.152842 4.55169 1.622777-1.86026-4.037152-3.20597-1.701938-1.3853.158319-.23748 1.06866 1.74152.870757z" fill="#f1cb9b"/>
    <path d="M31.934307-37.2493157l3.00808-3.403875 2.12363-3.608279 1.71562.837681 5.42245-7.599349-.5937 5.699514-2.61227 1.108236-.55412.989499.94992 1.464459-1.7811 2.889337-4.31422 1.226976-1.26655.474959.5937-1.662356z" fill="#853"/>
    <path d="M35.298597-37.6451167l-.35621.989499 2.41437 1.741517 2.25606-3.957992z" fill="#86563b"/>
    <path d="M37.066017-44.2614697l4.24874-4.78267 5.14539-5.145394 2.7706-2.335215 2.45395-.791599-1.62277 1.266558-5.85784 5.026652-5.42245 7.599349z" fill="#835738"/>
    <path d="M37.867257-35.8097207c-.0851.149368.79564 1.84554.79564 1.84554l.71244-1.583198.83118.474959 1.1874-1.424876-1.7811-2.374797z" fill="#452016"/>
    <path d="M39.612817-38.8720927l1.7811-2.889337-.94992-1.464459.55412-.989499 2.61227-1.108236 2.3748 2.889334-4.59127 5.936994z" fill="#81442b"/>
    <path d="M41.393917-36.4972957l.7916.395798.0396.63328 3.24556-3.878837 1.10824-.07916s2.98259-4.388456 2.82426-4.348877c-.15831.03958-3.41796 1.3408-3.41796 1.3408z" fill="#834b32"/>
    <path d="M45.985217-42.4342917l3.04762-4.630852-4.02906 3.436808z" fill="#854528"/>
    <path d="M45.003777-43.6283357l-1.39339-1.695288.5937-5.699514 4.42761-3.799361-.15297 4.35348-3.04766 3.403875.37464 1.509094 1.24467.181954z" fill="#a8653b"/>
    <path d="M46.060497-44.5297237l2.97234-2.53542 1.66236-3.166395.55412-5.105813-1.27211-.639747-1.34551 1.1546-.15297 4.35348-3.04766 3.403875z" fill="#b06f3a"/>
    <path d="M51.684697-57.3163477l1.06866 1.464458-.35622 4.235053-1.86026 6.253631-1.06866 3.483036-1.34571 1.781098 2.13731-6.134891 1.66236-5.422453-.67286-3.680936-1.27211-.639747z" fill="#9f6940"/>
    <path d="M45.985217-42.4342917l4.70998-7.797247.55412-5.105813.67286 3.680936-1.28355 4.672197-1.10098 3.255901z" fill="#9b5d37"/>
    <path d="M49.403177-43.7750917l-2.82426 4.348877.39577 1.781098 1.14782-2.453955z" fill="#945d3f"/>
    <path d="M42.225117-35.4682177l2.7351-3.268776 2.29153 1.843897-1.50404 1.543619-4.07674 2.216475z" fill="#82462c"/>
    <path d="M44.960217-38.7369937l.51046-.610061 1.10824-.07916.39577 1.781098.86086.178109-1.24209 4.0547-.55975.223899.028 2.882685-4.39073-2.827279 4.07674-2.216475 1.50404-1.543619z" fill="#b17758"/>
    <path d="M46.593457-33.4123077l.92357-.867605-.0142-2.101112z" fill="#ab9075"/>
    <path d="M47.835547-37.4670097l.28696-2.632062-1.14782 2.453955z" fill="#815132"/>
    <path d="M41.393917-36.4972957l.7916.395798.0396.63328-.55414 2.335215-3.00808-.831178.71244-1.583198.83118.474959z" fill="#b18364"/>
    <path d="M37.867257-35.8097207l-.5105.89562-.3958 1.50404 1.86026 4.03715 4.5517 1.266563 1.42487 3.562194 1.979.593698s-3.12682-5.184971-2.9685-5.343292c.15832-.158319 2.25342-1.011978 2.25342-1.011978l-4.39073-2.827277-3.00808-.831178z" fill="#d09b62"/>
    <path d="M43.638787-29.4581697l2.42292-.847556 1.54626 3.663836-.83118 2.691434-1.9324-2.817523z" fill="#c69260"/>
    <path d="M30.220907-27.8428437l.11041.923893 3.28514-2.315427.1409-1.362461z" fill="#574634"/>
    <path d="M30.220907-27.8428437l-1.90313 2.238978v4.533934l1.1032-.604676.7916 1.959208 2.43417-1.325928-.33643-1.424879-2.55291-1.147818-.099-1.919629.67286-1.385297z" fill="#a06952"/>
    <path d="M32.310317-22.4662067s2.35501-.37601 2.43416-.395801c.0792-.01979 1.99879-1.602986 1.99879-1.602986l.96971-1.899838.15832-1.820677 1.20719 1.899838-.89055 1.959208-1.72173 1.642567-2.63206.514538.0396.81139-1.22698.316638z" fill="#a0795f"/>
    <path d="M33.616457-29.2343777l2.39224-1.141254-1.73917-.620056-.51217.398849z" fill="#be946b"/>
    <path d="M33.616457-29.2343777l2.65185-.07916 1.30614.712441.29685.415589.5937-.712438-2.84422-1.292625z" fill="#664529"/>
    <path d="M35.620777-30.1905717l.38792-.18506 2.81252 1.002721 4.5517 1.266563 1.42487 3.562194 1.979.593698-.2673 1.90097-1.20345.699683-2.09904-1.511313-.33585-1.623259-4.18794-.93169.39528-.869606-1.20719-1.899838.5937-.712438z" fill="#a37142"/>
    <path d="M33.834147-22.1693597l.0396.811392-1.22698.316638 3.42348.335232 5.183-4.138213-2.57004-.571754-.49527 1.089602-1.72173 1.642565z" fill="#a47f5f"/>
    <path d="M41.253247-24.8443107l1.6179.359934.33585 1.623261-1.65125 3.330482-6.74493 2.238981-.084 2.4069-3.83425-1.931116-.68003-2.899531s.83992-.457518 1.63704-.891723l.79713-.434207h.00002l3.42348.335232z" fill="#bba585"/>
    <path d="M34.810817-17.2916557l-.084 2.406903.22394 1.7632 1.7632-3.106583 1.48332-.279874 2.12703-1.93112 1.37138 3.582367 2.26696-1.791182 1.34339-4.701858-2.09904-1.511313-1.65125 3.33048z" fill="#9d876e"/>
    <path d="M34.950757-13.1215527l-.58773 2.32294-1.11949 1.0915-2.29496.95157s6.26915-.4478 6.35311-.55975c.084-.11195 3.27451-2.57483 3.27451-2.57483l1.87514-2.23898.86761-1.20344s-.008-.800756-.0902-.735544c-.0825.06521-1.53307 1.211324-1.53307 1.211324l-1.37138-3.582369-2.12703 1.931122-1.48332.279874z" fill="#77684f"/>
    <path d="M23.503777-22.9609587l-1.8518-1.707769 3.39542.559951 1.14335-.935347.2239 2.406904 1.90313 1.567288.0148 1.671172 1.88004-.31664.67999 2.899529-2.95583.108545-1.82068-2.533115z" fill="#ddc9ae"/>
    <path d="M21.089407-22.1297807l.43538.752022-.94993 1.1874 1.10824 1.306137-1.14781 2.493536 1.26655-1.068657 1.1874-.03958.93394.40417 1.40128-.602068 1.0683-1.158695-2.88898-4.105441z" fill="#e7d1b9"/>
    <path d="M25.324457-17.6968227l1.7811 1.583198.83122-.593704-1.54402-2.148189z" fill="#b48b6e"/>
    <path d="M11.476997-13.0132827l1.30062 2.08463 3.32471.83118-2.57269-3.08724 3.76009-.83118-.87076-1.464454-.35389-1.315453-.63561.998813-2.09744.588984.75172.79631-.55411 1.22698z" fill="#cdbaa6"/>
    <path d="M16.065077-16.7958027l.47263-.742703 1.93942-1.583198.89826-1.034357 1.71402-1.97372.43538.75202-.94993 1.187402 1.10824 1.306137-1.14781 2.493534-1.62278-.791597z" fill="#836043"/>
    <path d="M13.529637-13.1847127l2.57269 3.08724 6.09531-2.21648.47496-1.1874-2.13731-2.889335-1.62278-.791599-2.84743.386484.35389 1.315456.87076 1.464454z" fill="#71543b"/>
    <path d="M22.672597-13.5013527l.7916 1.34572-.0792 1.3853-3.52261 1.82067-1.14782-.35622 1.22698-1.22697-1.08397-.56655 3.34002-1.21455z" fill="#625140"/>
    <path d="M27.105557-16.1136247l-1.3853 1.978992-1.30614.94992s3.91842 2.29564 4.15589 2.37479c.23748.0792 3.7601-1.10823 3.7601-1.10823l-.47496-3.12681z" fill="#855f3f"/>
    <path d="M27.105557-16.1136267l.83122-.593704 2.95583-.10854 3.83421 1.931118.22394 1.7632-.58773 2.32294-2.03292-1.11954-.47496-3.12681z" fill="#ccb698"/>
    <path d="M24.414117-13.1847127l-.94992 1.02908 1.82068 2.13731 5.6637 1.26278 2.29496-.95157 1.11949-1.0915-2.03292-1.11954-3.80855 1.08705z" fill="#8e7861"/>
    <path d="M28.317777-21.0699317l1.1032-.604676.79164 1.959208-1.88004.31664z" fill="#6d4c35"/>
    <path d="M20.535287-16.3906877l1.26655-1.068655 1.1874-.03958.93394.40417 1.40128-.602068 1.7811 1.583196-1.32062.319291-.83962.014-.36384.615721.65771.90958-.14712.57727-.67795.49306-.94992 1.02908-.7916-1.34572-.53914-1.07923.50291-.26219-.15393-.699678-1.02153-.349841-.92562-.498398z" fill="#4d2b1f"/>
    <path d="M20.535287-16.3906797l1.41874 1.917927.68234-.37001-.15393-.699679-1.02153-.34984z" fill="#230f08"/>
    <path d="M24.581477-15.1646127l.36384-.615721 1.24903-.112985.91121-.220308-1.3853 1.978994-.62819.45687.14712-.57727z" fill="#230d06"/>
    <path d="M21.935637-14.4976127l.18335-.11397.55361 1.11024z" fill="#230f08"/>
    <path d="M16.102327-10.0974727l2.61224.79159 1.22698-1.22697-1.08397-.56655z" fill="#4c3b26"/>
    <path d="M20.343077-9.1981127l3.20418 2.05846 2.92695-.39688 1.90663-1.79151-3.09596-.69028-1.82068-2.1373-.0792 1.38529z" fill="#3c2c1b"/>
  </g>
  <g>
    <path d="M5.819687-32.8872417l.0935-1.216078-1.30962-2.712786 1.12253-1.870885-.0935-1.777344 6.17392 3.367596.56127 2.619243-2.43215 1.870887z" fill="#804f3e"/>
    <path d="M4.977787-26.3391407l.65481-3.274049 4.30304-2.993419 2.43215-1.870887 3.1805-.561266 1.68381 2.712786-6.64165 3.180506-4.11595.561266z" fill="#edc292"/>
    <path d="M5.819687-32.8872417l-1.91766 3.975634-.14032 3.601456 1.21608-1.028991.65481-3.274047 4.30304-2.993419z" fill="#c5a17b"/>
    <path d="M5.632597-40.4643367l-3.84673-10.440001-3.80627-5.989269 13.65778 14.83324 2.01508 1.51131 1.23144 2.406904-5.3571-.198072z" fill="#915b42"/>
    <path d="M-2.020403-56.8936067l13.99363 10.691127-1.51311 2.863536z" fill="#d29b6a"/>
    <path d="M9.526797-38.3402247l5.3571.198072.66439 3.103391-3.1805.561266-.56127-2.619243z" fill="#a77658"/>
    <path d="M3.761707-25.3101517l2.5248 6.42593s4.82875 5.936989 4.98707 5.897409c.15832-.0396 2.25606-.1979 2.25606-.1979l.55411-1.22698-4.67043-4.947488 1.02908-2.374797-3.24556-4.195474 1.10623-2.904104-1.82857.249352-1.49671 2.245061z" fill="#7d6149"/>
    <path d="M8.303067-28.8335577l1.14806-.156552 1.66413 3.654357.91034 1.345718-2.4882 1.086183-2.34056-3.0256z" fill="#a27856"/>
    <path d="M11.115257-25.3357527l-.1979-2.968496 2.24963-2.075061-2.57654 1.23384-1.13932.155358z" fill="#5b3722"/>
    <path d="M12.025597-23.9900347l2.01857 1.1874 2.65186.07916 1.7811 1.622779v1.978996l-1.93942 1.583198-2.09774-1.266558-4.25739.260782-.76926-.814901 1.02908-2.374797-.905-1.169876z" fill="#dac4a6"/>
    <path d="M16.696027-22.7234767l2.05816-1.068658.83118 1.147818-1.10824 1.543619z" fill="#68463a"/>
    <path d="M12.545377-29.8059357l2.09249-.08151 3.32472.55412 2.69144-.989499-3.42193-2.00315-4.06511 1.946664z" fill="#bc8a5d"/>
    <path d="M14.637867-29.8874467l3.3643 3.047656 1.30614.03958.63328.55412.75201-1.147818-.0396-2.928916-2.69144.989499z" fill="#6b4e32"/>
    <path d="M18.002167-26.8397927l1.02908 1.781101.3958.672859.15832 1.741514-1.10824 1.543621v1.978996l2.61228-3.008077 2.41437-.831178-3.56219-3.285135-.63328-.55412z" fill="#b19883"/>
    <path d="M18.754187-23.7921367l-.17747-2.053246.85033 1.45955.15832 1.741514z" fill="#765e4d"/>
    <path d="M10.182577-18.5442797l4.25739-.260782 2.09774 1.266558-1.10824 1.741517-2.09744.588984z" fill="#907e67"/>
    <path d="M20.693597-27.3939097l.94992-.514541s.51454 1.42488.55412 1.583198c.0396.158322-.54566 1.656525-.54566 1.656525l-1.71039-1.577364z" fill="#998368"/>
    <path d="M11.973227-46.2024797l2.71476 1.51131-3.43396-.150246z" fill="#eecb9b"/>
    <path d="M11.254027-44.8414157l-.52069.985401 2.24743 1.963571 1.70722-2.798726z" fill="#ca8f57"/>
    <path d="M10.733337-43.8560147l-.27322.51707 1.17726 1.278578 2.01508 1.51131-.67169-1.343387z" fill="#d29968"/>
    <path d="M12.980767-41.8924437l1.70722-2.798726s3.02263 3.554381 3.05061 3.722307c.028.167923-4.75783-.923581-4.75783-.923581z" fill="#e1ae76"/>
    <path d="M12.980767-41.8924437l.67169 1.343387 1.23144 2.406904.66439 3.103391 5.60476-2.99144-3.52916-2.922924z" fill="#dfaf75"/>
    <path d="M15.211607-44.0729257l6.58514-.282395-4.17286 3.402195z" fill="#f0ca95"/>
    <path d="M17.623887-40.9531257l4.17286-3.402195 2.69653 1.485651-5.09068 3.38971z" fill="#f2d29f"/>
    <path d="M21.153047-38.0302017l3.08296-2.425089s1.16761.771808 1.26656.752017c.099-.01979 1.54362-.969708 1.54362-.969708l-2.55291-2.19669-5.09068 3.389712z" fill="#edc08d"/>
    <path d="M20.653997-30.3228257l.67288-4.116314-.90701-3.199744-4.87158 2.600122 1.68381 2.712786z" fill="#d6a777"/>
    <path d="M20.419867-37.6388857l2.37114-1.679752.67319 1.396462-.94992-.07916-.31664 1.543619z" fill="#d1a37a"/>
    <path d="M22.791007-39.3186377l1.445-1.136653 1.28346.74586.95281.995657-.5937 1.543618 1.50404 1.860257-2.05816 1.622777-1.3853 2.968497-1.93942-.237479-.67286-3.483036-.90701-3.199746 1.77777 1.181169.31664-1.543619.94992.07916z" fill="#f9f1d9"/>
    <path d="M21.326877-34.4391397l-.67288 4.116314.0396 2.928916.94992-.514543.55517 1.58868-.54671 1.651045 3.39542.559953-.47496-3.364296.63328-3.443454.6172-3.163617 2.1801 2.340971 1.31901 1.416345.13078-5.869155-2.07019.882082-2.05816 1.622777-1.3853 2.968495-1.93942-.237477z" fill="#d6b992"/>
    <path d="M25.822917-34.0801417l-1.25048 6.607069.47496 3.364296 1.14335-.935345.2239 2.406904 1.90313 1.567286v-4.533934l1.90313-2.238978-.89888-2.479982z" fill="#9b6e45"/>
    <path d="M27.382617-35.3098987l-1.50404-1.860259.5937-1.543616-.95281-.995657 1.52672-.963551z" fill="#e8cbab"/>
    <path d="M27.382617-35.3098987l-.33643-5.363083-2.55291-2.19669 4.2723-.869929 5.7094.391821-2.29496 1.847157z" fill="#efc996"/>
    <path d="M27.382617-35.3098987l4.7974-6.190724 2.29496-1.847159s2.6443-1.105085 2.60472-.946764c-.0396.158319-2.13731 3.641355-2.13731 3.641355l-3.00808 3.403875z" fill="#c38953"/>
    <path d="M29.452807-36.1919827l-.13078 5.869157.35488.979098 4.19682-3.670535-1.74152-.870757.23748-1.06866 1.3853-.158319 3.20597 1.701938.3958-1.504038-2.41437-1.741519.35621-.989499-1.26655.474961.5937-1.662358-2.69144 1.583198z" fill="#d59f66"/>
    <path d="M29.676907-29.3437277l.544 1.500884 4.04862-3.152842 4.55169 1.622777-1.86026-4.037152-3.20597-1.701938-1.3853.158319-.23748 1.06866 1.74152.870757z" fill="#f1cb9b"/>
    <path d="M31.934307-37.2493157l3.00808-3.403875 2.12363-3.608279 1.71562.837681 5.42245-7.599349-.5937 5.699514-2.61227 1.108236-.55412.989499.94992 1.464459-1.7811 2.889337-4.31422 1.226976-1.26655.474959.5937-1.662356z" fill="#853"/>
    <path d="M35.298597-37.6451167l-.35621.989499 2.41437 1.741517 2.25606-3.957992z" fill="#86563b"/>
    <path d="M37.066017-44.2614697l4.24874-4.78267 5.14539-5.145394 2.7706-2.335215 2.45395-.791599-1.62277 1.266558-5.85784 5.026652-5.42245 7.599349z" fill="#835738"/>
    <path d="M37.867257-35.8097207c-.0851.149368.79564 1.84554.79564 1.84554l.71244-1.583198.83118.474959 1.1874-1.424876-1.7811-2.374797z" fill="#452016"/>
    <path d="M39.612817-38.8720927l1.7811-2.889337-.94992-1.464459.55412-.989499 2.61227-1.108236 2.3748 2.889334-4.59127 5.936994z" fill="#81442b"/>
    <path d="M41.393917-36.4972957l.7916.395798.0396.63328 3.24556-3.878837 1.10824-.07916s2.98259-4.388456 2.82426-4.348877c-.15831.03958-3.41796 1.3408-3.41796 1.3408z" fill="#834b32"/>
    <path d="M45.985217-42.4342917l3.04762-4.630852-4.02906 3.436808z" fill="#854528"/>
    <path d="M45.003777-43.6283357l-1.39339-1.695288.5937-5.699514 4.42761-3.799361-.15297 4.35348-3.04766 3.403875.37464 1.509094 1.24467.181954z" fill="#a8653b"/>
    <path d="M46.060497-44.5297237l2.97234-2.53542 1.66236-3.166395.55412-5.105813-1.27211-.639747-1.34551 1.1546-.15297 4.35348-3.04766 3.403875z" fill="#b06f3a"/>
    <path d="M51.684697-57.3163477l1.06866 1.464458-.35622 4.235053-1.86026 6.253631-1.06866 3.483036-1.34571 1.781098 2.13731-6.134891 1.66236-5.422453-.67286-3.680936-1.27211-.639747z" fill="#9f6940"/>
    <path d="M45.985217-42.4342917l4.70998-7.797247.55412-5.105813.67286 3.680936-1.28355 4.672197-1.10098 3.255901z" fill="#9b5d37"/>
    <path d="M49.403177-43.7750917l-2.82426 4.348877.39577 1.781098 1.14782-2.453955z" fill="#945d3f"/>
    <path d="M42.225117-35.4682177l2.7351-3.268776 2.29153 1.843897-1.50404 1.543619-4.07674 2.216475z" fill="#82462c"/>
    <path d="M44.960217-38.7369937l.51046-.610061 1.10824-.07916.39577 1.781098.86086.178109-1.24209 4.0547-.55975.223899.028 2.882685-4.39073-2.827279 4.07674-2.216475 1.50404-1.543619z" fill="#b17758"/>
    <path d="M46.593457-33.4123077l.92357-.867605-.0142-2.101112z" fill="#ab9075"/>
    <path d="M47.835547-37.4670097l.28696-2.632062-1.14782 2.453955z" fill="#815132"/>
    <path d="M41.393917-36.4972957l.7916.395798.0396.63328-.55414 2.335215-3.00808-.831178.71244-1.583198.83118.474959z" fill="#b18364"/>
    <path d="M37.867257-35.8097207l-.5105.89562-.3958 1.50404 1.86026 4.03715 4.5517 1.266563 1.42487 3.562194 1.979.593698s-3.12682-5.184971-2.9685-5.343292c.15832-.158319 2.25342-1.011978 2.25342-1.011978l-4.39073-2.827277-3.00808-.831178z" fill="#d09b62"/>
    <path d="M43.638787-29.4581697l2.42292-.847556 1.54626 3.663836-.83118 2.691434-1.9324-2.817523z" fill="#c69260"/>
    <path d="M30.220907-27.8428437l.11041.923893 3.28514-2.315427.1409-1.362461z" fill="#574634"/>
    <path d="M30.220907-27.8428437l-1.90313 2.238978v4.533934l1.1032-.604676.7916 1.959208 2.43417-1.325928-.33643-1.424879-2.55291-1.147818-.099-1.919629.67286-1.385297z" fill="#a06952"/>
    <path d="M32.310317-22.4662067s2.35501-.37601 2.43416-.395801c.0792-.01979 1.99879-1.602986 1.99879-1.602986l.96971-1.899838.15832-1.820677 1.20719 1.899838-.89055 1.959208-1.72173 1.642567-2.63206.514538.0396.81139-1.22698.316638z" fill="#a0795f"/>
    <path d="M33.616457-29.2343777l2.39224-1.141254-1.73917-.620056-.51217.398849z" fill="#be946b"/>
    <path d="M33.616457-29.2343777l2.65185-.07916 1.30614.712441.29685.415589.5937-.712438-2.84422-1.292625z" fill="#664529"/>
    <path d="M35.620777-30.1905717l.38792-.18506 2.81252 1.002721 4.5517 1.266563 1.42487 3.562194 1.979.593698-.2673 1.90097-1.20345.699683-2.09904-1.511313-.33585-1.623259-4.18794-.93169.39528-.869606-1.20719-1.899838.5937-.712438z" fill="#a37142"/>
    <path d="M33.834147-22.1693597l.0396.811392-1.22698.316638 3.42348.335232 5.183-4.138213-2.57004-.571754-.49527 1.089602-1.72173 1.642565z" fill="#a47f5f"/>
    <path d="M41.253247-24.8443107l1.6179.359934.33585 1.623261-1.65125 3.330482-6.74493 2.238981-.084 2.4069-3.83425-1.931116-.68003-2.899531s.83992-.457518 1.63704-.891723l.79713-.434207h.00002l3.42348.335232z" fill="#bba585"/>
    <path d="M34.810817-17.2916557l-.084 2.406903.22394 1.7632 1.7632-3.106583 1.48332-.279874 2.12703-1.93112 1.37138 3.582367 2.26696-1.791182 1.34339-4.701858-2.09904-1.511313-1.65125 3.33048z" fill="#9d876e"/>
    <path d="M34.950757-13.1215527l-.58773 2.32294-1.11949 1.0915-2.29496.95157s6.26915-.4478 6.35311-.55975c.084-.11195 3.27451-2.57483 3.27451-2.57483l1.87514-2.23898.86761-1.20344s-.008-.800756-.0902-.735544c-.0825.06521-1.53307 1.211324-1.53307 1.211324l-1.37138-3.582369-2.12703 1.931122-1.48332.279874z" fill="#77684f"/>
    <path d="M23.503777-22.9609587l-1.8518-1.707769 3.39542.559951 1.14335-.935347.2239 2.406904 1.90313 1.567288.0148 1.671172 1.88004-.31664.67999 2.899529-2.95583.108545-1.82068-2.533115z" fill="#ddc9ae"/>
    <path d="M21.089407-22.1297807l.43538.752022-.94993 1.1874 1.10824 1.306137-1.14781 2.493536 1.26655-1.068657 1.1874-.03958.93394.40417 1.40128-.602068 1.0683-1.158695-2.88898-4.105441z" fill="#e7d1b9"/>
    <path d="M25.324457-17.6968227l1.7811 1.583198.83122-.593704-1.54402-2.148189z" fill="#b48b6e"/>
    <path d="M11.476997-13.0132827l1.30062 2.08463 3.32471.83118-2.57269-3.08724 3.76009-.83118-.87076-1.464454-.35389-1.315453-.63561.998813-2.09744.588984.75172.79631-.55411 1.22698z" fill="#cdbaa6"/>
    <path d="M16.065077-16.7958027l.47263-.742703 1.93942-1.583198.89826-1.034357 1.71402-1.97372.43538.75202-.94993 1.187402 1.10824 1.306137-1.14781 2.493534-1.62278-.791597z" fill="#836043"/>
    <path d="M13.529637-13.1847127l2.57269 3.08724 6.09531-2.21648.47496-1.1874-2.13731-2.889335-1.62278-.791599-2.84743.386484.35389 1.315456.87076 1.464454z" fill="#71543b"/>
    <path d="M22.672597-13.5013527l.7916 1.34572-.0792 1.3853-3.52261 1.82067-1.14782-.35622 1.22698-1.22697-1.08397-.56655 3.34002-1.21455z" fill="#625140"/>
    <path d="M27.105557-16.1136247l-1.3853 1.978992-1.30614.94992s3.91842 2.29564 4.15589 2.37479c.23748.0792 3.7601-1.10823 3.7601-1.10823l-.47496-3.12681z" fill="#855f3f"/>
    <path d="M27.105557-16.1136267l.83122-.593704 2.95583-.10854 3.83421 1.931118.22394 1.7632-.58773 2.32294-2.03292-1.11954-.47496-3.12681z" fill="#ccb698"/>
    <path d="M24.414117-13.1847127l-.94992 1.02908 1.82068 2.13731 5.6637 1.26278 2.29496-.95157 1.11949-1.0915-2.03292-1.11954-3.80855 1.08705z" fill="#8e7861"/>
    <path d="M28.317777-21.0699317l1.1032-.604676.79164 1.959208-1.88004.31664z" fill="#6d4c35"/>
    <path d="M20.535287-16.3906877l1.26655-1.068655 1.1874-.03958.93394.40417 1.40128-.602068 1.7811 1.583196-1.32062.319291-.83962.014-.36384.615721.65771.90958-.14712.57727-.67795.49306-.94992 1.02908-.7916-1.34572-.53914-1.07923.50291-.26219-.15393-.699678-1.02153-.349841-.92562-.498398z" fill="#4d2b1f"/>
    <path d="M20.535287-16.3906797l1.41874 1.917927.68234-.37001-.15393-.699679-1.02153-.34984z" fill="#230f08"/>
    <path d="M24.581477-15.1646127l.36384-.615721 1.24903-.112985.91121-.220308-1.3853 1.978994-.62819.45687.14712-.57727z" fill="#230d06"/>
    <path d="M21.935637-14.4976127l.18335-.11397.55361 1.11024z" fill="#230f08"/>
    <path d="M16.102327-10.0974727l2.61224.79159 1.22698-1.22697-1.08397-.56655z" fill="#4c3b26"/>
    <path d="M20.343077-9.1981127l3.20418 2.05846 2.92695-.39688 1.90663-1.79151-3.09596-.69028-1.82068-2.1373-.0792 1.38529z" fill="#3c2c1b"/>
  </g>
  <g>
    <path d="M5.819687-32.8872417l.0935-1.216078-1.30962-2.712786 1.12253-1.870885-.0935-1.777344 6.17392 3.367596.56127 2.619243-2.43215 1.870887z" fill="#804f3e"/>
    <path d="M4.977787-26.3391407l.65481-3.274049 4.30304-2.993419 2.43215-1.870887 3.1805-.561266 1.68381 2.712786-6.64165 3.180506-4.11595.561266z" fill="#edc292"/>
    <path d="M5.819687-32.8872417l-1.91766 3.975634-.14032 3.601456 1.21608-1.028991.65481-3.274047 4.30304-2.993419z" fill="#c5a17b"/>
    <path d="M5.632597-40.4643367l-3.84673-10.440001-3.80627-5.989269 13.65778 14.83324 2.01508 1.51131 1.23144 2.406904-5.3571-.198072z" fill="#915b42"/>
    <path d="M-2.020403-56.8936067l13.99363 10.691127-1.51311 2.863536z" fill="#d29b6a"/>
    <path d="M9.526797-38.3402247l5.3571.198072.66439 3.103391-3.1805.561266-.56127-2.619243z" fill="#a77658"/>
    <path d="M3.761707-25.3101517l2.5248 6.42593s4.82875 5.936989 4.98707 5.897409c.15832-.0396 2.25606-.1979 2.25606-.1979l.55411-1.22698-4.67043-4.947488 1.02908-2.374797-3.24556-4.195474 1.10623-2.904104-1.82857.249352-1.49671 2.245061z" fill="#7d6149"/>
    <path d="M8.303067-28.8335577l1.14806-.156552 1.66413 3.654357.91034 1.345718-2.4882 1.086183-2.34056-3.0256z" fill="#a27856"/>
    <path d="M11.115257-25.3357527l-.1979-2.968496 2.24963-2.075061-2.57654 1.23384-1.13932.155358z" fill="#5b3722"/>
    <path d="M12.025597-23.9900347l2.01857 1.1874 2.65186.07916 1.7811 1.622779v1.978996l-1.93942 1.583198-2.09774-1.266558-4.25739.260782-.76926-.814901 1.02908-2.374797-.905-1.169876z" fill="#dac4a6"/>
    <path d="M16.696027-22.7234767l2.05816-1.068658.83118 1.147818-1.10824 1.543619z" fill="#68463a"/>
    <path d="M12.545377-29.8059357l2.09249-.08151 3.32472.55412 2.69144-.989499-3.42193-2.00315-4.06511 1.946664z" fill="#bc8a5d"/>
    <path d="M14.637867-29.8874467l3.3643 3.047656 1.30614.03958.63328.55412.75201-1.147818-.0396-2.928916-2.69144.989499z" fill="#6b4e32"/>
    <path d="M18.002167-26.8397927l1.02908 1.781101.3958.672859.15832 1.741514-1.10824 1.543621v1.978996l2.61228-3.008077 2.41437-.831178-3.56219-3.285135-.63328-.55412z" fill="#b19883"/>
    <path d="M18.754187-23.7921367l-.17747-2.053246.85033 1.45955.15832 1.741514z" fill="#765e4d"/>
    <path d="M10.182577-18.5442797l4.25739-.260782 2.09774 1.266558-1.10824 1.741517-2.09744.588984z" fill="#907e67"/>
    <path d="M20.693597-27.3939097l.94992-.514541s.51454 1.42488.55412 1.583198c.0396.158322-.54566 1.656525-.54566 1.656525l-1.71039-1.577364z" fill="#998368"/>
    <path d="M11.973227-46.2024797l2.71476 1.51131-3.43396-.150246z" fill="#eecb9b"/>
    <path d="M11.254027-44.8414157l-.52069.985401 2.24743 1.963571 1.70722-2.798726z" fill="#ca8f57"/>
    <path d="M10.733337-43.8560147l-.27322.51707 1.17726 1.278578 2.01508 1.51131-.67169-1.343387z" fill="#d29968"/>
    <path d="M12.980767-41.8924437l1.70722-2.798726s3.02263 3.554381 3.05061 3.722307c.028.167923-4.75783-.923581-4.75783-.923581z" fill="#e1ae76"/>
    <path d="M12.980767-41.8924437l.67169 1.343387 1.23144 2.406904.66439 3.103391 5.60476-2.99144-3.52916-2.922924z" fill="#dfaf75"/>
    <path d="M15.211607-44.0729257l6.58514-.282395-4.17286 3.402195z" fill="#f0ca95"/>
    <path d="M17.623887-40.9531257l4.17286-3.402195 2.69653 1.485651-5.09068 3.38971z" fill="#f2d29f"/>
    <path d="M21.153047-38.0302017l3.08296-2.425089s1.16761.771808 1.26656.752017c.099-.01979 1.54362-.969708 1.54362-.969708l-2.55291-2.19669-5.09068 3.389712z" fill="#edc08d"/>
    <path d="M20.653997-30.3228257l.67288-4.116314-.90701-3.199744-4.87158 2.600122 1.68381 2.712786z" fill="#d6a777"/>
    <path d="M20.419867-37.6388857l2.37114-1.679752.67319 1.396462-.94992-.07916-.31664 1.543619z" fill="#d1a37a"/>
    <path d="M22.791007-39.3186377l1.445-1.136653 1.28346.74586.95281.995657-.5937 1.543618 1.50404 1.860257-2.05816 1.622777-1.3853 2.968497-1.93942-.237479-.67286-3.483036-.90701-3.199746 1.77777 1.181169.31664-1.543619.94992.07916z" fill="#f9f1d9"/>
    <path d="M21.326877-34.4391397l-.67288 4.116314.0396 2.928916.94992-.514543.55517 1.58868-.54671 1.651045 3.39542.559953-.47496-3.364296.63328-3.443454.6172-3.163617 2.1801 2.340971 1.31901 1.416345.13078-5.869155-2.07019.882082-2.05816 1.622777-1.3853 2.968495-1.93942-.237477z" fill="#d6b992"/>
    <path d="M25.822917-34.0801417l-1.25048 6.607069.47496 3.364296 1.14335-.935345.2239 2.406904 1.90313 1.567286v-4.533934l1.90313-2.238978-.89888-2.479982z" fill="#9b6e45"/>
    <path d="M27.382617-35.3098987l-1.50404-1.860259.5937-1.543616-.95281-.995657 1.52672-.963551z" fill="#e8cbab"/>
    <path d="M27.382617-35.3098987l-.33643-5.363083-2.55291-2.19669 4.2723-.869929 5.7094.391821-2.29496 1.847157z" fill="#efc996"/>
    <path d="M27.382617-35.3098987l4.7974-6.190724 2.29496-1.847159s2.6443-1.105085 2.60472-.946764c-.0396.158319-2.13731 3.641355-2.13731 3.641355l-3.00808 3.403875z" fill="#c38953"/>
    <path d="M29.452807-36.1919827l-.13078 5.869157.35488.979098 4.19682-3.670535-1.74152-.870757.23748-1.06866 1.3853-.158319 3.20597 1.701938.3958-1.504038-2.41437-1.741519.35621-.989499-1.26655.474961.5937-1.662358-2.69144 1.583198z" fill="#d59f66"/>
    <path d="M29.676907-29.3437277l.544 1.500884 4.04862-3.152842 4.55169 1.622777-1.86026-4.037152-3.20597-1.701938-1.3853.158319-.23748 1.06866 1.74152.870757z" fill="#f1cb9b"/>
    <path d="M31.934307-37.2493157l3.00808-3.403875 2.12363-3.608279 1.71562.837681 5.42245-7.599349-.5937 5.699514-2.61227 1.108236-.55412.989499.94992 1.464459-1.7811 2.889337-4.31422 1.226976-1.26655.474959.5937-1.662356z" fill="#853"/>
    <path d="M35.298597-37.6451167l-.35621.989499 2.41437 1.741517 2.25606-3.957992z" fill="#86563b"/>
    <path d="M37.066017-44.2614697l4.24874-4.78267 5.14539-5.145394 2.7706-2.335215 2.45395-.791599-1.62277 1.266558-5.85784 5.026652-5.42245 7.599349z" fill="#835738"/>
    <path d="M37.867257-35.8097207c-.0851.149368.79564 1.84554.79564 1.84554l.71244-1.583198.83118.474959 1.1874-1.424876-1.7811-2.374797z" fill="#452016"/>
    <path d="M39.612817-38.8720927l1.7811-2.889337-.94992-1.464459.55412-.989499 2.61227-1.108236 2.3748 2.889334-4.59127 5.936994z" fill="#81442b"/>
    <path d="M41.393917-36.4972957l.7916.395798.0396.63328 3.24556-3.878837 1.10824-.07916s2.98259-4.388456 2.82426-4.348877c-.15831.03958-3.41796 1.3408-3.41796 1.3408z" fill="#834b32"/>
    <path d="M45.985217-42.4342917l3.04762-4.630852-4.02906 3.436808z" fill="#854528"/>
    <path d="M45.003777-43.6283357l-1.39339-1.695288.5937-5.699514 4.42761-3.799361-.15297 4.35348-3.04766 3.403875.37464 1.509094 1.24467.181954z" fill="#a8653b"/>
    <path d="M46.060497-44.5297237l2.97234-2.53542 1.66236-3.166395.55412-5.105813-1.27211-.639747-1.34551 1.1546-.15297 4.35348-3.04766 3.403875z" fill="#b06f3a"/>
    <path d="M51.684697-57.3163477l1.06866 1.464458-.35622 4.235053-1.86026 6.253631-1.06866 3.483036-1.34571 1.781098 2.13731-6.134891 1.66236-5.422453-.67286-3.680936-1.27211-.639747z" fill="#9f6940"/>
    <path d="M45.985217-42.4342917l4.70998-7.797247.55412-5.105813.67286 3.680936-1.28355 4.672197-1.10098 3.255901z" fill="#9b5d37"/>
    <path d="M49.403177-43.7750917l-2.82426 4.348877.39577 1.781098 1.14782-2.453955z" fill="#945d3f"/>
    <path d="M42.225117-35.4682177l2.7351-3.268776 2.29153 1.843897-1.50404 1.543619-4.07674 2.216475z" fill="#82462c"/>
    <path d="M44.960217-38.7369937l.51046-.610061 1.10824-.07916.39577 1.781098.86086.178109-1.24209 4.0547-.55975.223899.028 2.882685-4.39073-2.827279 4.07674-2.216475 1.50404-1.543619z" fill="#b17758"/>
    <path d="M46.593457-33.4123077l.92357-.867605-.0142-2.101112z" fill="#ab9075"/>
    <path d="M47.835547-37.4670097l.28696-2.632062-1.14782 2.453955z" fill="#815132"/>
    <path d="M41.393917-36.4972957l.7916.395798.0396.63328-.55414 2.335215-3.00808-.831178.71244-1.583198.83118.474959z" fill="#b18364"/>
    <path d="M37.867257-35.8097207l-.5105.89562-.3958 1.50404 1.86026 4.03715 4.5517 1.266563 1.42487 3.562194 1.979.593698s-3.12682-5.184971-2.9685-5.343292c.15832-.158319 2.25342-1.011978 2.25342-1.011978l-4.39073-2.827277-3.00808-.831178z" fill="#d09b62"/>
    <path d="M43.638787-29.4581697l2.42292-.847556 1.54626 3.663836-.83118 2.691434-1.9324-2.817523z" fill="#c69260"/>
    <path d="M30.220907-27.8428437l.11041.923893 3.28514-2.315427.1409-1.362461z" fill="#574634"/>
    <path d="M30.220907-27.8428437l-1.90313 2.238978v4.533934l1.1032-.604676.7916 1.959208 2.43417-1.325928-.33643-1.424879-2.55291-1.147818-.099-1.919629.67286-1.385297z" fill="#a06952"/>
    <path d="M32.310317-22.4662067s2.35501-.37601 2.43416-.395801c.0792-.01979 1.99879-1.602986 1.99879-1.602986l.96971-1.899838.15832-1.820677 1.20719 1.899838-.89055 1.959208-1.72173 1.642567-2.63206.514538.0396.81139-1.22698.316638z" fill="#a0795f"/>
    <path d="M33.616457-29.2343777l2.39224-1.141254-1.73917-.620056-.51217.398849z" fill="#be946b"/>
    <path d="M33.616457-29.2343777l2.65185-.07916 1.30614.712441.29685.415589.5937-.712438-2.84422-1.292625z" fill="#664529"/>
    <path d="M35.620777-30.1905717l.38792-.18506 2.81252 1.002721 4.5517 1.266563 1.42487 3.562194 1.979.593698-.2673 1.90097-1.20345.699683-2.09904-1.511313-.33585-1.623259-4.18794-.93169.39528-.869606-1.20719-1.899838.5937-.712438z" fill="#a37142"/>
    <path d="M33.834147-22.1693597l.0396.811392-1.22698.316638 3.42348.335232 5.183-4.138213-2.57004-.571754-.49527 1.089602-1.72173 1.642565z" fill="#a47f5f"/>
    <path d="M41.253247-24.8443107l1.6179.359934.33585 1.623261-1.65125 3.330482-6.74493 2.238981-.084 2.4069-3.83425-1.931116-.68003-2.899531s.83992-.457518 1.63704-.891723l.79713-.434207h.00002l3.42348.335232z" fill="#bba585"/>
    <path d="M34.810817-17.2916557l-.084 2.406903.22394 1.7632 1.7632-3.106583 1.48332-.279874 2.12703-1.93112 1.37138 3.582367 2.26696-1.791182 1.34339-4.701858-2.09904-1.511313-1.65125 3.33048z" fill="#9d876e"/>
    <path d="M34.950757-13.1215527l-.58773 2.32294-1.11949 1.0915-2.29496.95157s6.26915-.4478 6.35311-.55975c.084-.11195 3.27451-2.57483 3.27451-2.57483l1.87514-2.23898.86761-1.20344s-.008-.800756-.0902-.735544c-.0825.06521-1.53307 1.211324-1.53307 1.211324l-1.37138-3.582369-2.12703 1.931122-1.48332.279874z" fill="#77684f"/>
    <path d="M23.503777-22.9609587l-1.8518-1.707769 3.39542.559951 1.14335-.935347.2239 2.406904 1.90313 1.567288.0148 1.671172 1.88004-.31664.67999 2.899529-2.95583.108545-1.82068-2.533115z" fill="#ddc9ae"/>
    <path d="M21.089407-22.1297807l.43538.752022-.94993 1.1874 1.10824 1.306137-1.14781 2.493536 1.26655-1.068657 1.1874-.03958.93394.40417 1.40128-.602068 1.0683-1.158695-2.88898-4.105441z" fill="#e7d1b9"/>
    <path d="M25.324457-17.6968227l1.7811 1.583198.83122-.593704-1.54402-2.148189z" fill="#b48b6e"/>
    <path d="M11.476997-13.0132827l1.30062 2.08463 3.32471.83118-2.57269-3.08724 3.76009-.83118-.87076-1.464454-.35389-1.315453-.63561.998813-2.09744.588984.75172.79631-.55411 1.22698z" fill="#cdbaa6"/>
    <path d="M16.065077-16.7958027l.47263-.742703 1.93942-1.583198.89826-1.034357 1.71402-1.97372.43538.75202-.94993 1.187402 1.10824 1.306137-1.14781 2.493534-1.62278-.791597z" fill="#836043"/>
    <path d="M13.529637-13.1847127l2.57269 3.08724 6.09531-2.21648.47496-1.1874-2.13731-2.889335-1.62278-.791599-2.84743.386484.35389 1.315456.87076 1.464454z" fill="#71543b"/>
    <path d="M22.672597-13.5013527l.7916 1.34572-.0792 1.3853-3.52261 1.82067-1.14782-.35622 1.22698-1.22697-1.08397-.56655 3.34002-1.21455z" fill="#625140"/>
    <path d="M27.105557-16.1136247l-1.3853 1.978992-1.30614.94992s3.91842 2.29564 4.15589 2.37479c.23748.0792 3.7601-1.10823 3.7601-1.10823l-.47496-3.12681z" fill="#855f3f"/>
    <path d="M27.105557-16.1136267l.83122-.593704 2.95583-.10854 3.83421 1.931118.22394 1.7632-.58773 2.32294-2.03292-1.11954-.47496-3.12681z" fill="#ccb698"/>
    <path d="M24.414117-13.1847127l-.94992 1.02908 1.82068 2.13731 5.6637 1.26278 2.29496-.95157 1.11949-1.0915-2.03292-1.11954-3.80855 1.08705z" fill="#8e7861"/>
    <path d="M28.317777-21.0699317l1.1032-.604676.79164 1.959208-1.88004.31664z" fill="#6d4c35"/>
    <path d="M20.535287-16.3906877l1.26655-1.068655 1.1874-.03958.93394.40417 1.40128-.602068 1.7811 1.583196-1.32062.319291-.83962.014-.36384.615721.65771.90958-.14712.57727-.67795.49306-.94992 1.02908-.7916-1.34572-.53914-1.07923.50291-.26219-.15393-.699678-1.02153-.349841-.92562-.498398z" fill="#4d2b1f"/>
    <path d="M20.535287-16.3906797l1.41874 1.917927.68234-.37001-.15393-.699679-1.02153-.34984z" fill="#230f08"/>
    <path d="M24.581477-15.1646127l.36384-.615721 1.24903-.112985.91121-.220308-1.3853 1.978994-.62819.45687.14712-.57727z" fill="#230d06"/>
    <path d="M21.935637-14.4976127l.18335-.11397.55361 1.11024z" fill="#230f08"/>
    <path d="M16.102327-10.0974727l2.61224.79159 1.22698-1.22697-1.08397-.56655z" fill="#4c3b26"/>
    <path d="M20.343077-9.1981127l3.20418 2.05846 2.92695-.39688 1.90663-1.79151-3.09596-.69028-1.82068-2.1373-.0792 1.38529z" fill="#3c2c1b"/>
  </g>
  <g>
    <path d="M16.53971 28.5333633l-.64312 1.075758-.11693.982216s.0234 1.064066.0702 1.099145c.0468.03508.68989 1.017296.68989 1.017296l.80682-.68989.45603-.970523.0234-1.0056-.40926-.970523z" fill="#14130d"/>
    <path d="M13.42936 29.1297073c.0468-.09354.78343-.713274.8419-.713274.0585 0 2.26845.11693 2.26845.11693l-.64312 1.075756-.11693.982218.0502 1.016852.70992 1.099587.80682-.689888.45603-.970523.0234-1.005602-.40926-.970521 1.73052 1.262848.76005.876978-.0234.841898-.53788 1.216078-1.20439.596345-1.62533.01169-1.39147-.654809-.98222-.900364-.59634-.865285-.0935-1.426552z" fill="#393720"/>
    <path d="M12.93776 29.0120973l1.62802-1.501688 2.09249-.08151 3.3643 3.047656.57455.994407.17747 2.053246-2.05816 1.06866-2.65186-.07916-2.01857-1.187399-.91034-1.345719.41065-.523973.59634.865286.98222.900364 1.39147.654809 1.62533-.0117 1.20439-.596346.53788-1.216079.0234-.841896-.76005-.876977-1.73052-1.262848-.87706-.53788-2.29273-.106809-.81762.703154z" fill="#3b2612"/>
    <path d="M13.13566 31.9805903l-.1979-2.968493.4916.11761.11695 2.326912z" fill="#331e13"/>
    <path d="M35.26823 29.2117073l-.59531 1.124479.13229 1.405596.74414 1.273307.94258-.611849.41341-1.124479-.0331-.926039-.9095-1.455208z" fill="#16130e"/>
    <path d="M35.96274 28.8975143s.68204.31703.68204.383176c0 .06615.22746 1.072032.22746 1.072032l-.89294-.562239z" fill="#999"/>
    <path d="M35.26823 29.2117073l-1.14219.432493-1.12253 1.145918-.3274 1.122532s.33909 1.064067.33909 1.145918c0 .08185.97053 1.028989.97053 1.028989s1.91766.01169 1.97612-.0117c.0585-.02339 1.54348-.865285 1.60195-.912058.0585-.04677 1.11084-1.297927 1.11084-1.297927l.39756-1.22777.0234-1.122532-.85359-.853593-1.44994-.04677-.82932.2823s.77357.220552.77732.267915c.004.04736.16528 2.113333.16528 2.113333l-.41341 1.124476-.94258.611849-.74414-1.273305-.13229-1.405596z" fill="#453f20"/>
    <path d="M32.67611 31.9126503l.3274-1.122532 1.12253-1.145918-.20964-.349618-1.56473 1.102812-.67286 1.385298.099 1.919629 2.55291 1.147818-.34499-.762582-.95876-1.00256z" fill="#321e10"/>
    <path d="M34.12604 29.6442003l-.20964-.349618 1.72046-1.212615 2.65185-.07916 1.30614.712441.29685.415589-.15832 1.820677-.96971 1.899838.63593-2.365253-.304-.970529-.85359-.853594-1.44994-.04677z" fill="#211306"/>
    <path d="M39.0956 29.5155703l-.0234 1.122532-.39756 1.22777-1.10887 1.296241-1.59025.907119-1.98979.01834.34499.762582 2.42265-.393393 2.0103-1.605394.63593-2.365253z" fill="#624730"/>
    <path d="M7.84009 24.4291033l.0935-1.216078-1.30962-2.712786 1.12253-1.870885-.0935-1.777344 6.17392 3.367596.56127 2.619243-2.43215 1.870887z" fill="#804f3e"/>
    <path d="M6.99819 30.9772043l.65481-3.274049 4.30304-2.993419 2.43215-1.870887 3.1805-.561266 1.68381 2.712786-6.64165 3.180506-4.11595.561266z" fill="#edc292"/>
    <path d="M7.84009 24.4291033l-1.91766 3.975634-.14032 3.601456 1.21608-1.028991.65481-3.274047 4.30304-2.993419z" fill="#c5a17b"/>
    <path d="M7.653 16.8520083L3.80627 6.4120073 0 .4227383l13.65778 14.83324 2.01508 1.51131 1.23144 2.406904-5.3571-.198072z" fill="#915b42"/>
    <path d="M0 .4227383l13.99363 10.691127-1.51311 2.863536z" fill="#d29b6a"/>
    <path d="M11.5472 18.9761203l5.3571.198072.66439 3.103391-3.1805.561266-.56127-2.619243z" fill="#a77658"/>
    <path d="M5.78211 32.0061933l2.5248 6.42593s4.82875 5.936993 4.98707 5.897413c.15832-.0396 2.25606-.1979 2.25606-.1979l.55411-1.226978-4.67043-4.947494 1.02908-2.374797-3.24556-4.195474 1.10623-2.904104-1.82857.249352-1.49671 2.245061z" fill="#7d6149"/>
    <path d="M10.32347 28.4827873l1.14806-.156552 1.66413 3.654357.91034 1.345718-2.4882 1.086183-2.34056-3.0256z" fill="#a27856"/>
    <path d="M13.13566 31.9805923l-.1979-2.968496 2.24963-2.075061-2.57654 1.23384-1.13932.155358z" fill="#5b3722"/>
    <path d="M14.046 33.3263103l2.01857 1.1874 2.65186.07916 1.7811 1.622779v1.978996l-1.93942 1.583198-2.09774-1.266558-4.25739.260782-.76926-.814901 1.02908-2.374797-.905-1.169876z" fill="#dac4a6"/>
    <path d="M18.71643 34.5928683l2.05816-1.068658.83118 1.147818-1.10824 1.543619z" fill="#68463a"/>
    <path d="M14.56578 27.5104093l2.09249-.08151 3.32472.55412 2.69144-.989499-3.42193-2.00315-4.06511 1.946664z" fill="#bc8a5d"/>
    <path d="M16.65827 27.4288983l3.3643 3.047656 1.30614.03958.63328.55412.75201-1.147818-.0396-2.928916-2.69144.989499z" fill="#6b4e32"/>
    <path d="M20.02257 30.4765523l1.02908 1.781101.3958.672859.15832 1.741514-1.10824 1.543621v1.978996l2.61228-3.008077 2.41437-.831178-3.56219-3.285135-.63328-.55412z" fill="#b19883"/>
    <path d="M20.77459 33.5242083l-.17747-2.053246.85033 1.45955.15832 1.741514z" fill="#765e4d"/>
    <path d="M12.20298 38.7720653l4.25739-.260782 2.09774 1.266558-1.10824 1.741517-2.09744.588989z" fill="#907e67"/>
    <path d="M22.714 29.9224353l.94992-.514541s.51454 1.42488.55412 1.583198c.0396.158322-.54566 1.656525-.54566 1.656525l-1.71039-1.577364z" fill="#998368"/>
    <path d="M13.99363 11.1138653l2.71476 1.51131-3.43396-.150246z" fill="#eecb9b"/>
    <path d="M13.27443 12.4749293l-.52069.985401 2.24743 1.963571 1.70722-2.798726z" fill="#ca8f57"/>
    <path d="M12.75374 13.4603303l-.27322.51707 1.17726 1.278578 2.01508 1.51131-.67169-1.343387z" fill="#d29968"/>
    <path d="M15.00117 15.4239013l1.70722-2.798726s3.02263 3.554381 3.05061 3.722307c.028.167923-4.75783-.923581-4.75783-.923581z" fill="#e1ae76"/>
    <path d="M15.00117 15.4239013l.67169 1.343387 1.23144 2.406904.66439 3.103391 5.60476-2.99144-3.52916-2.922924z" fill="#dfaf75"/>
    <path d="M17.23201 13.2434193l6.58514-.282395-4.17286 3.402195z" fill="#f0ca95"/>
    <path d="M19.64429 16.3632193l4.17286-3.402195 2.69653 1.485651-5.09068 3.38971z" fill="#f2d29f"/>
    <path d="M23.17345 19.2861433l3.08296-2.425089s1.16761.771808 1.26656.752017c.099-.01979 1.54362-.969708 1.54362-.969708l-2.55291-2.19669-5.09068 3.389712z" fill="#edc08d"/>
    <path d="M22.6744 26.9935193l.67288-4.116314-.90701-3.199744-4.87158 2.600122 1.68381 2.712786z" fill="#d6a777"/>
    <path d="M22.44027 19.6774593l2.37114-1.679752.67319 1.396462-.94992-.07916-.31664 1.543619z" fill="#d1a37a"/>
    <path d="M24.81141 17.9977073l1.445-1.136653 1.28346.74586.95281.995657-.5937 1.543618 1.50404 1.860257-2.05816 1.622777-1.3853 2.968497-1.93942-.237479-.67286-3.483036-.90701-3.199746 1.77777 1.181169.31664-1.543619.94992.07916z" fill="#f9f1d9"/>
    <path d="M23.34728 22.8772053l-.67288 4.116314.0396 2.928916.94992-.514543.55517 1.58868-.54671 1.651045 3.39542.559953-.47496-3.364296.63328-3.443454.6172-3.163617 2.1801 2.340971 1.31901 1.416345.13078-5.869155-2.07019.882082-2.05816 1.622777-1.3853 2.968495-1.93942-.237477z" fill="#d6b992"/>
    <path d="M27.84332 23.2362033l-1.25048 6.607069.17734 1.25615.29762 2.108146 1.14335-.935345.2239 2.406904 1.90313 1.567286v-4.533934l1.90313-2.238978-.89888-2.479982z" fill="#9b6e45"/>
    <path d="M29.40302 22.0064463l-1.50404-1.860259.5937-1.543616-.95281-.995657 1.52672-.963551z" fill="#e8cbab"/>
    <path d="M29.40302 22.0064463l-.33643-5.363083-2.55291-2.19669 4.2723-.869929 5.7094.391821-2.29496 1.847157z" fill="#efc996"/>
    <path d="M29.40302 22.0064463l4.7974-6.190724 2.29496-1.847159s2.6443-1.105085 2.60472-.946764c-.0396.158319-2.13731 3.641355-2.13731 3.641355l-3.00808 3.403875z" fill="#c38953"/>
    <path d="M31.47321 21.1243623l-.13078 5.869157.35488.979098 4.19682-3.670535-1.74152-.870757.23748-1.06866 1.3853-.158319 3.20597 1.701938.3958-1.504038-2.41437-1.741519.35621-.989499-1.26655.474961.5937-1.662358-2.69144 1.583198z" fill="#d59f66"/>
    <path d="M31.69731 27.9726173l.544 1.500884 4.04862-3.152842 4.55169 1.622777-1.86026-4.037152-3.20597-1.701938-1.3853.158319-.23748 1.06866 1.74152.870757z" fill="#f1cb9b"/>
    <path d="M33.95471 20.0670293l3.00808-3.403875 2.12363-3.608279 1.71562.837681 5.42245-7.599349-.5937 5.699514-2.61227 1.108236-.55412.989499.94992 1.464459-1.7811 2.889337-4.31422 1.226976-1.26655.474959.5937-1.662356z" fill="#853"/>
    <path d="M37.319 19.6712283l-.35621.989499 2.41437 1.741517 2.25606-3.957992z" fill="#86563b"/>
    <path d="M39.08642 13.0548753l4.24874-4.78267 5.14539-5.145394 2.7706-2.335215 2.45395-.791599-1.62277 1.266558-5.85784 5.026652-5.42245 7.599349z" fill="#835738"/>
    <path d="M39.88766 21.5066243c-.0851.149368.79564 1.84554.79564 1.84554l.71244-1.583198.83118.474959 1.1874-1.424876-1.7811-2.374797z" fill="#452016"/>
    <path d="M41.63322 18.4442523l1.7811-2.889337-.94992-1.464459.55412-.989499 2.61227-1.108236 2.3748 2.889334-4.59127 5.936994z" fill="#81442b"/>
    <path d="M43.41432 20.8190493l.7916.395798.0396.63328 3.24556-3.878837 1.10824-.07916s2.98259-4.388456 2.82426-4.348877c-.15831.03958-3.41796 1.3408-3.41796 1.3408z" fill="#834b32"/>
    <path d="M48.00562 14.8820533l3.04762-4.630852-4.02906 3.436808z" fill="#854528"/>
    <path d="M47.02418 13.6880093l-1.39339-1.695288.5937-5.699514 4.42761-3.799361-.15297 4.35348-3.04766 3.403875.37464 1.509094 1.24467.181954z" fill="#a8653b"/>
    <path d="M48.0809 12.7866213l2.97234-2.53542 1.66236-3.166395.55412-5.105813-1.27211-.639747-1.34551 1.1546-.15297 4.35348-3.04766 3.403875z" fill="#b06f3a"/>
    <path d="M53.7051-.0000027l1.06866 1.464458-.35622 4.235053-1.86026 6.253631-1.06866 3.483036-1.34571 1.781098 2.13731-6.134891 1.66236-5.422453-.67286-3.680936-1.27211-.639747z" fill="#9f6940"/>
    <path d="M48.00562 14.8820533l4.70998-7.797247.55412-5.105813.67286 3.680936-1.28355 4.672197-1.10098 3.255901z" fill="#9b5d37"/>
    <path d="M51.42358 13.5412533l-2.82426 4.348877.39577 1.781098 1.14782-2.453955z" fill="#945d3f"/>
    <path d="M44.24552 21.8481273l2.7351-3.268776 2.29153 1.843897-1.50404 1.543619-4.07674 2.216475z" fill="#82462c"/>
    <path d="M46.98062 18.5793513l.51046-.610061 1.10824-.07916.39577 1.781098.86086.178109-1.24209 4.0547-.55975.223899.028 2.882685-4.39073-2.827279 4.07674-2.216475 1.50404-1.543619z" fill="#b17758"/>
    <path d="M48.61386 23.9040373l.92357-.867605-.0142-2.101112z" fill="#ab9075"/>
    <path d="M49.85595 19.8493353l.28696-2.632062-1.14782 2.453955z" fill="#815132"/>
    <path d="M43.41432 20.8190493l.7916.395798.0396.63328-.55414 2.335215-3.00808-.831178.71244-1.583198.83118.474959z" fill="#b18364"/>
    <path d="M39.88766 21.5066243l-.5105.89562-.3958 1.50404 1.86026 4.03715 4.5517 1.266563 1.42487 3.562194 1.979.593698s-3.12682-5.184971-2.9685-5.343292c.15832-.158319 2.25342-1.011978 2.25342-1.011978l-4.39073-2.827277-3.00808-.831178z" fill="#d09b62"/>
    <path d="M45.65919 27.8581753l2.42292-.847556 1.54626 3.663836-.83118 2.691434-1.9324-2.817523z" fill="#c69260"/>
    <path d="M32.24131 29.4735013l.11041.923893 3.28514-2.315427.1409-1.362461z" fill="#574634"/>
    <path d="M32.24131 29.4735013l-1.90313 2.238978v4.533934l1.1032-.604676.7916 1.959208 2.43417-1.325928-.33643-1.424879-2.55291-1.147818-.099-1.919629.67286-1.385297z" fill="#a06952"/>
    <path d="M34.33072 34.8501383s2.35501-.37601 2.43416-.395801c.0792-.01979 1.99879-1.602986 1.99879-1.602986l.96971-1.899838.15832-1.820677 1.20719 1.899838-.89055 1.959208-1.72173 1.642567-2.63206.514538.0396.81139-1.22698.316638z" fill="#a0795f"/>
    <path d="M35.63686 28.0819673l2.39224-1.141254-1.73917-.620056-.51217.398849z" fill="#be946b"/>
    <path d="M35.63686 28.0819673l2.65185-.07916 1.30614.712441.29685.415589.5937-.712438-2.84422-1.292625z" fill="#664529"/>
    <path d="M37.64118 27.1257733l.38792-.18506 2.81252 1.002721 4.5517 1.266563 1.42487 3.562194 1.979.593698-.2673 1.90097-1.20345.699683-2.09904-1.511313-.33585-1.623259-4.18794-.93169.39528-.869606-1.20719-1.899838.5937-.712438z" fill="#a37142"/>
    <path d="M35.85455 35.1469853l.0396.811392-1.22698.316638 3.42348.335232 5.183-4.138213-2.57004-.571754-.49527 1.089602-1.72173 1.642565z" fill="#a47f5f"/>
    <path d="M43.27365 32.4720343l1.6179.359934.33585 1.623261-1.65125 3.330482-6.74493 2.238981-.084 2.406904-3.83425-1.93112-.68003-2.899531s.83992-.457518 1.63704-.891723l.79713-.434207h.00002l3.42348.335232z" fill="#bba585"/>
    <path d="M36.83122 40.0246893l-.084 2.406904.22394 1.763203 1.7632-3.106587 1.48332-.279874 2.12703-1.93112 1.37138 3.582369 2.26696-1.791184 1.34339-4.701858-2.09904-1.511313-1.65125 3.33048z" fill="#9d876e"/>
    <path d="M36.97116 44.1947963l-.58773 2.32294-1.11949 1.0915-2.29496.951566s6.26915-.4478 6.35311-.55975c.084-.111946 3.27451-2.574826 3.27451-2.574826l1.87514-2.238975.86761-1.203452s-.008-.800753-.0902-.735541c-.0825.06521-1.53307 1.211326-1.53307 1.211326l-1.37138-3.582371-2.12703 1.931122-1.48332.279874z" fill="#77684f"/>
    <path d="M25.52418 34.3553863l-1.8518-1.707769 3.39542.559951 1.14335-.935347.2239 2.406904 1.90313 1.567288.0148 1.671172 1.88004-.31664.67999 2.899529-2.95583.108545-1.82068-2.533115z" fill="#ddc9ae"/>
    <path d="M23.10981 35.1865643l.43538.752022-.94993 1.1874 1.10824 1.306137-1.14781 2.493536 1.26655-1.068657 1.1874-.03958.93394.40417 1.40128-.602068 1.0683-1.158695-2.88898-4.105441z" fill="#e7d1b9"/>
    <path d="M27.34486 39.6195223l1.7811 1.583198.83122-.593704-1.54402-2.148189z" fill="#b48b6e"/>
    <path d="M13.4974 44.3030663l1.30062 2.08463 3.32471.83118-2.57269-3.08724 3.76009-.83118-.87076-1.464458-.35389-1.315453-.63561.998813-2.09744.588989.75172.796311-.55411 1.226978z" fill="#cdbaa6"/>
    <path d="M18.08548 40.5205423l.47263-.742703 1.93942-1.583198.89826-1.034357 1.71402-1.97372.43538.75202-.94993 1.187402 1.10824 1.306137-1.14781 2.493534-1.62278-.791597z" fill="#836043"/>
    <path d="M15.55004 44.1316363l2.57269 3.08724 6.09531-2.21648.47496-1.1874-2.13731-2.889339-1.62278-.791599-2.84743.386484.35389 1.315456.87076 1.464458z" fill="#71543b"/>
    <path d="M24.693 43.8149963l.7916 1.34572-.0792 1.3853-3.52261 1.820666-1.14782-.35622 1.22698-1.226966-1.08397-.56655 3.34002-1.21455z" fill="#625140"/>
    <path d="M29.12596 41.2027203l-1.3853 1.978998-1.30614.949918s3.91842 2.29564 4.15589 2.37479c.23748.0792 3.7601-1.10823 3.7601-1.10823l-.47496-3.126816z" fill="#855f3f"/>
    <path d="M29.12596 41.2027183l.83122-.593704 2.95583-.10854 3.83421 1.931119.22394 1.763203-.58773 2.32294-2.03292-1.11954-.47496-3.126818z" fill="#ccb698"/>
    <path d="M26.43452 44.1316363l-.94992 1.02908 1.82068 2.13731 5.6637 1.262776 2.29496-.951566 1.11949-1.0915-2.03292-1.11954-3.80855 1.08705z" fill="#8e7861"/>
    <path d="M30.33818 36.2464133l1.1032-.604676.79164 1.959208-1.88004.31664z" fill="#6d4c35"/>
    <path d="M22.55569 40.9256573l1.26655-1.068655 1.1874-.03958.93394.40417 1.40128-.602068 1.7811 1.583196-1.32062.319291-.83962.014-.36384.61572.65771.909585-.14712.57727-.67795.49306-.94992 1.02908-.7916-1.34572-.53914-1.079228.50291-.262194-.15393-.69968-1.02153-.349841-.92562-.498398z" fill="#4d2b1f"/>
    <path d="M22.55569 40.9256653l1.41874 1.91793.68234-.370012-.15393-.69968-1.02153-.34984z" fill="#230f08"/>
    <path d="M26.60188 42.1517303l.36384-.615719 1.24903-.112985.91121-.220308-1.3853 1.978998-.62819.45687.14712-.577271z" fill="#230d06"/>
    <path d="M23.95604 42.8187343l.18335-.113966.55361 1.110238z" fill="#230f08"/>
    <path d="M18.12273 47.2188763l2.61224.791586 1.22698-1.226966-1.08397-.56655z" fill="#4c3b26"/>
    <path d="M22.36348 48.1182323l3.20418 2.05846 2.92695-.39688 1.90663-1.79151-3.09596-.690276-1.82068-2.1373-.0792 1.38529z" fill="#3c2c1b"/>
  </g>
  <g>
    <path d="M16.53971 28.5333633l-.64312 1.075758-.11693.982216s.0234 1.064066.0702 1.099145c.0468.03508.68989 1.017296.68989 1.017296l.80682-.68989.45603-.970523.0234-1.0056-.40926-.970523z" fill="#14130d"/>
    <path d="M13.42936 29.1297073c.0468-.09354.78343-.713274.8419-.713274.0585 0 2.26845.11693 2.26845.11693l-.64312 1.075756-.11693.982218.0502 1.016852.70992 1.099587.80682-.689888.45603-.970523.0234-1.005602-.40926-.970521 1.73052 1.262848.76005.876978-.0234.841898-.53788 1.216078-1.20439.596345-1.62533.01169-1.39147-.654809-.98222-.900364-.59634-.865285-.0935-1.426552z" fill="#393720"/>
    <path d="M12.93776 29.0120973l1.62802-1.501688 2.09249-.08151 3.3643 3.047656.57455.994407.17747 2.053246-2.05816 1.06866-2.65186-.07916-2.01857-1.187399-.91034-1.345719.41065-.523973.59634.865286.98222.900364 1.39147.654809 1.62533-.0117 1.20439-.596346.53788-1.216079.0234-.841896-.76005-.876977-1.73052-1.262848-.87706-.53788-2.29273-.106809-.81762.703154z" fill="#3b2612"/>
    <path d="M13.13566 31.9805903l-.1979-2.968493.4916.11761.11695 2.326912z" fill="#331e13"/>
    <path d="M35.26823 29.2117073l-.59531 1.124479.13229 1.405596.74414 1.273307.94258-.611849.41341-1.124479-.0331-.926039-.9095-1.455208z" fill="#16130e"/>
    <path d="M35.96274 28.8975143s.68204.31703.68204.383176c0 .06615.22746 1.072032.22746 1.072032l-.89294-.562239z" fill="#999"/>
    <path d="M35.26823 29.2117073l-1.14219.432493-1.12253 1.145918-.3274 1.122532s.33909 1.064067.33909 1.145918c0 .08185.97053 1.028989.97053 1.028989s1.91766.01169 1.97612-.0117c.0585-.02339 1.54348-.865285 1.60195-.912058.0585-.04677 1.11084-1.297927 1.11084-1.297927l.39756-1.22777.0234-1.122532-.85359-.853593-1.44994-.04677-.82932.2823s.77357.220552.77732.267915c.004.04736.16528 2.113333.16528 2.113333l-.41341 1.124476-.94258.611849-.74414-1.273305-.13229-1.405596z" fill="#453f20"/>
    <path d="M32.67611 31.9126503l.3274-1.122532 1.12253-1.145918-.20964-.349618-1.56473 1.102812-.67286 1.385298.099 1.919629 2.55291 1.147818-.34499-.762582-.95876-1.00256z" fill="#321e10"/>
    <path d="M34.12604 29.6442003l-.20964-.349618 1.72046-1.212615 2.65185-.07916 1.30614.712441.29685.415589-.15832 1.820677-.96971 1.899838.63593-2.365253-.304-.970529-.85359-.853594-1.44994-.04677z" fill="#211306"/>
    <path d="M39.0956 29.5155703l-.0234 1.122532-.39756 1.22777-1.10887 1.296241-1.59025.907119-1.98979.01834.34499.762582 2.42265-.393393 2.0103-1.605394.63593-2.365253z" fill="#624730"/>
    <path d="M7.84009 24.4291033l.0935-1.216078-1.30962-2.712786 1.12253-1.870885-.0935-1.777344 6.17392 3.367596.56127 2.619243-2.43215 1.870887z" fill="#804f3e"/>
    <path d="M6.99819 30.9772043l.65481-3.274049 4.30304-2.993419 2.43215-1.870887 3.1805-.561266 1.68381 2.712786-6.64165 3.180506-4.11595.561266z" fill="#edc292"/>
    <path d="M7.84009 24.4291033l-1.91766 3.975634-.14032 3.601456 1.21608-1.028991.65481-3.274047 4.30304-2.993419z" fill="#c5a17b"/>
    <path d="M7.653 16.8520083L3.80627 6.4120073 0 .4227383l13.65778 14.83324 2.01508 1.51131 1.23144 2.406904-5.3571-.198072z" fill="#915b42"/>
    <path d="M0 .4227383l13.99363 10.691127-1.51311 2.863536z" fill="#d29b6a"/>
    <path d="M11.5472 18.9761203l5.3571.198072.66439 3.103391-3.1805.561266-.56127-2.619243z" fill="#a77658"/>
    <path d="M5.78211 32.0061933l2.5248 6.42593s4.82875 5.936993 4.98707 5.897413c.15832-.0396 2.25606-.1979 2.25606-.1979l.55411-1.226978-4.67043-4.947494 1.02908-2.374797-3.24556-4.195474 1.10623-2.904104-1.82857.249352-1.49671 2.245061z" fill="#7d6149"/>
    <path d="M10.32347 28.4827873l1.14806-.156552 1.66413 3.654357.91034 1.345718-2.4882 1.086183-2.34056-3.0256z" fill="#a27856"/>
    <path d="M13.13566 31.9805923l-.1979-2.968496 2.24963-2.075061-2.57654 1.23384-1.13932.155358z" fill="#5b3722"/>
    <path d="M14.046 33.3263103l2.01857 1.1874 2.65186.07916 1.7811 1.622779v1.978996l-1.93942 1.583198-2.09774-1.266558-4.25739.260782-.76926-.814901 1.02908-2.374797-.905-1.169876z" fill="#dac4a6"/>
    <path d="M18.71643 34.5928683l2.05816-1.068658.83118 1.147818-1.10824 1.543619z" fill="#68463a"/>
    <path d="M14.56578 27.5104093l2.09249-.08151 3.32472.55412 2.69144-.989499-3.42193-2.00315-4.06511 1.946664z" fill="#bc8a5d"/>
    <path d="M16.65827 27.4288983l3.3643 3.047656 1.30614.03958.63328.55412.75201-1.147818-.0396-2.928916-2.69144.989499z" fill="#6b4e32"/>
    <path d="M20.02257 30.4765523l1.02908 1.781101.3958.672859.15832 1.741514-1.10824 1.543621v1.978996l2.61228-3.008077 2.41437-.831178-3.56219-3.285135-.63328-.55412z" fill="#b19883"/>
    <path d="M20.77459 33.5242083l-.17747-2.053246.85033 1.45955.15832 1.741514z" fill="#765e4d"/>
    <path d="M12.20298 38.7720653l4.25739-.260782 2.09774 1.266558-1.10824 1.741517-2.09744.588989z" fill="#907e67"/>
    <path d="M22.714 29.9224353l.94992-.514541s.51454 1.42488.55412 1.583198c.0396.158322-.54566 1.656525-.54566 1.656525l-1.71039-1.577364z" fill="#998368"/>
    <path d="M13.99363 11.1138653l2.71476 1.51131-3.43396-.150246z" fill="#eecb9b"/>
    <path d="M13.27443 12.4749293l-.52069.985401 2.24743 1.963571 1.70722-2.798726z" fill="#ca8f57"/>
    <path d="M12.75374 13.4603303l-.27322.51707 1.17726 1.278578 2.01508 1.51131-.67169-1.343387z" fill="#d29968"/>
    <path d="M15.00117 15.4239013l1.70722-2.798726s3.02263 3.554381 3.05061 3.722307c.028.167923-4.75783-.923581-4.75783-.923581z" fill="#e1ae76"/>
    <path d="M15.00117 15.4239013l.67169 1.343387 1.23144 2.406904.66439 3.103391 5.60476-2.99144-3.52916-2.922924z" fill="#dfaf75"/>
    <path d="M17.23201 13.2434193l6.58514-.282395-4.17286 3.402195z" fill="#f0ca95"/>
    <path d="M19.64429 16.3632193l4.17286-3.402195 2.69653 1.485651-5.09068 3.38971z" fill="#f2d29f"/>
    <path d="M23.17345 19.2861433l3.08296-2.425089s1.16761.771808 1.26656.752017c.099-.01979 1.54362-.969708 1.54362-.969708l-2.55291-2.19669-5.09068 3.389712z" fill="#edc08d"/>
    <path d="M22.6744 26.9935193l.67288-4.116314-.90701-3.199744-4.87158 2.600122 1.68381 2.712786z" fill="#d6a777"/>
    <path d="M22.44027 19.6774593l2.37114-1.679752.67319 1.396462-.94992-.07916-.31664 1.543619z" fill="#d1a37a"/>
    <path d="M24.81141 17.9977073l1.445-1.136653 1.28346.74586.95281.995657-.5937 1.543618 1.50404 1.860257-2.05816 1.622777-1.3853 2.968497-1.93942-.237479-.67286-3.483036-.90701-3.199746 1.77777 1.181169.31664-1.543619.94992.07916z" fill="#f9f1d9"/>
    <path d="M23.34728 22.8772053l-.67288 4.116314.0396 2.928916.94992-.514543.55517 1.58868-.54671 1.651045 3.39542.559953-.47496-3.364296.63328-3.443454.6172-3.163617 2.1801 2.340971 1.31901 1.416345.13078-5.869155-2.07019.882082-2.05816 1.622777-1.3853 2.968495-1.93942-.237477z" fill="#d6b992"/>
    <path d="M27.84332 23.2362033l-1.25048 6.607069.17734 1.25615.29762 2.108146 1.14335-.935345.2239 2.406904 1.90313 1.567286v-4.533934l1.90313-2.238978-.89888-2.479982z" fill="#9b6e45"/>
    <path d="M29.40302 22.0064463l-1.50404-1.860259.5937-1.543616-.95281-.995657 1.52672-.963551z" fill="#e8cbab"/>
    <path d="M29.40302 22.0064463l-.33643-5.363083-2.55291-2.19669 4.2723-.869929 5.7094.391821-2.29496 1.847157z" fill="#efc996"/>
    <path d="M29.40302 22.0064463l4.7974-6.190724 2.29496-1.847159s2.6443-1.105085 2.60472-.946764c-.0396.158319-2.13731 3.641355-2.13731 3.641355l-3.00808 3.403875z" fill="#c38953"/>
    <path d="M31.47321 21.1243623l-.13078 5.869157.35488.979098 4.19682-3.670535-1.74152-.870757.23748-1.06866 1.3853-.158319 3.20597 1.701938.3958-1.504038-2.41437-1.741519.35621-.989499-1.26655.474961.5937-1.662358-2.69144 1.583198z" fill="#d59f66"/>
    <path d="M31.69731 27.9726173l.544 1.500884 4.04862-3.152842 4.55169 1.622777-1.86026-4.037152-3.20597-1.701938-1.3853.158319-.23748 1.06866 1.74152.870757z" fill="#f1cb9b"/>
    <path d="M33.95471 20.0670293l3.00808-3.403875 2.12363-3.608279 1.71562.837681 5.42245-7.599349-.5937 5.699514-2.61227 1.108236-.55412.989499.94992 1.464459-1.7811 2.889337-4.31422 1.226976-1.26655.474959.5937-1.662356z" fill="#853"/>
    <path d="M37.319 19.6712283l-.35621.989499 2.41437 1.741517 2.25606-3.957992z" fill="#86563b"/>
    <path d="M39.08642 13.0548753l4.24874-4.78267 5.14539-5.145394 2.7706-2.335215 2.45395-.791599-1.62277 1.266558-5.85784 5.026652-5.42245 7.599349z" fill="#835738"/>
    <path d="M39.88766 21.5066243c-.0851.149368.79564 1.84554.79564 1.84554l.71244-1.583198.83118.474959 1.1874-1.424876-1.7811-2.374797z" fill="#452016"/>
    <path d="M41.63322 18.4442523l1.7811-2.889337-.94992-1.464459.55412-.989499 2.61227-1.108236 2.3748 2.889334-4.59127 5.936994z" fill="#81442b"/>
    <path d="M43.41432 20.8190493l.7916.395798.0396.63328 3.24556-3.878837 1.10824-.07916s2.98259-4.388456 2.82426-4.348877c-.15831.03958-3.41796 1.3408-3.41796 1.3408z" fill="#834b32"/>
    <path d="M48.00562 14.8820533l3.04762-4.630852-4.02906 3.436808z" fill="#854528"/>
    <path d="M47.02418 13.6880093l-1.39339-1.695288.5937-5.699514 4.42761-3.799361-.15297 4.35348-3.04766 3.403875.37464 1.509094 1.24467.181954z" fill="#a8653b"/>
    <path d="M48.0809 12.7866213l2.97234-2.53542 1.66236-3.166395.55412-5.105813-1.27211-.639747-1.34551 1.1546-.15297 4.35348-3.04766 3.403875z" fill="#b06f3a"/>
    <path d="M53.7051-.0000027l1.06866 1.464458-.35622 4.235053-1.86026 6.253631-1.06866 3.483036-1.34571 1.781098 2.13731-6.134891 1.66236-5.422453-.67286-3.680936-1.27211-.639747z" fill="#9f6940"/>
    <path d="M48.00562 14.8820533l4.70998-7.797247.55412-5.105813.67286 3.680936-1.28355 4.672197-1.10098 3.255901z" fill="#9b5d37"/>
    <path d="M51.42358 13.5412533l-2.82426 4.348877.39577 1.781098 1.14782-2.453955z" fill="#945d3f"/>
    <path d="M44.24552 21.8481273l2.7351-3.268776 2.29153 1.843897-1.50404 1.543619-4.07674 2.216475z" fill="#82462c"/>
    <path d="M46.98062 18.5793513l.51046-.610061 1.10824-.07916.39577 1.781098.86086.178109-1.24209 4.0547-.55975.223899.028 2.882685-4.39073-2.827279 4.07674-2.216475 1.50404-1.543619z" fill="#b17758"/>
    <path d="M48.61386 23.9040373l.92357-.867605-.0142-2.101112z" fill="#ab9075"/>
    <path d="M49.85595 19.8493353l.28696-2.632062-1.14782 2.453955z" fill="#815132"/>
    <path d="M43.41432 20.8190493l.7916.395798.0396.63328-.55414 2.335215-3.00808-.831178.71244-1.583198.83118.474959z" fill="#b18364"/>
    <path d="M39.88766 21.5066243l-.5105.89562-.3958 1.50404 1.86026 4.03715 4.5517 1.266563 1.42487 3.562194 1.979.593698s-3.12682-5.184971-2.9685-5.343292c.15832-.158319 2.25342-1.011978 2.25342-1.011978l-4.39073-2.827277-3.00808-.831178z" fill="#d09b62"/>
    <path d="M45.65919 27.8581753l2.42292-.847556 1.54626 3.663836-.83118 2.691434-1.9324-2.817523z" fill="#c69260"/>
    <path d="M32.24131 29.4735013l.11041.923893 3.28514-2.315427.1409-1.362461z" fill="#574634"/>
    <path d="M32.24131 29.4735013l-1.90313 2.238978v4.533934l1.1032-.604676.7916 1.959208 2.43417-1.325928-.33643-1.424879-2.55291-1.147818-.099-1.919629.67286-1.385297z" fill="#a06952"/>
    <path d="M34.33072 34.8501383s2.35501-.37601 2.43416-.395801c.0792-.01979 1.99879-1.602986 1.99879-1.602986l.96971-1.899838.15832-1.820677 1.20719 1.899838-.89055 1.959208-1.72173 1.642567-2.63206.514538.0396.81139-1.22698.316638z" fill="#a0795f"/>
    <path d="M35.63686 28.0819673l2.39224-1.141254-1.73917-.620056-.51217.398849z" fill="#be946b"/>
    <path d="M35.63686 28.0819673l2.65185-.07916 1.30614.712441.29685.415589.5937-.712438-2.84422-1.292625z" fill="#664529"/>
    <path d="M37.64118 27.1257733l.38792-.18506 2.81252 1.002721 4.5517 1.266563 1.42487 3.562194 1.979.593698-.2673 1.90097-1.20345.699683-2.09904-1.511313-.33585-1.623259-4.18794-.93169.39528-.869606-1.20719-1.899838.5937-.712438z" fill="#a37142"/>
    <path d="M35.85455 35.1469853l.0396.811392-1.22698.316638 3.42348.335232 5.183-4.138213-2.57004-.571754-.49527 1.089602-1.72173 1.642565z" fill="#a47f5f"/>
    <path d="M43.27365 32.4720343l1.6179.359934.33585 1.623261-1.65125 3.330482-6.74493 2.238981-.084 2.406904-3.83425-1.93112-.68003-2.899531s.83992-.457518 1.63704-.891723l.79713-.434207h.00002l3.42348.335232z" fill="#bba585"/>
    <path d="M36.83122 40.0246893l-.084 2.406904.22394 1.763203 1.7632-3.106587 1.48332-.279874 2.12703-1.93112 1.37138 3.582369 2.26696-1.791184 1.34339-4.701858-2.09904-1.511313-1.65125 3.33048z" fill="#9d876e"/>
    <path d="M36.97116 44.1947963l-.58773 2.32294-1.11949 1.0915-2.29496.951566s6.26915-.4478 6.35311-.55975c.084-.111946 3.27451-2.574826 3.27451-2.574826l1.87514-2.238975.86761-1.203452s-.008-.800753-.0902-.735541c-.0825.06521-1.53307 1.211326-1.53307 1.211326l-1.37138-3.582371-2.12703 1.931122-1.48332.279874z" fill="#77684f"/>
    <path d="M25.52418 34.3553863l-1.8518-1.707769 3.39542.559951 1.14335-.935347.2239 2.406904 1.90313 1.567288.0148 1.671172 1.88004-.31664.67999 2.899529-2.95583.108545-1.82068-2.533115z" fill="#ddc9ae"/>
    <path d="M23.10981 35.1865643l.43538.752022-.94993 1.1874 1.10824 1.306137-1.14781 2.493536 1.26655-1.068657 1.1874-.03958.93394.40417 1.40128-.602068 1.0683-1.158695-2.88898-4.105441z" fill="#e7d1b9"/>
    <path d="M27.34486 39.6195223l1.7811 1.583198.83122-.593704-1.54402-2.148189z" fill="#b48b6e"/>
    <path d="M13.4974 44.3030663l1.30062 2.08463 3.32471.83118-2.57269-3.08724 3.76009-.83118-.87076-1.464458-.35389-1.315453-.63561.998813-2.09744.588989.75172.796311-.55411 1.226978z" fill="#cdbaa6"/>
    <path d="M18.08548 40.5205423l.47263-.742703 1.93942-1.583198.89826-1.034357 1.71402-1.97372.43538.75202-.94993 1.187402 1.10824 1.306137-1.14781 2.493534-1.62278-.791597z" fill="#836043"/>
    <path d="M15.55004 44.1316363l2.57269 3.08724 6.09531-2.21648.47496-1.1874-2.13731-2.889339-1.62278-.791599-2.84743.386484.35389 1.315456.87076 1.464458z" fill="#71543b"/>
    <path d="M24.693 43.8149963l.7916 1.34572-.0792 1.3853-3.52261 1.820666-1.14782-.35622 1.22698-1.226966-1.08397-.56655 3.34002-1.21455z" fill="#625140"/>
    <path d="M29.12596 41.2027203l-1.3853 1.978998-1.30614.949918s3.91842 2.29564 4.15589 2.37479c.23748.0792 3.7601-1.10823 3.7601-1.10823l-.47496-3.126816z" fill="#855f3f"/>
    <path d="M29.12596 41.2027183l.83122-.593704 2.95583-.10854 3.83421 1.931119.22394 1.763203-.58773 2.32294-2.03292-1.11954-.47496-3.126818z" fill="#ccb698"/>
    <path d="M26.43452 44.1316363l-.94992 1.02908 1.82068 2.13731 5.6637 1.262776 2.29496-.951566 1.11949-1.0915-2.03292-1.11954-3.80855 1.08705z" fill="#8e7861"/>
    <path d="M30.33818 36.2464133l1.1032-.604676.79164 1.959208-1.88004.31664z" fill="#6d4c35"/>
    <path d="M22.55569 40.9256573l1.26655-1.068655 1.1874-.03958.93394.40417 1.40128-.602068 1.7811 1.583196-1.32062.319291-.83962.014-.36384.61572.65771.909585-.14712.57727-.67795.49306-.94992 1.02908-.7916-1.34572-.53914-1.079228.50291-.262194-.15393-.69968-1.02153-.349841-.92562-.498398z" fill="#4d2b1f"/>
    <path d="M22.55569 40.9256653l1.41874 1.91793.68234-.370012-.15393-.69968-1.02153-.34984z" fill="#230f08"/>
    <path d="M26.60188 42.1517303l.36384-.615719 1.24903-.112985.91121-.220308-1.3853 1.978998-.62819.45687.14712-.577271z" fill="#230d06"/>
    <path d="M23.95604 42.8187343l.18335-.113966.55361 1.110238z" fill="#230f08"/>
    <path d="M18.12273 47.2188763l2.61224.791586 1.22698-1.226966-1.08397-.56655z" fill="#4c3b26"/>
    <path d="M22.36348 48.1182323l3.20418 2.05846 2.92695-.39688 1.90663-1.79151-3.09596-.690276-1.82068-2.1373-.0792 1.38529z" fill="#3c2c1b"/>
  </g>
</svg>
