<svg xmlns="http://www.w3.org/2000/svg" width="6221.6621" height="289.95697" viewBox="0 0 1646.1481 76.717784">
  <g fill="#16142f" stroke="none" stroke-width="5.34458351">
    <path d="M1431.4399122 49.04818c-.557157-1.64157-.967757-2.64019-1.214579-4.00453-.230089-1.27182-.234028-3.78413-.0073-4.69217.444247-1.77968 1.852931-3.59472 4.42151-5.69692 1.149561-.94082 1.07867-.68975.838134-2.96832-.202959-1.92261-.291581-7.588-.148164-9.47163.630744-8.2841 3.241961-14.96141 8.231116-21.04832.914066-1.11518 1.199222-1.28415 1.86484-1.10491.297133.08.540261.27656 1.058171.85547 3.290993 3.67856 6.015193 8.5912 7.35742 13.26789.702652 2.44821 1.138182 4.77954 1.427529 7.64128.1412 1.39651.170152 6.8837.04952 9.38634l-.08016 1.66331.369408.22831c.709237.43831 2.323478 1.78077 3.193297 2.65564 1.434815 1.44313 2.096119 2.49805 2.440135 3.8925.229761.93133.230063 3.51191.000741 4.85725-.250659 1.46937-.709667 3.20503-1.33379 5.06424"/>
    <path d="M1459.9077402 47.9861l91.49888-.38355 3.64179-32.07109 7.48807 60.50251 6.58503-47.70695 5.22699 36.38256 5.13666-30.86638 3.69134 13.43607 62.9716.32328v28.58606l-1646.14807.52917V47.60255l1431.439882.91646"/>
  </g>
</svg>
