<svg xmlns="http://www.w3.org/2000/svg" width="207.01894" height="189.6442" viewBox="0 0 54.773759 50.176695">
  <path d="M-56.316973 27.1122123l-.64312 1.075758-.11693.982216s.0234 1.064066.0702 1.099145c.0468.03508.68989 1.017296.68989 1.017296l.80682-.68989.45603-.970523.0234-1.0056-.40926-.970523z" fill="#14130d"/>
  <path d="M-59.427323 27.7085563c.0468-.09354.78343-.713274.8419-.713274.0585 0 2.26845.11693 2.26845.11693l-.64312 1.075756-.11693.982218.0502 1.016852.70992 1.099587.80682-.689888.45603-.970523.0234-1.005602-.40926-.970521 1.73052 1.262848.76005.876978-.0234.841898-.53788 1.216078-1.20439.596345-1.62533.01169-1.39147-.654809-.98222-.900364-.59634-.865285-.0935-1.426552z" fill="#393720"/>
  <path d="M-59.918923 27.5909463l1.62802-1.501688 2.09249-.08151 3.3643 3.047656.57455.994407.17747 2.053246-2.05816 1.06866-2.65186-.07916-2.01857-1.187399-.91034-1.345719.41065-.523973.59634.865286.98222.900364 1.39147.654809 1.62533-.0117 1.20439-.596346.53788-1.216079.0234-.841896-.76005-.876977-1.73052-1.262848-.87706-.53788-2.29273-.106809-.81762.703154z" fill="#3b2612"/>
  <path d="M-59.721023 30.5594393l-.1979-2.968493.4916.11761.11695 2.326912z" fill="#331e13"/>
  <path d="M-37.588453 27.7905563l-.59531 1.124479.13229 1.405596.74414 1.273307.94258-.611849.41341-1.124479-.0331-.926039-.9095-1.455208z" fill="#16130e"/>
  <path d="M-36.893943 27.4763633s.68204.31703.68204.383176c0 .06615.22746 1.072032.22746 1.072032l-.89294-.562239z" fill="#999"/>
  <path d="M-37.588453 27.7905563l-1.14219.432493-1.12253 1.145918-.3274 1.122532s.33909 1.064067.33909 1.145918c0 .08185.97053 1.028989.97053 1.028989s1.91766.01169 1.97612-.0117c.0585-.02339 1.54348-.865285 1.60195-.912058.0585-.04677 1.11084-1.297927 1.11084-1.297927l.39756-1.22777.0234-1.122532-.85359-.853593-1.44994-.04677-.82932.2823s.77357.220552.77732.267915c.004.04736.16528 2.113333.16528 2.113333l-.41341 1.124476-.94258.611849-.74414-1.273305-.13229-1.405596z" fill="#453f20"/>
  <path d="M-40.180573 30.4914993l.3274-1.122532 1.12253-1.145918-.20964-.349618-1.56473 1.102812-.67286 1.385298.099 1.919629 2.55291 1.147818-.34499-.762582-.95876-1.00256z" fill="#321e10"/>
  <path d="M-38.730643 28.2230493l-.20964-.349618 1.72046-1.212615 2.65185-.07916 1.30614.712441.29685.415589-.15832 1.820677-.96971 1.899838.63593-2.365253-.304-.970529-.85359-.853594-1.44994-.04677z" fill="#211306"/>
  <path d="M-33.761083 28.0944193l-.0234 1.122532-.39756 1.22777-1.10887 1.296241-1.59025.907119-1.98979.01834.34499.762582 2.42265-.393393 2.0103-1.605394.63593-2.365253z" fill="#624730"/>
  <path d="M-65.016593 23.0079523l.0935-1.216078-1.30962-2.712786 1.12253-1.870885-.0935-1.777344 6.17392 3.367596.56127 2.619243-2.43215 1.870887z" fill="#804f3e"/>
  <path d="M-65.858493 29.5560533l.65481-3.274049 4.30304-2.993419 2.43215-1.870887 3.1805-.561266 1.68381 2.712786-6.64165 3.180506-4.11595.561266z" fill="#edc292"/>
  <path d="M-65.016593 23.0079523l-1.91766 3.975634-.14032 3.601456 1.21608-1.028991.65481-3.274047 4.30304-2.993419z" fill="#c5a17b"/>
  <path d="M-65.203683 15.4308573l-3.84673-10.440001-3.80627-5.989269 13.65778 14.83324 2.01508 1.51131 1.23144 2.406904-5.3571-.198072z" fill="#915b42"/>
  <path d="M-72.856683-.9984127l13.99363 10.691127-1.51311 2.863536z" fill="#d29b6a"/>
  <path d="M-61.309483 17.5549693l5.3571.198072.66439 3.103391-3.1805.561266-.56127-2.619243z" fill="#a77658"/>
  <path d="M-67.074573 30.5850423l2.5248 6.42593s4.82875 5.936993 4.98707 5.897413c.15832-.0396 2.25606-.1979 2.25606-.1979l.55411-1.226978-4.67043-4.947494 1.02908-2.374797-3.24556-4.195474 1.10623-2.904104-1.82857.249352-1.49671 2.245061z" fill="#7d6149"/>
  <path d="M-62.533213 27.0616363l1.14806-.156552 1.66413 3.654357.91034 1.345718-2.4882 1.086183-2.34056-3.0256z" fill="#a27856"/>
  <path d="M-59.721023 30.5594413l-.1979-2.968496 2.24963-2.075061-2.57654 1.23384-1.13932.155358z" fill="#5b3722"/>
  <path d="M-58.810683 31.9051593l2.01857 1.1874 2.65186.07916 1.7811 1.622779v1.978996l-1.93942 1.583198-2.09774-1.266558-4.25739.260782-.76926-.814901 1.02908-2.374797-.905-1.169876z" fill="#dac4a6"/>
  <path d="M-54.140253 33.1717173l2.05816-1.068658.83118 1.147818-1.10824 1.543619z" fill="#68463a"/>
  <path d="M-58.290903 26.0892583l2.09249-.08151 3.32472.55412 2.69144-.989499-3.42193-2.00315-4.06511 1.946664z" fill="#bc8a5d"/>
  <path d="M-56.198413 26.0077473l3.3643 3.047656 1.30614.03958.63328.55412.75201-1.147818-.0396-2.928916-2.69144.989499z" fill="#6b4e32"/>
  <path d="M-52.834113 29.0554013l1.02908 1.781101.3958.672859.15832 1.741514-1.10824 1.543621v1.978996l2.61228-3.008077 2.41437-.831178-3.56219-3.285135-.63328-.55412z" fill="#b19883"/>
  <path d="M-52.082093 32.1030573l-.17747-2.053246.85033 1.45955.15832 1.741514z" fill="#765e4d"/>
  <path d="M-60.653703 37.3509143l4.25739-.260782 2.09774 1.266558-1.10824 1.741517-2.09744.588989z" fill="#907e67"/>
  <path d="M-50.142683 28.5012843l.94992-.514541s.51454 1.42488.55412 1.583198c.0396.158322-.54566 1.656525-.54566 1.656525l-1.71039-1.577364z" fill="#998368"/>
  <path d="M-58.863053 9.6927143l2.71476 1.51131-3.43396-.150246z" fill="#eecb9b"/>
  <path d="M-59.582253 11.0537783l-.52069.985401 2.24743 1.963571 1.70722-2.798726z" fill="#ca8f57"/>
  <path d="M-60.102943 12.0391793l-.27322.51707 1.17726 1.278578 2.01508 1.51131-.67169-1.343387z" fill="#d29968"/>
  <path d="M-57.855513 14.0027503l1.70722-2.798726s3.02263 3.554381 3.05061 3.722307c.028.167923-4.75783-.923581-4.75783-.923581z" fill="#e1ae76"/>
  <path d="M-57.855513 14.0027503l.67169 1.343387 1.23144 2.406904.66439 3.103391 5.60476-2.99144-3.52916-2.922924z" fill="#dfaf75"/>
  <path d="M-55.624673 11.8222683l6.58514-.282395-4.17286 3.402195z" fill="#f0ca95"/>
  <path d="M-53.212393 14.9420683l4.17286-3.402195 2.69653 1.485651-5.09068 3.38971z" fill="#f2d29f"/>
  <path d="M-49.683233 17.8649923l3.08296-2.425089s1.16761.771808 1.26656.752017c.099-.01979 1.54362-.969708 1.54362-.969708l-2.55291-2.19669-5.09068 3.389712z" fill="#edc08d"/>
  <path d="M-50.182283 25.5723683l.67288-4.116314-.90701-3.199744-4.87158 2.600122 1.68381 2.712786z" fill="#d6a777"/>
  <path d="M-50.416413 18.2563083l2.37114-1.679752.67319 1.396462-.94992-.07916-.31664 1.543619z" fill="#d1a37a"/>
  <path d="M-48.045273 16.5765563l1.445-1.136653 1.28346.74586.95281.995657-.5937 1.543618 1.50404 1.860257-2.05816 1.622777-1.3853 2.968497-1.93942-.237479-.67286-3.483036-.90701-3.199746 1.77777 1.181169.31664-1.543619.94992.07916z" fill="#f9f1d9"/>
  <path d="M-49.509403 21.4560543l-.67288 4.116314.0396 2.928916.94992-.514543.55517 1.58868-.54671 1.651045 3.39542.559953-.47496-3.364296.63328-3.443454.6172-3.163617 2.1801 2.340971 1.31901 1.416345.13078-5.869155-2.07019.882082-2.05816 1.622777-1.3853 2.968495-1.93942-.237477z" fill="#d6b992"/>
  <path d="M-45.013363 21.8150523l-1.25048 6.607069.17734 1.25615.29762 2.108146 1.14335-.935345.2239 2.406904 1.90313 1.567286v-4.533934l1.90313-2.238978-.89888-2.479982z" fill="#9b6e45"/>
  <path d="M-43.453663 20.5852953l-1.50404-1.860259.5937-1.543616-.95281-.995657 1.52672-.963551z" fill="#e8cbab"/>
  <path d="M-43.453663 20.5852953l-.33643-5.363083-2.55291-2.19669 4.2723-.869929 5.7094.391821-2.29496 1.847157z" fill="#efc996"/>
  <path d="M-43.453663 20.5852953l4.7974-6.190724 2.29496-1.847159s2.6443-1.105085 2.60472-.946764c-.0396.158319-2.13731 3.641355-2.13731 3.641355l-3.00808 3.403875z" fill="#c38953"/>
  <path d="M-41.383473 19.7032113l-.13078 5.869157.35488.979098 4.19682-3.670535-1.74152-.870757.23748-1.06866 1.3853-.158319 3.20597 1.701938.3958-1.504038-2.41437-1.741519.35621-.989499-1.26655.474961.5937-1.662358-2.69144 1.583198z" fill="#d59f66"/>
  <path d="M-41.159373 26.5514663l.544 1.500884 4.04862-3.152842 4.55169 1.622777-1.86026-4.037152-3.20597-1.701938-1.3853.158319-.23748 1.06866 1.74152.870757z" fill="#f1cb9b"/>
  <path d="M-38.901973 18.6458783l3.00808-3.403875 2.12363-3.608279 1.71562.837681 5.42245-7.599349-.5937 5.699514-2.61227 1.108236-.55412.989499.94992 1.464459-1.7811 2.889337-4.31422 1.226976-1.26655.474959.5937-1.662356z" fill="#853"/>
  <path d="M-35.537683 18.2500773l-.35621.989499 2.41437 1.741517 2.25606-3.957992z" fill="#86563b"/>
  <path d="M-33.770263 11.6337243l4.24874-4.78267 5.14539-5.145394 2.7706-2.335215 2.45395-.791599-1.62277 1.266558-5.85784 5.026652-5.42245 7.599349z" fill="#835738"/>
  <path d="M-32.969023 20.0854733c-.0851.149368.79564 1.84554.79564 1.84554l.71244-1.583198.83118.474959 1.1874-1.424876-1.7811-2.374797z" fill="#452016"/>
  <path d="M-31.223463 17.0231013l1.7811-2.889337-.94992-1.464459.55412-.989499 2.61227-1.108236 2.3748 2.889334-4.59127 5.936994z" fill="#81442b"/>
  <path d="M-29.442363 19.3978983l.7916.395798.0396.63328 3.24556-3.878837 1.10824-.07916s2.98259-4.388456 2.82426-4.348877c-.15831.03958-3.41796 1.3408-3.41796 1.3408z" fill="#834b32"/>
  <path d="M-24.851063 13.4609023l3.04762-4.630852-4.02906 3.436808z" fill="#854528"/>
  <path d="M-25.832503 12.2668583l-1.39339-1.695288.5937-5.699514 4.42761-3.799361-.15297 4.35348-3.04766 3.403875.37464 1.509094 1.24467.181954z" fill="#a8653b"/>
  <path d="M-24.775783 11.3654703l2.97234-2.53542 1.66236-3.166395.55412-5.105813-1.27211-.639747-1.34551 1.1546-.15297 4.35348-3.04766 3.403875z" fill="#b06f3a"/>
  <path d="M-19.151583-1.4211537l1.06866 1.464458-.35622 4.235053-1.86026 6.253631-1.06866 3.483036-1.34571 1.781098 2.13731-6.134891 1.66236-5.422453-.67286-3.680936-1.27211-.639747z" fill="#9f6940"/>
  <path d="M-24.851063 13.4609023l4.70998-7.797247.55412-5.105813.67286 3.680936-1.28355 4.672197-1.10098 3.255901z" fill="#9b5d37"/>
  <path d="M-21.433103 12.1201023l-2.82426 4.348877.39577 1.781098 1.14782-2.453955z" fill="#945d3f"/>
  <path d="M-28.611163 20.4269763l2.7351-3.268776 2.29153 1.843897-1.50404 1.543619-4.07674 2.216475z" fill="#82462c"/>
  <path d="M-25.876063 17.1582003l.51046-.610061 1.10824-.07916.39577 1.781098.86086.178109-1.24209 4.0547-.55975.223899.028 2.882685-4.39073-2.827279 4.07674-2.216475 1.50404-1.543619z" fill="#b17758"/>
  <path d="M-24.242823 22.4828863l.92357-.867605-.0142-2.101112z" fill="#ab9075"/>
  <path d="M-23.000733 18.4281843l.28696-2.632062-1.14782 2.453955z" fill="#815132"/>
  <path d="M-29.442363 19.3978983l.7916.395798.0396.63328-.55414 2.335215-3.00808-.831178.71244-1.583198.83118.474959z" fill="#b18364"/>
  <path d="M-32.969023 20.0854733l-.5105.89562-.3958 1.50404 1.86026 4.03715 4.5517 1.266563 1.42487 3.562194 1.979.593698s-3.12682-5.184971-2.9685-5.343292c.15832-.158319 2.25342-1.011978 2.25342-1.011978l-4.39073-2.827277-3.00808-.831178z" fill="#d09b62"/>
  <path d="M-27.197493 26.4370243l2.42292-.847556 1.54626 3.663836-.83118 2.691434-1.9324-2.817523z" fill="#c69260"/>
  <path d="M-40.615373 28.0523503l.11041.923893 3.28514-2.315427.1409-1.362461z" fill="#574634"/>
  <path d="M-40.615373 28.0523503l-1.90313 2.238978v4.533934l1.1032-.604676.7916 1.959208 2.43417-1.325928-.33643-1.424879-2.55291-1.147818-.099-1.919629.67286-1.385297z" fill="#a06952"/>
  <path d="M-38.525963 33.4289873s2.35501-.37601 2.43416-.395801c.0792-.01979 1.99879-1.602986 1.99879-1.602986l.96971-1.899838.15832-1.820677 1.20719 1.899838-.89055 1.959208-1.72173 1.642567-2.63206.514538.0396.81139-1.22698.316638z" fill="#a0795f"/>
  <path d="M-37.219823 26.6608163l2.39224-1.141254-1.73917-.620056-.51217.398849z" fill="#be946b"/>
  <path d="M-37.219823 26.6608163l2.65185-.07916 1.30614.712441.29685.415589.5937-.712438-2.84422-1.292625z" fill="#664529"/>
  <path d="M-35.215503 25.7046223l.38792-.18506 2.81252 1.002721 4.5517 1.266563 1.42487 3.562194 1.979.593698-.2673 1.90097-1.20345.699683-2.09904-1.511313-.33585-1.623259-4.18794-.93169.39528-.869606-1.20719-1.899838.5937-.712438z" fill="#a37142"/>
  <path d="M-37.002133 33.7258343l.0396.811392-1.22698.316638 3.42348.335232 5.183-4.138213-2.57004-.571754-.49527 1.089602-1.72173 1.642565z" fill="#a47f5f"/>
  <path d="M-29.583033 31.0508833l1.6179.359934.33585 1.623261-1.65125 3.330482-6.74493 2.238981-.084 2.406904-3.83425-1.93112-.68003-2.899531s.83992-.457518 1.63704-.891723l.79713-.434207h.00002l3.42348.335232z" fill="#bba585"/>
  <path d="M-36.025463 38.6035383l-.084 2.406904.22394 1.763203 1.7632-3.106587 1.48332-.279874 2.12703-1.93112 1.37138 3.582369 2.26696-1.791184 1.34339-4.701858-2.09904-1.511313-1.65125 3.33048z" fill="#9d876e"/>
  <path d="M-35.885523 42.7736453l-.58773 2.32294-1.11949 1.0915-2.29496.951566s6.26915-.4478 6.35311-.55975c.084-.111946 3.27451-2.574826 3.27451-2.574826l1.87514-2.238975.86761-1.203452s-.008-.800753-.0902-.735541c-.0825.06521-1.53307 1.211326-1.53307 1.211326l-1.37138-3.582371-2.12703 1.931122-1.48332.279874z" fill="#77684f"/>
  <path d="M-47.332503 32.9342353l-1.8518-1.707769 3.39542.559951 1.14335-.935347.2239 2.406904 1.90313 1.567288.0148 1.671172 1.88004-.31664.67999 2.899529-2.95583.108545-1.82068-2.533115z" fill="#ddc9ae"/>
  <path d="M-49.746873 33.7654133l.43538.752022-.94993 1.1874 1.10824 1.306137-1.14781 2.493536 1.26655-1.068657 1.1874-.03958.93394.40417 1.40128-.602068 1.0683-1.158695-2.88898-4.105441z" fill="#e7d1b9"/>
  <path d="M-45.511823 38.1983713l1.7811 1.583198.83122-.593704-1.54402-2.148189z" fill="#b48b6e"/>
  <path d="M-59.359283 42.8819153l1.30062 2.08463 3.32471.83118-2.57269-3.08724 3.76009-.83118-.87076-1.464458-.35389-1.315453-.63561.998813-2.09744.588989.75172.796311-.55411 1.226978z" fill="#cdbaa6"/>
  <path d="M-54.771203 39.0993913l.47263-.742703 1.93942-1.583198.89826-1.034357 1.71402-1.97372.43538.75202-.94993 1.187402 1.10824 1.306137-1.14781 2.493534-1.62278-.791597z" fill="#836043"/>
  <path d="M-57.306643 42.7104853l2.57269 3.08724 6.09531-2.21648.47496-1.1874-2.13731-2.889339-1.62278-.791599-2.84743.386484.35389 1.315456.87076 1.464458z" fill="#71543b"/>
  <path d="M-48.163683 42.3938453l.7916 1.34572-.0792 1.3853-3.52261 1.820666-1.14782-.35622 1.22698-1.226966-1.08397-.56655 3.34002-1.21455z" fill="#625140"/>
  <path d="M-43.730723 39.7815693l-1.3853 1.978998-1.30614.949918s3.91842 2.29564 4.15589 2.37479c.23748.0792 3.7601-1.10823 3.7601-1.10823l-.47496-3.126816z" fill="#855f3f"/>
  <path d="M-43.730723 39.7815673l.83122-.593704 2.95583-.10854 3.83421 1.931119.22394 1.763203-.58773 2.32294-2.03292-1.11954-.47496-3.126818z" fill="#ccb698"/>
  <path d="M-46.422163 42.7104853l-.94992 1.02908 1.82068 2.13731 5.6637 1.262776 2.29496-.951566 1.11949-1.0915-2.03292-1.11954-3.80855 1.08705z" fill="#8e7861"/>
  <path d="M-42.518503 34.8252623l1.1032-.604676.79164 1.959208-1.88004.31664z" fill="#6d4c35"/>
  <path d="M-50.300993 39.5045063l1.26655-1.068655 1.1874-.03958.93394.40417 1.40128-.602068 1.7811 1.583196-1.32062.319291-.83962.014-.36384.61572.65771.909585-.14712.57727-.67795.49306-.94992 1.02908-.7916-1.34572-.53914-1.079228.50291-.262194-.15393-.69968-1.02153-.349841-.92562-.498398z" fill="#4d2b1f"/>
  <path d="M-50.300993 39.5045143l1.41874 1.91793.68234-.370012-.15393-.69968-1.02153-.34984z" fill="#230f08"/>
  <path d="M-46.254803 40.7305793l.36384-.615719 1.24903-.112985.91121-.220308-1.3853 1.978998-.62819.45687.14712-.577271z" fill="#230d06"/>
  <path d="M-48.900643 41.3975833l.18335-.113966.55361 1.110238z" fill="#230f08"/>
  <path d="M-54.733953 45.7977253l2.61224.791586 1.22698-1.226966-1.08397-.56655z" fill="#4c3b26"/>
  <path d="M-50.493203 46.6970813l3.20418 2.05846 2.92695-.39688 1.90663-1.79151-3.09596-.690276-1.82068-2.1373-.0792 1.38529z" fill="#3c2c1b"/>
  <g>
    <path d="M7.840087 24.4291063l.0935-1.216078-1.30962-2.712786 1.12253-1.870885-.0935-1.777344 6.17392 3.367596.56127 2.619243-2.43215 1.870887z" fill="#804f3e"/>
    <path d="M6.998187 30.9772073l.65481-3.274049 4.30304-2.993419 2.43215-1.870887 3.1805-.561266 1.68381 2.712786-6.64165 3.180506-4.11595.561266z" fill="#edc292"/>
    <path d="M7.840087 24.4291063l-1.91766 3.975634-.14032 3.601456 1.21608-1.028991.65481-3.274047 4.30304-2.993419z" fill="#c5a17b"/>
    <path d="M7.652997 16.8520113l-3.84673-10.440001-3.80627-5.989269 13.65778 14.83324 2.01508 1.51131 1.23144 2.406904-5.3571-.198072z" fill="#915b42"/>
    <path d="M-.000003.4227413l13.99363 10.691127-1.51311 2.863536z" fill="#d29b6a"/>
    <path d="M11.547197 18.9761233l5.3571.198072.66439 3.103391-3.1805.561266-.56127-2.619243z" fill="#a77658"/>
    <path d="M5.782107 32.0061963l2.5248 6.42593s4.82875 5.936989 4.98707 5.897409c.15832-.0396 2.25606-.1979 2.25606-.1979l.55411-1.22698-4.67043-4.947488 1.02908-2.374797-3.24556-4.195474 1.10623-2.904104-1.82857.249352-1.49671 2.245061z" fill="#7d6149"/>
    <path d="M10.323467 28.4827903l1.14806-.156552 1.66413 3.654357.91034 1.345718-2.4882 1.086183-2.34056-3.0256z" fill="#a27856"/>
    <path d="M13.135657 31.9805953l-.1979-2.968496 2.24963-2.075061-2.57654 1.23384-1.13932.155358z" fill="#5b3722"/>
    <path d="M14.045997 33.3263133l2.01857 1.1874 2.65186.07916 1.7811 1.622779v1.978996l-1.93942 1.583198-2.09774-1.266558-4.25739.260782-.76926-.814901 1.02908-2.374797-.905-1.169876z" fill="#dac4a6"/>
    <path d="M18.716427 34.5928713l2.05816-1.068658.83118 1.147818-1.10824 1.543619z" fill="#68463a"/>
    <path d="M14.565777 27.5104123l2.09249-.08151 3.32472.55412 2.69144-.989499-3.42193-2.00315-4.06511 1.946664z" fill="#bc8a5d"/>
    <path d="M16.658267 27.4289013l3.3643 3.047656 1.30614.03958.63328.55412.75201-1.147818-.0396-2.928916-2.69144.989499z" fill="#6b4e32"/>
    <path d="M20.022567 30.4765553l1.02908 1.781101.3958.672859.15832 1.741514-1.10824 1.543621v1.978996l2.61228-3.008077 2.41437-.831178-3.56219-3.285135-.63328-.55412z" fill="#b19883"/>
    <path d="M20.774587 33.5242113l-.17747-2.053246.85033 1.45955.15832 1.741514z" fill="#765e4d"/>
    <path d="M12.202977 38.7720683l4.25739-.260782 2.09774 1.266558-1.10824 1.741517-2.09744.588984z" fill="#907e67"/>
    <path d="M22.713997 29.9224383l.94992-.514541s.51454 1.42488.55412 1.583198c.0396.158322-.54566 1.656525-.54566 1.656525l-1.71039-1.577364z" fill="#998368"/>
    <path d="M13.993627 11.1138683l2.71476 1.51131-3.43396-.150246z" fill="#eecb9b"/>
    <path d="M13.274427 12.4749323l-.52069.985401 2.24743 1.963571 1.70722-2.798726z" fill="#ca8f57"/>
    <path d="M12.753737 13.4603333l-.27322.51707 1.17726 1.278578 2.01508 1.51131-.67169-1.343387z" fill="#d29968"/>
    <path d="M15.001167 15.4239043l1.70722-2.798726s3.02263 3.554381 3.05061 3.722307c.028.167923-4.75783-.923581-4.75783-.923581z" fill="#e1ae76"/>
    <path d="M15.001167 15.4239043l.67169 1.343387 1.23144 2.406904.66439 3.103391 5.60476-2.99144-3.52916-2.922924z" fill="#dfaf75"/>
    <path d="M17.232007 13.2434223l6.58514-.282395-4.17286 3.402195z" fill="#f0ca95"/>
    <path d="M19.644287 16.3632223l4.17286-3.402195 2.69653 1.485651-5.09068 3.38971z" fill="#f2d29f"/>
    <path d="M23.173447 19.2861463l3.08296-2.425089s1.16761.771808 1.26656.752017c.099-.01979 1.54362-.969708 1.54362-.969708l-2.55291-2.19669-5.09068 3.389712z" fill="#edc08d"/>
    <path d="M22.674397 26.9935223l.67288-4.116314-.90701-3.199744-4.87158 2.600122 1.68381 2.712786z" fill="#d6a777"/>
    <path d="M22.440267 19.6774623l2.37114-1.679752.67319 1.396462-.94992-.07916-.31664 1.543619z" fill="#d1a37a"/>
    <path d="M24.811407 17.9977103l1.445-1.136653 1.28346.74586.95281.995657-.5937 1.543618 1.50404 1.860257-2.05816 1.622777-1.3853 2.968497-1.93942-.237479-.67286-3.483036-.90701-3.199746 1.77777 1.181169.31664-1.543619.94992.07916z" fill="#f9f1d9"/>
    <path d="M23.347277 22.8772083l-.67288 4.116314.0396 2.928916.94992-.514543.55517 1.58868-.54671 1.651045 3.39542.559953-.47496-3.364296.63328-3.443454.6172-3.163617 2.1801 2.340971 1.31901 1.416345.13078-5.869155-2.07019.882082-2.05816 1.622777-1.3853 2.968495-1.93942-.237477z" fill="#d6b992"/>
    <path d="M27.843317 23.2362063l-1.25048 6.607069.47496 3.364296 1.14335-.935345.2239 2.406904 1.90313 1.567286v-4.533934l1.90313-2.238978-.89888-2.479982z" fill="#9b6e45"/>
    <path d="M29.403017 22.0064493l-1.50404-1.860259.5937-1.543616-.95281-.995657 1.52672-.963551z" fill="#e8cbab"/>
    <path d="M29.403017 22.0064493l-.33643-5.363083-2.55291-2.19669 4.2723-.869929 5.7094.391821-2.29496 1.847157z" fill="#efc996"/>
    <path d="M29.403017 22.0064493l4.7974-6.190724 2.29496-1.847159s2.6443-1.105085 2.60472-.946764c-.0396.158319-2.13731 3.641355-2.13731 3.641355l-3.00808 3.403875z" fill="#c38953"/>
    <path d="M31.473207 21.1243653l-.13078 5.869157.35488.979098 4.19682-3.670535-1.74152-.870757.23748-1.06866 1.3853-.158319 3.20597 1.701938.3958-1.504038-2.41437-1.741519.35621-.989499-1.26655.474961.5937-1.662358-2.69144 1.583198z" fill="#d59f66"/>
    <path d="M31.697307 27.9726203l.544 1.500884 4.04862-3.152842 4.55169 1.622777-1.86026-4.037152-3.20597-1.701938-1.3853.158319-.23748 1.06866 1.74152.870757z" fill="#f1cb9b"/>
    <path d="M33.954707 20.0670323l3.00808-3.403875 2.12363-3.608279 1.71562.837681 5.42245-7.599349-.5937 5.699514-2.61227 1.108236-.55412.989499.94992 1.464459-1.7811 2.889337-4.31422 1.226976-1.26655.474959.5937-1.662356z" fill="#853"/>
    <path d="M37.318997 19.6712313l-.35621.989499 2.41437 1.741517 2.25606-3.957992z" fill="#86563b"/>
    <path d="M39.086417 13.0548783l4.24874-4.78267 5.14539-5.145394 2.7706-2.335215L53.705097 3e-7l-1.62277 1.266558-5.85784 5.026652-5.42245 7.599349z" fill="#835738"/>
    <path d="M39.887657 21.5066273c-.0851.149368.79564 1.84554.79564 1.84554l.71244-1.583198.83118.474959 1.1874-1.424876-1.7811-2.374797z" fill="#452016"/>
    <path d="M41.633217 18.4442553l1.7811-2.889337-.94992-1.464459.55412-.989499 2.61227-1.108236 2.3748 2.889334-4.59127 5.936994z" fill="#81442b"/>
    <path d="M43.414317 20.8190523l.7916.395798.0396.63328 3.24556-3.878837 1.10824-.07916s2.98259-4.388456 2.82426-4.348877c-.15831.03958-3.41796 1.3408-3.41796 1.3408z" fill="#834b32"/>
    <path d="M48.005617 14.8820563l3.04762-4.630852-4.02906 3.436808z" fill="#854528"/>
    <path d="M47.024177 13.6880123l-1.39339-1.695288.5937-5.699514 4.42761-3.799361-.15297 4.35348-3.04766 3.403875.37464 1.509094 1.24467.181954z" fill="#a8653b"/>
    <path d="M48.080897 12.7866243l2.97234-2.53542 1.66236-3.166395.55412-5.105813-1.27211-.639747-1.34551 1.1546-.15297 4.35348-3.04766 3.403875z" fill="#b06f3a"/>
    <path d="M53.705097 3e-7l1.06866 1.464458-.35622 4.235053-1.86026 6.253631-1.06866 3.483036-1.34571 1.781098 2.13731-6.134891 1.66236-5.422453-.67286-3.680936-1.27211-.639747z" fill="#9f6940"/>
    <path d="M48.005617 14.8820563l4.70998-7.797247.55412-5.105813.67286 3.680936-1.28355 4.672197-1.10098 3.255901z" fill="#9b5d37"/>
    <path d="M51.423577 13.5412563l-2.82426 4.348877.39577 1.781098 1.14782-2.453955z" fill="#945d3f"/>
    <path d="M44.245517 21.8481303l2.7351-3.268776 2.29153 1.843897-1.50404 1.543619-4.07674 2.216475z" fill="#82462c"/>
    <path d="M46.980617 18.5793543l.51046-.610061 1.10824-.07916.39577 1.781098.86086.178109-1.24209 4.0547-.55975.223899.028 2.882685-4.39073-2.827279 4.07674-2.216475 1.50404-1.543619z" fill="#b17758"/>
    <path d="M48.613857 23.9040403l.92357-.867605-.0142-2.101112z" fill="#ab9075"/>
    <path d="M49.855947 19.8493383l.28696-2.632062-1.14782 2.453955z" fill="#815132"/>
    <path d="M43.414317 20.8190523l.7916.395798.0396.63328-.55414 2.335215-3.00808-.831178.71244-1.583198.83118.474959z" fill="#b18364"/>
    <path d="M39.887657 21.5066273l-.5105.89562-.3958 1.50404 1.86026 4.03715 4.5517 1.266563 1.42487 3.562194 1.979.593698s-3.12682-5.184971-2.9685-5.343292c.15832-.158319 2.25342-1.011978 2.25342-1.011978l-4.39073-2.827277-3.00808-.831178z" fill="#d09b62"/>
    <path d="M45.659187 27.8581783l2.42292-.847556 1.54626 3.663836-.83118 2.691434-1.9324-2.817523z" fill="#c69260"/>
    <path d="M32.241307 29.4735043l.11041.923893 3.28514-2.315427.1409-1.362461z" fill="#574634"/>
    <path d="M32.241307 29.4735043l-1.90313 2.238978v4.533934l1.1032-.604676.7916 1.959208 2.43417-1.325928-.33643-1.424879-2.55291-1.147818-.099-1.919629.67286-1.385297z" fill="#a06952"/>
    <path d="M34.330717 34.8501413s2.35501-.37601 2.43416-.395801c.0792-.01979 1.99879-1.602986 1.99879-1.602986l.96971-1.899838.15832-1.820677 1.20719 1.899838-.89055 1.959208-1.72173 1.642567-2.63206.514538.0396.81139-1.22698.316638z" fill="#a0795f"/>
    <path d="M35.636857 28.0819703l2.39224-1.141254-1.73917-.620056-.51217.398849z" fill="#be946b"/>
    <path d="M35.636857 28.0819703l2.65185-.07916 1.30614.712441.29685.415589.5937-.712438-2.84422-1.292625z" fill="#664529"/>
    <path d="M37.641177 27.1257763l.38792-.18506 2.81252 1.002721 4.5517 1.266563 1.42487 3.562194 1.979.593698-.2673 1.90097-1.20345.699683-2.09904-1.511313-.33585-1.623259-4.18794-.93169.39528-.869606-1.20719-1.899838.5937-.712438z" fill="#a37142"/>
    <path d="M35.854547 35.1469883l.0396.811392-1.22698.316638 3.42348.335232 5.183-4.138213-2.57004-.571754-.49527 1.089602-1.72173 1.642565z" fill="#a47f5f"/>
    <path d="M43.273647 32.4720373l1.6179.359934.33585 1.623261-1.65125 3.330482-6.74493 2.238981-.084 2.4069-3.83425-1.931116-.68003-2.899531s.83992-.457518 1.63704-.891723l.79713-.434207h.00002l3.42348.335232z" fill="#bba585"/>
    <path d="M36.831217 40.0246923l-.084 2.406903.22394 1.7632 1.7632-3.106583 1.48332-.279874 2.12703-1.93112 1.37138 3.582367 2.26696-1.791182 1.34339-4.701858-2.09904-1.511313-1.65125 3.33048z" fill="#9d876e"/>
    <path d="M36.971157 44.1947953l-.58773 2.32294-1.11949 1.0915-2.29496.95157s6.26915-.4478 6.35311-.55975c.084-.11195 3.27451-2.57483 3.27451-2.57483l1.87514-2.23898.86761-1.20344s-.008-.800756-.0902-.735544c-.0825.06521-1.53307 1.211324-1.53307 1.211324l-1.37138-3.582369-2.12703 1.931122-1.48332.279874z" fill="#77684f"/>
    <path d="M25.524177 34.3553893l-1.8518-1.707769 3.39542.559951 1.14335-.935347.2239 2.406904 1.90313 1.567288.0148 1.671172 1.88004-.31664.67999 2.899529-2.95583.108545-1.82068-2.533115z" fill="#ddc9ae"/>
    <path d="M23.109807 35.1865673l.43538.752022-.94993 1.1874 1.10824 1.306137-1.14781 2.493536 1.26655-1.068657 1.1874-.03958.93394.40417 1.40128-.602068 1.0683-1.158695-2.88898-4.105441z" fill="#e7d1b9"/>
    <path d="M27.344857 39.6195253l1.7811 1.583198.83122-.593704-1.54402-2.148189z" fill="#b48b6e"/>
    <path d="M13.497397 44.3030653l1.30062 2.08463 3.32471.83118-2.57269-3.08724 3.76009-.83118-.87076-1.464454-.35389-1.315453-.63561.998813-2.09744.588984.75172.79631-.55411 1.22698z" fill="#cdbaa6"/>
    <path d="M18.085477 40.5205453l.47263-.742703 1.93942-1.583198.89826-1.034357 1.71402-1.97372.43538.75202-.94993 1.187402 1.10824 1.306137-1.14781 2.493534-1.62278-.791597z" fill="#836043"/>
    <path d="M15.550037 44.1316353l2.57269 3.08724 6.09531-2.21648.47496-1.1874-2.13731-2.889335-1.62278-.791599-2.84743.386484.35389 1.315456.87076 1.464454z" fill="#71543b"/>
    <path d="M24.692997 43.8149953l.7916 1.34572-.0792 1.3853-3.52261 1.82067-1.14782-.35622 1.22698-1.22697-1.08397-.56655 3.34002-1.21455z" fill="#625140"/>
    <path d="M29.125957 41.2027233l-1.3853 1.978992-1.30614.94992s3.91842 2.29564 4.15589 2.37479c.23748.0792 3.7601-1.10823 3.7601-1.10823l-.47496-3.12681z" fill="#855f3f"/>
    <path d="M29.125957 41.2027213l.83122-.593704 2.95583-.10854 3.83421 1.931118.22394 1.7632-.58773 2.32294-2.03292-1.11954-.47496-3.12681z" fill="#ccb698"/>
    <path d="M26.434517 44.1316353l-.94992 1.02908 1.82068 2.13731 5.6637 1.26278 2.29496-.95157 1.11949-1.0915-2.03292-1.11954-3.80855 1.08705z" fill="#8e7861"/>
    <path d="M30.338177 36.2464163l1.1032-.604676.79164 1.959208-1.88004.31664z" fill="#6d4c35"/>
    <path d="M22.555687 40.9256603l1.26655-1.068655 1.1874-.03958.93394.40417 1.40128-.602068 1.7811 1.583196-1.32062.319291-.83962.014-.36384.615721.65771.90958-.14712.57727-.67795.49306-.94992 1.02908-.7916-1.34572-.53914-1.07923.50291-.26219-.15393-.699678-1.02153-.349841-.92562-.498398z" fill="#4d2b1f"/>
    <path d="M22.555687 40.9256683l1.41874 1.917927.68234-.37001-.15393-.699679-1.02153-.34984z" fill="#230f08"/>
    <path d="M26.601877 42.1517353l.36384-.615721 1.24903-.112985.91121-.220308-1.3853 1.978994-.62819.45687.14712-.57727z" fill="#230d06"/>
    <path d="M23.956037 42.8187353l.18335-.11397.55361 1.11024z" fill="#230f08"/>
    <path d="M18.122727 47.2188753l2.61224.79159 1.22698-1.22697-1.08397-.56655z" fill="#4c3b26"/>
    <path d="M22.363477 48.1182353l3.20418 2.05846 2.92695-.39688 1.90663-1.79151-3.09596-.69028-1.82068-2.1373-.0792 1.38529z" fill="#3c2c1b"/>
  </g>
  <g>
    <path d="M7.840087 24.4291063l.0935-1.216078-1.30962-2.712786 1.12253-1.870885-.0935-1.777344 6.17392 3.367596.56127 2.619243-2.43215 1.870887z" fill="#804f3e"/>
    <path d="M6.998187 30.9772073l.65481-3.274049 4.30304-2.993419 2.43215-1.870887 3.1805-.561266 1.68381 2.712786-6.64165 3.180506-4.11595.561266z" fill="#edc292"/>
    <path d="M7.840087 24.4291063l-1.91766 3.975634-.14032 3.601456 1.21608-1.028991.65481-3.274047 4.30304-2.993419z" fill="#c5a17b"/>
    <path d="M7.652997 16.8520113l-3.84673-10.440001-3.80627-5.989269 13.65778 14.83324 2.01508 1.51131 1.23144 2.406904-5.3571-.198072z" fill="#915b42"/>
    <path d="M-.000003.4227413l13.99363 10.691127-1.51311 2.863536z" fill="#d29b6a"/>
    <path d="M11.547197 18.9761233l5.3571.198072.66439 3.103391-3.1805.561266-.56127-2.619243z" fill="#a77658"/>
    <path d="M5.782107 32.0061963l2.5248 6.42593s4.82875 5.936989 4.98707 5.897409c.15832-.0396 2.25606-.1979 2.25606-.1979l.55411-1.22698-4.67043-4.947488 1.02908-2.374797-3.24556-4.195474 1.10623-2.904104-1.82857.249352-1.49671 2.245061z" fill="#7d6149"/>
    <path d="M10.323467 28.4827903l1.14806-.156552 1.66413 3.654357.91034 1.345718-2.4882 1.086183-2.34056-3.0256z" fill="#a27856"/>
    <path d="M13.135657 31.9805953l-.1979-2.968496 2.24963-2.075061-2.57654 1.23384-1.13932.155358z" fill="#5b3722"/>
    <path d="M14.045997 33.3263133l2.01857 1.1874 2.65186.07916 1.7811 1.622779v1.978996l-1.93942 1.583198-2.09774-1.266558-4.25739.260782-.76926-.814901 1.02908-2.374797-.905-1.169876z" fill="#dac4a6"/>
    <path d="M18.716427 34.5928713l2.05816-1.068658.83118 1.147818-1.10824 1.543619z" fill="#68463a"/>
    <path d="M14.565777 27.5104123l2.09249-.08151 3.32472.55412 2.69144-.989499-3.42193-2.00315-4.06511 1.946664z" fill="#bc8a5d"/>
    <path d="M16.658267 27.4289013l3.3643 3.047656 1.30614.03958.63328.55412.75201-1.147818-.0396-2.928916-2.69144.989499z" fill="#6b4e32"/>
    <path d="M20.022567 30.4765553l1.02908 1.781101.3958.672859.15832 1.741514-1.10824 1.543621v1.978996l2.61228-3.008077 2.41437-.831178-3.56219-3.285135-.63328-.55412z" fill="#b19883"/>
    <path d="M20.774587 33.5242113l-.17747-2.053246.85033 1.45955.15832 1.741514z" fill="#765e4d"/>
    <path d="M12.202977 38.7720683l4.25739-.260782 2.09774 1.266558-1.10824 1.741517-2.09744.588984z" fill="#907e67"/>
    <path d="M22.713997 29.9224383l.94992-.514541s.51454 1.42488.55412 1.583198c.0396.158322-.54566 1.656525-.54566 1.656525l-1.71039-1.577364z" fill="#998368"/>
    <path d="M13.993627 11.1138683l2.71476 1.51131-3.43396-.150246z" fill="#eecb9b"/>
    <path d="M13.274427 12.4749323l-.52069.985401 2.24743 1.963571 1.70722-2.798726z" fill="#ca8f57"/>
    <path d="M12.753737 13.4603333l-.27322.51707 1.17726 1.278578 2.01508 1.51131-.67169-1.343387z" fill="#d29968"/>
    <path d="M15.001167 15.4239043l1.70722-2.798726s3.02263 3.554381 3.05061 3.722307c.028.167923-4.75783-.923581-4.75783-.923581z" fill="#e1ae76"/>
    <path d="M15.001167 15.4239043l.67169 1.343387 1.23144 2.406904.66439 3.103391 5.60476-2.99144-3.52916-2.922924z" fill="#dfaf75"/>
    <path d="M17.232007 13.2434223l6.58514-.282395-4.17286 3.402195z" fill="#f0ca95"/>
    <path d="M19.644287 16.3632223l4.17286-3.402195 2.69653 1.485651-5.09068 3.38971z" fill="#f2d29f"/>
    <path d="M23.173447 19.2861463l3.08296-2.425089s1.16761.771808 1.26656.752017c.099-.01979 1.54362-.969708 1.54362-.969708l-2.55291-2.19669-5.09068 3.389712z" fill="#edc08d"/>
    <path d="M22.674397 26.9935223l.67288-4.116314-.90701-3.199744-4.87158 2.600122 1.68381 2.712786z" fill="#d6a777"/>
    <path d="M22.440267 19.6774623l2.37114-1.679752.67319 1.396462-.94992-.07916-.31664 1.543619z" fill="#d1a37a"/>
    <path d="M24.811407 17.9977103l1.445-1.136653 1.28346.74586.95281.995657-.5937 1.543618 1.50404 1.860257-2.05816 1.622777-1.3853 2.968497-1.93942-.237479-.67286-3.483036-.90701-3.199746 1.77777 1.181169.31664-1.543619.94992.07916z" fill="#f9f1d9"/>
    <path d="M23.347277 22.8772083l-.67288 4.116314.0396 2.928916.94992-.514543.55517 1.58868-.54671 1.651045 3.39542.559953-.47496-3.364296.63328-3.443454.6172-3.163617 2.1801 2.340971 1.31901 1.416345.13078-5.869155-2.07019.882082-2.05816 1.622777-1.3853 2.968495-1.93942-.237477z" fill="#d6b992"/>
    <path d="M27.843317 23.2362063l-1.25048 6.607069.47496 3.364296 1.14335-.935345.2239 2.406904 1.90313 1.567286v-4.533934l1.90313-2.238978-.89888-2.479982z" fill="#9b6e45"/>
    <path d="M29.403017 22.0064493l-1.50404-1.860259.5937-1.543616-.95281-.995657 1.52672-.963551z" fill="#e8cbab"/>
    <path d="M29.403017 22.0064493l-.33643-5.363083-2.55291-2.19669 4.2723-.869929 5.7094.391821-2.29496 1.847157z" fill="#efc996"/>
    <path d="M29.403017 22.0064493l4.7974-6.190724 2.29496-1.847159s2.6443-1.105085 2.60472-.946764c-.0396.158319-2.13731 3.641355-2.13731 3.641355l-3.00808 3.403875z" fill="#c38953"/>
    <path d="M31.473207 21.1243653l-.13078 5.869157.35488.979098 4.19682-3.670535-1.74152-.870757.23748-1.06866 1.3853-.158319 3.20597 1.701938.3958-1.504038-2.41437-1.741519.35621-.989499-1.26655.474961.5937-1.662358-2.69144 1.583198z" fill="#d59f66"/>
    <path d="M31.697307 27.9726203l.544 1.500884 4.04862-3.152842 4.55169 1.622777-1.86026-4.037152-3.20597-1.701938-1.3853.158319-.23748 1.06866 1.74152.870757z" fill="#f1cb9b"/>
    <path d="M33.954707 20.0670323l3.00808-3.403875 2.12363-3.608279 1.71562.837681 5.42245-7.599349-.5937 5.699514-2.61227 1.108236-.55412.989499.94992 1.464459-1.7811 2.889337-4.31422 1.226976-1.26655.474959.5937-1.662356z" fill="#853"/>
    <path d="M37.318997 19.6712313l-.35621.989499 2.41437 1.741517 2.25606-3.957992z" fill="#86563b"/>
    <path d="M39.086417 13.0548783l4.24874-4.78267 5.14539-5.145394 2.7706-2.335215L53.705097 3e-7l-1.62277 1.266558-5.85784 5.026652-5.42245 7.599349z" fill="#835738"/>
    <path d="M39.887657 21.5066273c-.0851.149368.79564 1.84554.79564 1.84554l.71244-1.583198.83118.474959 1.1874-1.424876-1.7811-2.374797z" fill="#452016"/>
    <path d="M41.633217 18.4442553l1.7811-2.889337-.94992-1.464459.55412-.989499 2.61227-1.108236 2.3748 2.889334-4.59127 5.936994z" fill="#81442b"/>
    <path d="M43.414317 20.8190523l.7916.395798.0396.63328 3.24556-3.878837 1.10824-.07916s2.98259-4.388456 2.82426-4.348877c-.15831.03958-3.41796 1.3408-3.41796 1.3408z" fill="#834b32"/>
    <path d="M48.005617 14.8820563l3.04762-4.630852-4.02906 3.436808z" fill="#854528"/>
    <path d="M47.024177 13.6880123l-1.39339-1.695288.5937-5.699514 4.42761-3.799361-.15297 4.35348-3.04766 3.403875.37464 1.509094 1.24467.181954z" fill="#a8653b"/>
    <path d="M48.080897 12.7866243l2.97234-2.53542 1.66236-3.166395.55412-5.105813-1.27211-.639747-1.34551 1.1546-.15297 4.35348-3.04766 3.403875z" fill="#b06f3a"/>
    <path d="M53.705097 3e-7l1.06866 1.464458-.35622 4.235053-1.86026 6.253631-1.06866 3.483036-1.34571 1.781098 2.13731-6.134891 1.66236-5.422453-.67286-3.680936-1.27211-.639747z" fill="#9f6940"/>
    <path d="M48.005617 14.8820563l4.70998-7.797247.55412-5.105813.67286 3.680936-1.28355 4.672197-1.10098 3.255901z" fill="#9b5d37"/>
    <path d="M51.423577 13.5412563l-2.82426 4.348877.39577 1.781098 1.14782-2.453955z" fill="#945d3f"/>
    <path d="M44.245517 21.8481303l2.7351-3.268776 2.29153 1.843897-1.50404 1.543619-4.07674 2.216475z" fill="#82462c"/>
    <path d="M46.980617 18.5793543l.51046-.610061 1.10824-.07916.39577 1.781098.86086.178109-1.24209 4.0547-.55975.223899.028 2.882685-4.39073-2.827279 4.07674-2.216475 1.50404-1.543619z" fill="#b17758"/>
    <path d="M48.613857 23.9040403l.92357-.867605-.0142-2.101112z" fill="#ab9075"/>
    <path d="M49.855947 19.8493383l.28696-2.632062-1.14782 2.453955z" fill="#815132"/>
    <path d="M43.414317 20.8190523l.7916.395798.0396.63328-.55414 2.335215-3.00808-.831178.71244-1.583198.83118.474959z" fill="#b18364"/>
    <path d="M39.887657 21.5066273l-.5105.89562-.3958 1.50404 1.86026 4.03715 4.5517 1.266563 1.42487 3.562194 1.979.593698s-3.12682-5.184971-2.9685-5.343292c.15832-.158319 2.25342-1.011978 2.25342-1.011978l-4.39073-2.827277-3.00808-.831178z" fill="#d09b62"/>
    <path d="M45.659187 27.8581783l2.42292-.847556 1.54626 3.663836-.83118 2.691434-1.9324-2.817523z" fill="#c69260"/>
    <path d="M32.241307 29.4735043l.11041.923893 3.28514-2.315427.1409-1.362461z" fill="#574634"/>
    <path d="M32.241307 29.4735043l-1.90313 2.238978v4.533934l1.1032-.604676.7916 1.959208 2.43417-1.325928-.33643-1.424879-2.55291-1.147818-.099-1.919629.67286-1.385297z" fill="#a06952"/>
    <path d="M34.330717 34.8501413s2.35501-.37601 2.43416-.395801c.0792-.01979 1.99879-1.602986 1.99879-1.602986l.96971-1.899838.15832-1.820677 1.20719 1.899838-.89055 1.959208-1.72173 1.642567-2.63206.514538.0396.81139-1.22698.316638z" fill="#a0795f"/>
    <path d="M35.636857 28.0819703l2.39224-1.141254-1.73917-.620056-.51217.398849z" fill="#be946b"/>
    <path d="M35.636857 28.0819703l2.65185-.07916 1.30614.712441.29685.415589.5937-.712438-2.84422-1.292625z" fill="#664529"/>
    <path d="M37.641177 27.1257763l.38792-.18506 2.81252 1.002721 4.5517 1.266563 1.42487 3.562194 1.979.593698-.2673 1.90097-1.20345.699683-2.09904-1.511313-.33585-1.623259-4.18794-.93169.39528-.869606-1.20719-1.899838.5937-.712438z" fill="#a37142"/>
    <path d="M35.854547 35.1469883l.0396.811392-1.22698.316638 3.42348.335232 5.183-4.138213-2.57004-.571754-.49527 1.089602-1.72173 1.642565z" fill="#a47f5f"/>
    <path d="M43.273647 32.4720373l1.6179.359934.33585 1.623261-1.65125 3.330482-6.74493 2.238981-.084 2.4069-3.83425-1.931116-.68003-2.899531s.83992-.457518 1.63704-.891723l.79713-.434207h.00002l3.42348.335232z" fill="#bba585"/>
    <path d="M36.831217 40.0246923l-.084 2.406903.22394 1.7632 1.7632-3.106583 1.48332-.279874 2.12703-1.93112 1.37138 3.582367 2.26696-1.791182 1.34339-4.701858-2.09904-1.511313-1.65125 3.33048z" fill="#9d876e"/>
    <path d="M36.971157 44.1947953l-.58773 2.32294-1.11949 1.0915-2.29496.95157s6.26915-.4478 6.35311-.55975c.084-.11195 3.27451-2.57483 3.27451-2.57483l1.87514-2.23898.86761-1.20344s-.008-.800756-.0902-.735544c-.0825.06521-1.53307 1.211324-1.53307 1.211324l-1.37138-3.582369-2.12703 1.931122-1.48332.279874z" fill="#77684f"/>
    <path d="M25.524177 34.3553893l-1.8518-1.707769 3.39542.559951 1.14335-.935347.2239 2.406904 1.90313 1.567288.0148 1.671172 1.88004-.31664.67999 2.899529-2.95583.108545-1.82068-2.533115z" fill="#ddc9ae"/>
    <path d="M23.109807 35.1865673l.43538.752022-.94993 1.1874 1.10824 1.306137-1.14781 2.493536 1.26655-1.068657 1.1874-.03958.93394.40417 1.40128-.602068 1.0683-1.158695-2.88898-4.105441z" fill="#e7d1b9"/>
    <path d="M27.344857 39.6195253l1.7811 1.583198.83122-.593704-1.54402-2.148189z" fill="#b48b6e"/>
    <path d="M13.497397 44.3030653l1.30062 2.08463 3.32471.83118-2.57269-3.08724 3.76009-.83118-.87076-1.464454-.35389-1.315453-.63561.998813-2.09744.588984.75172.79631-.55411 1.22698z" fill="#cdbaa6"/>
    <path d="M18.085477 40.5205453l.47263-.742703 1.93942-1.583198.89826-1.034357 1.71402-1.97372.43538.75202-.94993 1.187402 1.10824 1.306137-1.14781 2.493534-1.62278-.791597z" fill="#836043"/>
    <path d="M15.550037 44.1316353l2.57269 3.08724 6.09531-2.21648.47496-1.1874-2.13731-2.889335-1.62278-.791599-2.84743.386484.35389 1.315456.87076 1.464454z" fill="#71543b"/>
    <path d="M24.692997 43.8149953l.7916 1.34572-.0792 1.3853-3.52261 1.82067-1.14782-.35622 1.22698-1.22697-1.08397-.56655 3.34002-1.21455z" fill="#625140"/>
    <path d="M29.125957 41.2027233l-1.3853 1.978992-1.30614.94992s3.91842 2.29564 4.15589 2.37479c.23748.0792 3.7601-1.10823 3.7601-1.10823l-.47496-3.12681z" fill="#855f3f"/>
    <path d="M29.125957 41.2027213l.83122-.593704 2.95583-.10854 3.83421 1.931118.22394 1.7632-.58773 2.32294-2.03292-1.11954-.47496-3.12681z" fill="#ccb698"/>
    <path d="M26.434517 44.1316353l-.94992 1.02908 1.82068 2.13731 5.6637 1.26278 2.29496-.95157 1.11949-1.0915-2.03292-1.11954-3.80855 1.08705z" fill="#8e7861"/>
    <path d="M30.338177 36.2464163l1.1032-.604676.79164 1.959208-1.88004.31664z" fill="#6d4c35"/>
    <path d="M22.555687 40.9256603l1.26655-1.068655 1.1874-.03958.93394.40417 1.40128-.602068 1.7811 1.583196-1.32062.319291-.83962.014-.36384.615721.65771.90958-.14712.57727-.67795.49306-.94992 1.02908-.7916-1.34572-.53914-1.07923.50291-.26219-.15393-.699678-1.02153-.349841-.92562-.498398z" fill="#4d2b1f"/>
    <path d="M22.555687 40.9256683l1.41874 1.917927.68234-.37001-.15393-.699679-1.02153-.34984z" fill="#230f08"/>
    <path d="M26.601877 42.1517353l.36384-.615721 1.24903-.112985.91121-.220308-1.3853 1.978994-.62819.45687.14712-.57727z" fill="#230d06"/>
    <path d="M23.956037 42.8187353l.18335-.11397.55361 1.11024z" fill="#230f08"/>
    <path d="M18.122727 47.2188753l2.61224.79159 1.22698-1.22697-1.08397-.56655z" fill="#4c3b26"/>
    <path d="M22.363477 48.1182353l3.20418 2.05846 2.92695-.39688 1.90663-1.79151-3.09596-.69028-1.82068-2.1373-.0792 1.38529z" fill="#3c2c1b"/>
  </g>
  <g>
    <path d="M7.840087 24.4291063l.0935-1.216078-1.30962-2.712786 1.12253-1.870885-.0935-1.777344 6.17392 3.367596.56127 2.619243-2.43215 1.870887z" fill="#804f3e"/>
    <path d="M6.998187 30.9772073l.65481-3.274049 4.30304-2.993419 2.43215-1.870887 3.1805-.561266 1.68381 2.712786-6.64165 3.180506-4.11595.561266z" fill="#edc292"/>
    <path d="M7.840087 24.4291063l-1.91766 3.975634-.14032 3.601456 1.21608-1.028991.65481-3.274047 4.30304-2.993419z" fill="#c5a17b"/>
    <path d="M7.652997 16.8520113l-3.84673-10.440001-3.80627-5.989269 13.65778 14.83324 2.01508 1.51131 1.23144 2.406904-5.3571-.198072z" fill="#915b42"/>
    <path d="M-.000003.4227413l13.99363 10.691127-1.51311 2.863536z" fill="#d29b6a"/>
    <path d="M11.547197 18.9761233l5.3571.198072.66439 3.103391-3.1805.561266-.56127-2.619243z" fill="#a77658"/>
    <path d="M5.782107 32.0061963l2.5248 6.42593s4.82875 5.936989 4.98707 5.897409c.15832-.0396 2.25606-.1979 2.25606-.1979l.55411-1.22698-4.67043-4.947488 1.02908-2.374797-3.24556-4.195474 1.10623-2.904104-1.82857.249352-1.49671 2.245061z" fill="#7d6149"/>
    <path d="M10.323467 28.4827903l1.14806-.156552 1.66413 3.654357.91034 1.345718-2.4882 1.086183-2.34056-3.0256z" fill="#a27856"/>
    <path d="M13.135657 31.9805953l-.1979-2.968496 2.24963-2.075061-2.57654 1.23384-1.13932.155358z" fill="#5b3722"/>
    <path d="M14.045997 33.3263133l2.01857 1.1874 2.65186.07916 1.7811 1.622779v1.978996l-1.93942 1.583198-2.09774-1.266558-4.25739.260782-.76926-.814901 1.02908-2.374797-.905-1.169876z" fill="#dac4a6"/>
    <path d="M18.716427 34.5928713l2.05816-1.068658.83118 1.147818-1.10824 1.543619z" fill="#68463a"/>
    <path d="M14.565777 27.5104123l2.09249-.08151 3.32472.55412 2.69144-.989499-3.42193-2.00315-4.06511 1.946664z" fill="#bc8a5d"/>
    <path d="M16.658267 27.4289013l3.3643 3.047656 1.30614.03958.63328.55412.75201-1.147818-.0396-2.928916-2.69144.989499z" fill="#6b4e32"/>
    <path d="M20.022567 30.4765553l1.02908 1.781101.3958.672859.15832 1.741514-1.10824 1.543621v1.978996l2.61228-3.008077 2.41437-.831178-3.56219-3.285135-.63328-.55412z" fill="#b19883"/>
    <path d="M20.774587 33.5242113l-.17747-2.053246.85033 1.45955.15832 1.741514z" fill="#765e4d"/>
    <path d="M12.202977 38.7720683l4.25739-.260782 2.09774 1.266558-1.10824 1.741517-2.09744.588984z" fill="#907e67"/>
    <path d="M22.713997 29.9224383l.94992-.514541s.51454 1.42488.55412 1.583198c.0396.158322-.54566 1.656525-.54566 1.656525l-1.71039-1.577364z" fill="#998368"/>
    <path d="M13.993627 11.1138683l2.71476 1.51131-3.43396-.150246z" fill="#eecb9b"/>
    <path d="M13.274427 12.4749323l-.52069.985401 2.24743 1.963571 1.70722-2.798726z" fill="#ca8f57"/>
    <path d="M12.753737 13.4603333l-.27322.51707 1.17726 1.278578 2.01508 1.51131-.67169-1.343387z" fill="#d29968"/>
    <path d="M15.001167 15.4239043l1.70722-2.798726s3.02263 3.554381 3.05061 3.722307c.028.167923-4.75783-.923581-4.75783-.923581z" fill="#e1ae76"/>
    <path d="M15.001167 15.4239043l.67169 1.343387 1.23144 2.406904.66439 3.103391 5.60476-2.99144-3.52916-2.922924z" fill="#dfaf75"/>
    <path d="M17.232007 13.2434223l6.58514-.282395-4.17286 3.402195z" fill="#f0ca95"/>
    <path d="M19.644287 16.3632223l4.17286-3.402195 2.69653 1.485651-5.09068 3.38971z" fill="#f2d29f"/>
    <path d="M23.173447 19.2861463l3.08296-2.425089s1.16761.771808 1.26656.752017c.099-.01979 1.54362-.969708 1.54362-.969708l-2.55291-2.19669-5.09068 3.389712z" fill="#edc08d"/>
    <path d="M22.674397 26.9935223l.67288-4.116314-.90701-3.199744-4.87158 2.600122 1.68381 2.712786z" fill="#d6a777"/>
    <path d="M22.440267 19.6774623l2.37114-1.679752.67319 1.396462-.94992-.07916-.31664 1.543619z" fill="#d1a37a"/>
    <path d="M24.811407 17.9977103l1.445-1.136653 1.28346.74586.95281.995657-.5937 1.543618 1.50404 1.860257-2.05816 1.622777-1.3853 2.968497-1.93942-.237479-.67286-3.483036-.90701-3.199746 1.77777 1.181169.31664-1.543619.94992.07916z" fill="#f9f1d9"/>
    <path d="M23.347277 22.8772083l-.67288 4.116314.0396 2.928916.94992-.514543.55517 1.58868-.54671 1.651045 3.39542.559953-.47496-3.364296.63328-3.443454.6172-3.163617 2.1801 2.340971 1.31901 1.416345.13078-5.869155-2.07019.882082-2.05816 1.622777-1.3853 2.968495-1.93942-.237477z" fill="#d6b992"/>
    <path d="M27.843317 23.2362063l-1.25048 6.607069.47496 3.364296 1.14335-.935345.2239 2.406904 1.90313 1.567286v-4.533934l1.90313-2.238978-.89888-2.479982z" fill="#9b6e45"/>
    <path d="M29.403017 22.0064493l-1.50404-1.860259.5937-1.543616-.95281-.995657 1.52672-.963551z" fill="#e8cbab"/>
    <path d="M29.403017 22.0064493l-.33643-5.363083-2.55291-2.19669 4.2723-.869929 5.7094.391821-2.29496 1.847157z" fill="#efc996"/>
    <path d="M29.403017 22.0064493l4.7974-6.190724 2.29496-1.847159s2.6443-1.105085 2.60472-.946764c-.0396.158319-2.13731 3.641355-2.13731 3.641355l-3.00808 3.403875z" fill="#c38953"/>
    <path d="M31.473207 21.1243653l-.13078 5.869157.35488.979098 4.19682-3.670535-1.74152-.870757.23748-1.06866 1.3853-.158319 3.20597 1.701938.3958-1.504038-2.41437-1.741519.35621-.989499-1.26655.474961.5937-1.662358-2.69144 1.583198z" fill="#d59f66"/>
    <path d="M31.697307 27.9726203l.544 1.500884 4.04862-3.152842 4.55169 1.622777-1.86026-4.037152-3.20597-1.701938-1.3853.158319-.23748 1.06866 1.74152.870757z" fill="#f1cb9b"/>
    <path d="M33.954707 20.0670323l3.00808-3.403875 2.12363-3.608279 1.71562.837681 5.42245-7.599349-.5937 5.699514-2.61227 1.108236-.55412.989499.94992 1.464459-1.7811 2.889337-4.31422 1.226976-1.26655.474959.5937-1.662356z" fill="#853"/>
    <path d="M37.318997 19.6712313l-.35621.989499 2.41437 1.741517 2.25606-3.957992z" fill="#86563b"/>
    <path d="M39.086417 13.0548783l4.24874-4.78267 5.14539-5.145394 2.7706-2.335215L53.705097 3e-7l-1.62277 1.266558-5.85784 5.026652-5.42245 7.599349z" fill="#835738"/>
    <path d="M39.887657 21.5066273c-.0851.149368.79564 1.84554.79564 1.84554l.71244-1.583198.83118.474959 1.1874-1.424876-1.7811-2.374797z" fill="#452016"/>
    <path d="M41.633217 18.4442553l1.7811-2.889337-.94992-1.464459.55412-.989499 2.61227-1.108236 2.3748 2.889334-4.59127 5.936994z" fill="#81442b"/>
    <path d="M43.414317 20.8190523l.7916.395798.0396.63328 3.24556-3.878837 1.10824-.07916s2.98259-4.388456 2.82426-4.348877c-.15831.03958-3.41796 1.3408-3.41796 1.3408z" fill="#834b32"/>
    <path d="M48.005617 14.8820563l3.04762-4.630852-4.02906 3.436808z" fill="#854528"/>
    <path d="M47.024177 13.6880123l-1.39339-1.695288.5937-5.699514 4.42761-3.799361-.15297 4.35348-3.04766 3.403875.37464 1.509094 1.24467.181954z" fill="#a8653b"/>
    <path d="M48.080897 12.7866243l2.97234-2.53542 1.66236-3.166395.55412-5.105813-1.27211-.639747-1.34551 1.1546-.15297 4.35348-3.04766 3.403875z" fill="#b06f3a"/>
    <path d="M53.705097 3e-7l1.06866 1.464458-.35622 4.235053-1.86026 6.253631-1.06866 3.483036-1.34571 1.781098 2.13731-6.134891 1.66236-5.422453-.67286-3.680936-1.27211-.639747z" fill="#9f6940"/>
    <path d="M48.005617 14.8820563l4.70998-7.797247.55412-5.105813.67286 3.680936-1.28355 4.672197-1.10098 3.255901z" fill="#9b5d37"/>
    <path d="M51.423577 13.5412563l-2.82426 4.348877.39577 1.781098 1.14782-2.453955z" fill="#945d3f"/>
    <path d="M44.245517 21.8481303l2.7351-3.268776 2.29153 1.843897-1.50404 1.543619-4.07674 2.216475z" fill="#82462c"/>
    <path d="M46.980617 18.5793543l.51046-.610061 1.10824-.07916.39577 1.781098.86086.178109-1.24209 4.0547-.55975.223899.028 2.882685-4.39073-2.827279 4.07674-2.216475 1.50404-1.543619z" fill="#b17758"/>
    <path d="M48.613857 23.9040403l.92357-.867605-.0142-2.101112z" fill="#ab9075"/>
    <path d="M49.855947 19.8493383l.28696-2.632062-1.14782 2.453955z" fill="#815132"/>
    <path d="M43.414317 20.8190523l.7916.395798.0396.63328-.55414 2.335215-3.00808-.831178.71244-1.583198.83118.474959z" fill="#b18364"/>
    <path d="M39.887657 21.5066273l-.5105.89562-.3958 1.50404 1.86026 4.03715 4.5517 1.266563 1.42487 3.562194 1.979.593698s-3.12682-5.184971-2.9685-5.343292c.15832-.158319 2.25342-1.011978 2.25342-1.011978l-4.39073-2.827277-3.00808-.831178z" fill="#d09b62"/>
    <path d="M45.659187 27.8581783l2.42292-.847556 1.54626 3.663836-.83118 2.691434-1.9324-2.817523z" fill="#c69260"/>
    <path d="M32.241307 29.4735043l.11041.923893 3.28514-2.315427.1409-1.362461z" fill="#574634"/>
    <path d="M32.241307 29.4735043l-1.90313 2.238978v4.533934l1.1032-.604676.7916 1.959208 2.43417-1.325928-.33643-1.424879-2.55291-1.147818-.099-1.919629.67286-1.385297z" fill="#a06952"/>
    <path d="M34.330717 34.8501413s2.35501-.37601 2.43416-.395801c.0792-.01979 1.99879-1.602986 1.99879-1.602986l.96971-1.899838.15832-1.820677 1.20719 1.899838-.89055 1.959208-1.72173 1.642567-2.63206.514538.0396.81139-1.22698.316638z" fill="#a0795f"/>
    <path d="M35.636857 28.0819703l2.39224-1.141254-1.73917-.620056-.51217.398849z" fill="#be946b"/>
    <path d="M35.636857 28.0819703l2.65185-.07916 1.30614.712441.29685.415589.5937-.712438-2.84422-1.292625z" fill="#664529"/>
    <path d="M37.641177 27.1257763l.38792-.18506 2.81252 1.002721 4.5517 1.266563 1.42487 3.562194 1.979.593698-.2673 1.90097-1.20345.699683-2.09904-1.511313-.33585-1.623259-4.18794-.93169.39528-.869606-1.20719-1.899838.5937-.712438z" fill="#a37142"/>
    <path d="M35.854547 35.1469883l.0396.811392-1.22698.316638 3.42348.335232 5.183-4.138213-2.57004-.571754-.49527 1.089602-1.72173 1.642565z" fill="#a47f5f"/>
    <path d="M43.273647 32.4720373l1.6179.359934.33585 1.623261-1.65125 3.330482-6.74493 2.238981-.084 2.4069-3.83425-1.931116-.68003-2.899531s.83992-.457518 1.63704-.891723l.79713-.434207h.00002l3.42348.335232z" fill="#bba585"/>
    <path d="M36.831217 40.0246923l-.084 2.406903.22394 1.7632 1.7632-3.106583 1.48332-.279874 2.12703-1.93112 1.37138 3.582367 2.26696-1.791182 1.34339-4.701858-2.09904-1.511313-1.65125 3.33048z" fill="#9d876e"/>
    <path d="M36.971157 44.1947953l-.58773 2.32294-1.11949 1.0915-2.29496.95157s6.26915-.4478 6.35311-.55975c.084-.11195 3.27451-2.57483 3.27451-2.57483l1.87514-2.23898.86761-1.20344s-.008-.800756-.0902-.735544c-.0825.06521-1.53307 1.211324-1.53307 1.211324l-1.37138-3.582369-2.12703 1.931122-1.48332.279874z" fill="#77684f"/>
    <path d="M25.524177 34.3553893l-1.8518-1.707769 3.39542.559951 1.14335-.935347.2239 2.406904 1.90313 1.567288.0148 1.671172 1.88004-.31664.67999 2.899529-2.95583.108545-1.82068-2.533115z" fill="#ddc9ae"/>
    <path d="M23.109807 35.1865673l.43538.752022-.94993 1.1874 1.10824 1.306137-1.14781 2.493536 1.26655-1.068657 1.1874-.03958.93394.40417 1.40128-.602068 1.0683-1.158695-2.88898-4.105441z" fill="#e7d1b9"/>
    <path d="M27.344857 39.6195253l1.7811 1.583198.83122-.593704-1.54402-2.148189z" fill="#b48b6e"/>
    <path d="M13.497397 44.3030653l1.30062 2.08463 3.32471.83118-2.57269-3.08724 3.76009-.83118-.87076-1.464454-.35389-1.315453-.63561.998813-2.09744.588984.75172.79631-.55411 1.22698z" fill="#cdbaa6"/>
    <path d="M18.085477 40.5205453l.47263-.742703 1.93942-1.583198.89826-1.034357 1.71402-1.97372.43538.75202-.94993 1.187402 1.10824 1.306137-1.14781 2.493534-1.62278-.791597z" fill="#836043"/>
    <path d="M15.550037 44.1316353l2.57269 3.08724 6.09531-2.21648.47496-1.1874-2.13731-2.889335-1.62278-.791599-2.84743.386484.35389 1.315456.87076 1.464454z" fill="#71543b"/>
    <path d="M24.692997 43.8149953l.7916 1.34572-.0792 1.3853-3.52261 1.82067-1.14782-.35622 1.22698-1.22697-1.08397-.56655 3.34002-1.21455z" fill="#625140"/>
    <path d="M29.125957 41.2027233l-1.3853 1.978992-1.30614.94992s3.91842 2.29564 4.15589 2.37479c.23748.0792 3.7601-1.10823 3.7601-1.10823l-.47496-3.12681z" fill="#855f3f"/>
    <path d="M29.125957 41.2027213l.83122-.593704 2.95583-.10854 3.83421 1.931118.22394 1.7632-.58773 2.32294-2.03292-1.11954-.47496-3.12681z" fill="#ccb698"/>
    <path d="M26.434517 44.1316353l-.94992 1.02908 1.82068 2.13731 5.6637 1.26278 2.29496-.95157 1.11949-1.0915-2.03292-1.11954-3.80855 1.08705z" fill="#8e7861"/>
    <path d="M30.338177 36.2464163l1.1032-.604676.79164 1.959208-1.88004.31664z" fill="#6d4c35"/>
    <path d="M22.555687 40.9256603l1.26655-1.068655 1.1874-.03958.93394.40417 1.40128-.602068 1.7811 1.583196-1.32062.319291-.83962.014-.36384.615721.65771.90958-.14712.57727-.67795.49306-.94992 1.02908-.7916-1.34572-.53914-1.07923.50291-.26219-.15393-.699678-1.02153-.349841-.92562-.498398z" fill="#4d2b1f"/>
    <path d="M22.555687 40.9256683l1.41874 1.917927.68234-.37001-.15393-.699679-1.02153-.34984z" fill="#230f08"/>
    <path d="M26.601877 42.1517353l.36384-.615721 1.24903-.112985.91121-.220308-1.3853 1.978994-.62819.45687.14712-.57727z" fill="#230d06"/>
    <path d="M23.956037 42.8187353l.18335-.11397.55361 1.11024z" fill="#230f08"/>
    <path d="M18.122727 47.2188753l2.61224.79159 1.22698-1.22697-1.08397-.56655z" fill="#4c3b26"/>
    <path d="M22.363477 48.1182353l3.20418 2.05846 2.92695-.39688 1.90663-1.79151-3.09596-.69028-1.82068-2.1373-.0792 1.38529z" fill="#3c2c1b"/>
  </g>
  <g>
    <path d="M18.56011 85.8497113l-.64312 1.075758-.11693.982216s.0234 1.064066.0702 1.099145c.0468.03508.68989 1.017296.68989 1.017296l.80682-.68989.45603-.970523.0234-1.0056-.40926-.970523z" fill="#14130d"/>
    <path d="M15.44976 86.4460553c.0468-.09354.78343-.713274.8419-.713274.0585 0 2.26845.11693 2.26845.11693l-.64312 1.075756-.11693.982218.0502 1.016852.70992 1.099587.80682-.689888.45603-.970523.0234-1.005602-.40926-.970521 1.73052 1.262848.76005.876978-.0234.841898-.53788 1.216078-1.20439.596345-1.62533.01169-1.39147-.654809-.98222-.900364-.59634-.865285-.0935-1.426552z" fill="#393720"/>
    <path d="M14.95816 86.3284453l1.62802-1.501688 2.09249-.08151 3.3643 3.047656.57455.994407.17747 2.053246-2.05816 1.06866-2.65186-.07916-2.01857-1.187399-.91034-1.345719.41065-.523973.59634.865286.98222.900364 1.39147.654809 1.62533-.0117 1.20439-.596346.53788-1.216079.0234-.841896-.76005-.876977-1.73052-1.262848-.87706-.53788-2.29273-.106809-.81762.703154z" fill="#3b2612"/>
    <path d="M15.15606 89.2969383l-.1979-2.968493.4916.11761.11695 2.326912z" fill="#331e13"/>
    <path d="M37.28863 86.5280553l-.59531 1.124479.13229 1.405596.74414 1.273307.94258-.611849.41341-1.124479-.0331-.926039-.9095-1.455208z" fill="#16130e"/>
    <path d="M37.98314 86.2138623s.68204.31703.68204.383176c0 .06615.22746 1.072032.22746 1.072032l-.89294-.562239z" fill="#999"/>
    <path d="M37.28863 86.5280553l-1.14219.432493-1.12253 1.145918-.3274 1.122532s.33909 1.064067.33909 1.145918c0 .08185.97053 1.028989.97053 1.028989s1.91766.01169 1.97612-.0117c.0585-.02339 1.54348-.865285 1.60195-.912058.0585-.04677 1.11084-1.297927 1.11084-1.297927l.39756-1.22777.0234-1.122532-.85359-.853593-1.44994-.04677-.82932.2823s.77357.220552.77732.267915c.004.04736.16528 2.113333.16528 2.113333l-.41341 1.124476-.94258.611849-.74414-1.273305-.13229-1.405596z" fill="#453f20"/>
    <path d="M34.69651 89.2289983l.3274-1.122532 1.12253-1.145918-.20964-.349618-1.56473 1.102812-.67286 1.385298.099 1.919629 2.55291 1.147818-.34499-.762582-.95876-1.00256z" fill="#321e10"/>
    <path d="M36.14644 86.9605483l-.20964-.349618 1.72046-1.212615 2.65185-.07916 1.30614.712441.29685.415589-.15832 1.820677-.96971 1.899838.63593-2.365253-.304-.970529-.85359-.853594-1.44994-.04677z" fill="#211306"/>
    <path d="M41.116 86.8319183l-.0234 1.122532-.39756 1.22777-1.10887 1.296241-1.59025.907119-1.98979.01834.34499.762582 2.42265-.393393 2.0103-1.605394.63593-2.365253z" fill="#624730"/>
    <path d="M9.86049 81.7454513l.0935-1.216078-1.30962-2.712786 1.12253-1.870885-.0935-1.777344 6.17392 3.367596.56127 2.619243-2.43215 1.870887z" fill="#804f3e"/>
    <path d="M9.01859 88.2935523l.65481-3.274049 4.30304-2.993419 2.43215-1.870887 3.1805-.561266 1.68381 2.712786-6.64165 3.180506-4.11595.561266z" fill="#edc292"/>
    <path d="M9.86049 81.7454513l-1.91766 3.975634-.14032 3.601456 1.21608-1.028991.65481-3.274047 4.30304-2.993419z" fill="#c5a17b"/>
    <path d="M9.6734 74.1683563l-3.84673-10.440001-3.80627-5.989269 13.65778 14.83324 2.01508 1.51131 1.23144 2.406904-5.3571-.198072z" fill="#915b42"/>
    <path d="M2.0204 57.7390863l13.99363 10.691127-1.51311 2.863536z" fill="#d29b6a"/>
    <path d="M13.5676 76.2924683l5.3571.198072.66439 3.103391-3.1805.561266-.56127-2.619243z" fill="#a77658"/>
    <path d="M7.80251 89.3225413l2.5248 6.42593s4.82875 5.936993 4.98707 5.897413c.15832-.0396 2.25606-.1979 2.25606-.1979l.55411-1.226978-4.67043-4.947494 1.02908-2.374797-3.24556-4.195474 1.10623-2.904104-1.82857.249352-1.49671 2.245061z" fill="#7d6149"/>
    <path d="M12.34387 85.7991353l1.14806-.156552 1.66413 3.654357.91034 1.345718-2.4882 1.086183-2.34056-3.0256z" fill="#a27856"/>
    <path d="M15.15606 89.2969403l-.1979-2.968496 2.24963-2.075061-2.57654 1.23384-1.13932.155358z" fill="#5b3722"/>
    <path d="M16.0664 90.6426583l2.01857 1.1874 2.65186.07916 1.7811 1.622779v1.978996l-1.93942 1.583198-2.09774-1.266558-4.25739.260782-.76926-.814901 1.02908-2.374797-.905-1.169876z" fill="#dac4a6"/>
    <path d="M20.73683 91.9092163l2.05816-1.068658.83118 1.147818-1.10824 1.543619z" fill="#68463a"/>
    <path d="M16.58618 84.8267573l2.09249-.08151 3.32472.55412 2.69144-.989499-3.42193-2.00315-4.06511 1.946664z" fill="#bc8a5d"/>
    <path d="M18.67867 84.7452463l3.3643 3.047656 1.30614.03958.63328.55412.75201-1.147818-.0396-2.928916-2.69144.989499z" fill="#6b4e32"/>
    <path d="M22.04297 87.7929003l1.02908 1.781101.3958.672859.15832 1.741514-1.10824 1.543621v1.978996l2.61228-3.008077 2.41437-.831178-3.56219-3.285135-.63328-.55412z" fill="#b19883"/>
    <path d="M22.79499 90.8405563l-.17747-2.053246.85033 1.45955.15832 1.741514z" fill="#765e4d"/>
    <path d="M14.22338 96.0884133l4.25739-.260782 2.09774 1.266558-1.10824 1.741517-2.09744.588989z" fill="#907e67"/>
    <path d="M24.7344 87.2387833l.94992-.514541s.51454 1.42488.55412 1.583198c.0396.158322-.54566 1.656525-.54566 1.656525l-1.71039-1.577364z" fill="#998368"/>
    <path d="M16.01403 68.4302133l2.71476 1.51131-3.43396-.150246z" fill="#eecb9b"/>
    <path d="M15.29483 69.7912773l-.52069.985401 2.24743 1.963571 1.70722-2.798726z" fill="#ca8f57"/>
    <path d="M14.77414 70.7766783l-.27322.51707 1.17726 1.278578 2.01508 1.51131-.67169-1.343387z" fill="#d29968"/>
    <path d="M17.02157 72.7402493l1.70722-2.798726s3.02263 3.554381 3.05061 3.722307c.028.167923-4.75783-.923581-4.75783-.923581z" fill="#e1ae76"/>
    <path d="M17.02157 72.7402493l.67169 1.343387 1.23144 2.406904.66439 3.103391 5.60476-2.99144-3.52916-2.922924z" fill="#dfaf75"/>
    <path d="M19.25241 70.5597673l6.58514-.282395-4.17286 3.402195z" fill="#f0ca95"/>
    <path d="M21.66469 73.6795673l4.17286-3.402195 2.69653 1.485651-5.09068 3.38971z" fill="#f2d29f"/>
    <path d="M25.19385 76.6024913l3.08296-2.425089s1.16761.771808 1.26656.752017c.099-.01979 1.54362-.969708 1.54362-.969708l-2.55291-2.19669-5.09068 3.389712z" fill="#edc08d"/>
    <path d="M24.6948 84.3098673l.67288-4.116314-.90701-3.199744-4.87158 2.600122 1.68381 2.712786z" fill="#d6a777"/>
    <path d="M24.46067 76.9938073l2.37114-1.679752.67319 1.396462-.94992-.07916-.31664 1.543619z" fill="#d1a37a"/>
    <path d="M26.83181 75.3140553l1.445-1.136653 1.28346.74586.95281.995657-.5937 1.543618 1.50404 1.860257-2.05816 1.622777-1.3853 2.968497-1.93942-.237479-.67286-3.483036-.90701-3.199746 1.77777 1.181169.31664-1.543619.94992.07916z" fill="#f9f1d9"/>
    <path d="M25.36768 80.1935533l-.67288 4.116314.0396 2.928916.94992-.514543.55517 1.58868-.54671 1.651045 3.39542.559953-.47496-3.364296.63328-3.443454.6172-3.163617 2.1801 2.340971 1.31901 1.416345.13078-5.869155-2.07019.882082-2.05816 1.622777-1.3853 2.968495-1.93942-.237477z" fill="#d6b992"/>
    <path d="M29.86372 80.5525513l-1.25048 6.607069.17734 1.25615.29762 2.108146 1.14335-.935345.2239 2.406904 1.90313 1.567286v-4.533934l1.90313-2.238978-.89888-2.479982z" fill="#9b6e45"/>
    <path d="M31.42342 79.3227943l-1.50404-1.860259.5937-1.543616-.95281-.995657 1.52672-.963551z" fill="#e8cbab"/>
    <path d="M31.42342 79.3227943l-.33643-5.363083-2.55291-2.19669 4.2723-.869929 5.7094.391821-2.29496 1.847157z" fill="#efc996"/>
    <path d="M31.42342 79.3227943l4.7974-6.190724 2.29496-1.847159s2.6443-1.105085 2.60472-.946764c-.0396.158319-2.13731 3.641355-2.13731 3.641355l-3.00808 3.403875z" fill="#c38953"/>
    <path d="M33.49361 78.4407103l-.13078 5.869157.35488.979098 4.19682-3.670535-1.74152-.870757.23748-1.06866 1.3853-.158319 3.20597 1.701938.3958-1.504038-2.41437-1.741519.35621-.989499-1.26655.474961.5937-1.662358-2.69144 1.583198z" fill="#d59f66"/>
    <path d="M33.71771 85.2889653l.544 1.500884 4.04862-3.152842 4.55169 1.622777-1.86026-4.037152-3.20597-1.701938-1.3853.158319-.23748 1.06866 1.74152.870757z" fill="#f1cb9b"/>
    <path d="M35.97511 77.3833773l3.00808-3.403875 2.12363-3.608279 1.71562.837681 5.42245-7.599349-.5937 5.699514-2.61227 1.108236-.55412.989499.94992 1.464459-1.7811 2.889337-4.31422 1.226976-1.26655.474959.5937-1.662356z" fill="#853"/>
    <path d="M39.3394 76.9875763l-.35621.989499 2.41437 1.741517 2.25606-3.957992z" fill="#86563b"/>
    <path d="M41.10682 70.3712233l4.24874-4.78267 5.14539-5.145394 2.7706-2.335215 2.45395-.791599-1.62277 1.266558-5.85784 5.026652-5.42245 7.599349z" fill="#835738"/>
    <path d="M41.90806 78.8229723c-.0851.149368.79564 1.84554.79564 1.84554l.71244-1.583198.83118.474959 1.1874-1.424876-1.7811-2.374797z" fill="#452016"/>
    <path d="M43.65362 75.7606003l1.7811-2.889337-.94992-1.464459.55412-.989499 2.61227-1.108236 2.3748 2.889334-4.59127 5.936994z" fill="#81442b"/>
    <path d="M45.43472 78.1353973l.7916.395798.0396.63328 3.24556-3.878837 1.10824-.07916s2.98259-4.388456 2.82426-4.348877c-.15831.03958-3.41796 1.3408-3.41796 1.3408z" fill="#834b32"/>
    <path d="M50.02602 72.1984013l3.04762-4.630852-4.02906 3.436808z" fill="#854528"/>
    <path d="M49.04458 71.0043573l-1.39339-1.695288.5937-5.699514 4.42761-3.799361-.15297 4.35348-3.04766 3.403875.37464 1.509094 1.24467.181954z" fill="#a8653b"/>
    <path d="M50.1013 70.1029693l2.97234-2.53542 1.66236-3.166395.55412-5.105813-1.27211-.639747-1.34551 1.1546-.15297 4.35348-3.04766 3.403875z" fill="#b06f3a"/>
    <path d="M55.7255 57.3163453l1.06866 1.464458-.35622 4.235053-1.86026 6.253631-1.06866 3.483036-1.34571 1.781098 2.13731-6.134891 1.66236-5.422453-.67286-3.680936-1.27211-.639747z" fill="#9f6940"/>
    <path d="M50.02602 72.1984013l4.70998-7.797247.55412-5.105813.67286 3.680936-1.28355 4.672197-1.10098 3.255901z" fill="#9b5d37"/>
    <path d="M53.44398 70.8576013l-2.82426 4.348877.39577 1.781098 1.14782-2.453955z" fill="#945d3f"/>
    <path d="M46.26592 79.1644753l2.7351-3.268776 2.29153 1.843897-1.50404 1.543619-4.07674 2.216475z" fill="#82462c"/>
    <path d="M49.00102 75.8956993l.51046-.610061 1.10824-.07916.39577 1.781098.86086.178109-1.24209 4.0547-.55975.223899.028 2.882685-4.39073-2.827279 4.07674-2.216475 1.50404-1.543619z" fill="#b17758"/>
    <path d="M50.63426 81.2203853l.92357-.867605-.0142-2.101112z" fill="#ab9075"/>
    <path d="M51.87635 77.1656833l.28696-2.632062-1.14782 2.453955z" fill="#815132"/>
    <path d="M45.43472 78.1353973l.7916.395798.0396.63328-.55414 2.335215-3.00808-.831178.71244-1.583198.83118.474959z" fill="#b18364"/>
    <path d="M41.90806 78.8229723l-.5105.89562-.3958 1.50404 1.86026 4.03715 4.5517 1.266563 1.42487 3.562194 1.979.593698s-3.12682-5.184971-2.9685-5.343292c.15832-.158319 2.25342-1.011978 2.25342-1.011978l-4.39073-2.827277-3.00808-.831178z" fill="#d09b62"/>
    <path d="M47.67959 85.1745233l2.42292-.847556 1.54626 3.663836-.83118 2.691434-1.9324-2.817523z" fill="#c69260"/>
    <path d="M34.26171 86.7898493l.11041.923893 3.28514-2.315427.1409-1.362461z" fill="#574634"/>
    <path d="M34.26171 86.7898493l-1.90313 2.238978v4.533934l1.1032-.604676.7916 1.959208 2.43417-1.325928-.33643-1.424879-2.55291-1.147818-.099-1.919629.67286-1.385297z" fill="#a06952"/>
    <path d="M36.35112 92.1664863s2.35501-.37601 2.43416-.395801c.0792-.01979 1.99879-1.602986 1.99879-1.602986l.96971-1.899838.15832-1.820677 1.20719 1.899838-.89055 1.959208-1.72173 1.642567-2.63206.514538.0396.81139-1.22698.316638z" fill="#a0795f"/>
    <path d="M37.65726 85.3983153l2.39224-1.141254-1.73917-.620056-.51217.398849z" fill="#be946b"/>
    <path d="M37.65726 85.3983153l2.65185-.07916 1.30614.712441.29685.415589.5937-.712438-2.84422-1.292625z" fill="#664529"/>
    <path d="M39.66158 84.4421213l.38792-.18506 2.81252 1.002721 4.5517 1.266563 1.42487 3.562194 1.979.593698-.2673 1.90097-1.20345.699683-2.09904-1.511313-.33585-1.623259-4.18794-.93169.39528-.869606-1.20719-1.899838.5937-.712438z" fill="#a37142"/>
    <path d="M37.87495 92.4633333l.0396.811392-1.22698.316638 3.42348.335232 5.183-4.138213-2.57004-.571754-.49527 1.089602-1.72173 1.642565z" fill="#a47f5f"/>
    <path d="M45.29405 89.7883823l1.6179.359934.33585 1.623261-1.65125 3.330482-6.74493 2.238981-.084 2.406904-3.83425-1.93112-.68003-2.899531s.83992-.457518 1.63704-.891723l.79713-.434207h.00002l3.42348.335232z" fill="#bba585"/>
    <path d="M38.85162 97.3410373l-.084 2.406904.22394 1.763203 1.7632-3.106587 1.48332-.279874 2.12703-1.93112 1.37138 3.582369 2.26696-1.791184 1.34339-4.701858-2.09904-1.511313-1.65125 3.33048z" fill="#9d876e"/>
    <path d="M38.99156 101.5111443l-.58773 2.32294-1.11949 1.0915-2.29496.951566s6.26915-.4478 6.35311-.55975c.084-.111946 3.27451-2.574826 3.27451-2.574826l1.87514-2.238975.86761-1.203452s-.008-.800753-.0902-.735541c-.0825.06521-1.53307 1.211326-1.53307 1.211326l-1.37138-3.582371-2.12703 1.931122-1.48332.279874z" fill="#77684f"/>
    <path d="M27.54458 91.6717343l-1.8518-1.707769 3.39542.559951 1.14335-.935347.2239 2.406904 1.90313 1.567288.0148 1.671172 1.88004-.31664.67999 2.899529-2.95583.108545-1.82068-2.533115z" fill="#ddc9ae"/>
    <path d="M25.13021 92.5029123l.43538.752022-.94993 1.1874 1.10824 1.306137-1.14781 2.493536 1.26655-1.068657 1.1874-.03958.93394.40417 1.40128-.602068 1.0683-1.158695-2.88898-4.105441z" fill="#e7d1b9"/>
    <path d="M29.36526 96.9358703l1.7811 1.583198.83122-.593704-1.54402-2.148189z" fill="#b48b6e"/>
    <path d="M15.5178 101.6194143l1.30062 2.08463 3.32471.83118-2.57269-3.08724 3.76009-.83118-.87076-1.464458-.35389-1.315453-.63561.998813-2.09744.588989.75172.796311-.55411 1.226978z" fill="#cdbaa6"/>
    <path d="M20.10588 97.8368903l.47263-.742703 1.93942-1.583198.89826-1.034357 1.71402-1.97372.43538.75202-.94993 1.187402 1.10824 1.306137-1.14781 2.493534-1.62278-.791597z" fill="#836043"/>
    <path d="M17.57044 101.4479843l2.57269 3.08724 6.09531-2.21648.47496-1.1874-2.13731-2.889339-1.62278-.791599-2.84743.386484.35389 1.315456.87076 1.464458z" fill="#71543b"/>
    <path d="M26.7134 101.1313443l.7916 1.34572-.0792 1.3853-3.52261 1.820666-1.14782-.35622 1.22698-1.226966-1.08397-.56655 3.34002-1.21455z" fill="#625140"/>
    <path d="M31.14636 98.5190683l-1.3853 1.978998-1.30614.949918s3.91842 2.29564 4.15589 2.37479c.23748.0792 3.7601-1.10823 3.7601-1.10823l-.47496-3.126816z" fill="#855f3f"/>
    <path d="M31.14636 98.5190663l.83122-.593704 2.95583-.10854 3.83421 1.931119.22394 1.763203-.58773 2.32294-2.03292-1.11954-.47496-3.126818z" fill="#ccb698"/>
    <path d="M28.45492 101.4479843l-.94992 1.02908 1.82068 2.13731 5.6637 1.262776 2.29496-.951566 1.11949-1.0915-2.03292-1.11954-3.80855 1.08705z" fill="#8e7861"/>
    <path d="M32.35858 93.5627613l1.1032-.604676.79164 1.959208-1.88004.31664z" fill="#6d4c35"/>
    <path d="M24.57609 98.2420053l1.26655-1.068655 1.1874-.03958.93394.40417 1.40128-.602068 1.7811 1.583196-1.32062.319291-.83962.014-.36384.61572.65771.909585-.14712.57727-.67795.49306-.94992 1.02908-.7916-1.34572-.53914-1.079228.50291-.262194-.15393-.69968-1.02153-.349841-.92562-.498398z" fill="#4d2b1f"/>
    <path d="M24.57609 98.2420133l1.41874 1.91793.68234-.370012-.15393-.69968-1.02153-.34984z" fill="#230f08"/>
    <path d="M28.62228 99.4680783l.36384-.615719 1.24903-.112985.91121-.220308-1.3853 1.978998-.62819.45687.14712-.577271z" fill="#230d06"/>
    <path d="M25.97644 100.1350823l.18335-.113966.55361 1.110238z" fill="#230f08"/>
    <path d="M20.14313 104.5352243l2.61224.791586 1.22698-1.226966-1.08397-.56655z" fill="#4c3b26"/>
    <path d="M24.38388 105.4345803l3.20418 2.05846 2.92695-.39688 1.90663-1.79151-3.09596-.690276-1.82068-2.1373-.0792 1.38529z" fill="#3c2c1b"/>
  </g>
  <g>
    <path d="M18.56011 85.8497113l-.64312 1.075758-.11693.982216s.0234 1.064066.0702 1.099145c.0468.03508.68989 1.017296.68989 1.017296l.80682-.68989.45603-.970523.0234-1.0056-.40926-.970523z" fill="#14130d"/>
    <path d="M15.44976 86.4460553c.0468-.09354.78343-.713274.8419-.713274.0585 0 2.26845.11693 2.26845.11693l-.64312 1.075756-.11693.982218.0502 1.016852.70992 1.099587.80682-.689888.45603-.970523.0234-1.005602-.40926-.970521 1.73052 1.262848.76005.876978-.0234.841898-.53788 1.216078-1.20439.596345-1.62533.01169-1.39147-.654809-.98222-.900364-.59634-.865285-.0935-1.426552z" fill="#393720"/>
    <path d="M14.95816 86.3284453l1.62802-1.501688 2.09249-.08151 3.3643 3.047656.57455.994407.17747 2.053246-2.05816 1.06866-2.65186-.07916-2.01857-1.187399-.91034-1.345719.41065-.523973.59634.865286.98222.900364 1.39147.654809 1.62533-.0117 1.20439-.596346.53788-1.216079.0234-.841896-.76005-.876977-1.73052-1.262848-.87706-.53788-2.29273-.106809-.81762.703154z" fill="#3b2612"/>
    <path d="M15.15606 89.2969383l-.1979-2.968493.4916.11761.11695 2.326912z" fill="#331e13"/>
    <path d="M37.28863 86.5280553l-.59531 1.124479.13229 1.405596.74414 1.273307.94258-.611849.41341-1.124479-.0331-.926039-.9095-1.455208z" fill="#16130e"/>
    <path d="M37.98314 86.2138623s.68204.31703.68204.383176c0 .06615.22746 1.072032.22746 1.072032l-.89294-.562239z" fill="#999"/>
    <path d="M37.28863 86.5280553l-1.14219.432493-1.12253 1.145918-.3274 1.122532s.33909 1.064067.33909 1.145918c0 .08185.97053 1.028989.97053 1.028989s1.91766.01169 1.97612-.0117c.0585-.02339 1.54348-.865285 1.60195-.912058.0585-.04677 1.11084-1.297927 1.11084-1.297927l.39756-1.22777.0234-1.122532-.85359-.853593-1.44994-.04677-.82932.2823s.77357.220552.77732.267915c.004.04736.16528 2.113333.16528 2.113333l-.41341 1.124476-.94258.611849-.74414-1.273305-.13229-1.405596z" fill="#453f20"/>
    <path d="M34.69651 89.2289983l.3274-1.122532 1.12253-1.145918-.20964-.349618-1.56473 1.102812-.67286 1.385298.099 1.919629 2.55291 1.147818-.34499-.762582-.95876-1.00256z" fill="#321e10"/>
    <path d="M36.14644 86.9605483l-.20964-.349618 1.72046-1.212615 2.65185-.07916 1.30614.712441.29685.415589-.15832 1.820677-.96971 1.899838.63593-2.365253-.304-.970529-.85359-.853594-1.44994-.04677z" fill="#211306"/>
    <path d="M41.116 86.8319183l-.0234 1.122532-.39756 1.22777-1.10887 1.296241-1.59025.907119-1.98979.01834.34499.762582 2.42265-.393393 2.0103-1.605394.63593-2.365253z" fill="#624730"/>
    <path d="M9.86049 81.7454513l.0935-1.216078-1.30962-2.712786 1.12253-1.870885-.0935-1.777344 6.17392 3.367596.56127 2.619243-2.43215 1.870887z" fill="#804f3e"/>
    <path d="M9.01859 88.2935523l.65481-3.274049 4.30304-2.993419 2.43215-1.870887 3.1805-.561266 1.68381 2.712786-6.64165 3.180506-4.11595.561266z" fill="#edc292"/>
    <path d="M9.86049 81.7454513l-1.91766 3.975634-.14032 3.601456 1.21608-1.028991.65481-3.274047 4.30304-2.993419z" fill="#c5a17b"/>
    <path d="M9.6734 74.1683563l-3.84673-10.440001-3.80627-5.989269 13.65778 14.83324 2.01508 1.51131 1.23144 2.406904-5.3571-.198072z" fill="#915b42"/>
    <path d="M2.0204 57.7390863l13.99363 10.691127-1.51311 2.863536z" fill="#d29b6a"/>
    <path d="M13.5676 76.2924683l5.3571.198072.66439 3.103391-3.1805.561266-.56127-2.619243z" fill="#a77658"/>
    <path d="M7.80251 89.3225413l2.5248 6.42593s4.82875 5.936993 4.98707 5.897413c.15832-.0396 2.25606-.1979 2.25606-.1979l.55411-1.226978-4.67043-4.947494 1.02908-2.374797-3.24556-4.195474 1.10623-2.904104-1.82857.249352-1.49671 2.245061z" fill="#7d6149"/>
    <path d="M12.34387 85.7991353l1.14806-.156552 1.66413 3.654357.91034 1.345718-2.4882 1.086183-2.34056-3.0256z" fill="#a27856"/>
    <path d="M15.15606 89.2969403l-.1979-2.968496 2.24963-2.075061-2.57654 1.23384-1.13932.155358z" fill="#5b3722"/>
    <path d="M16.0664 90.6426583l2.01857 1.1874 2.65186.07916 1.7811 1.622779v1.978996l-1.93942 1.583198-2.09774-1.266558-4.25739.260782-.76926-.814901 1.02908-2.374797-.905-1.169876z" fill="#dac4a6"/>
    <path d="M20.73683 91.9092163l2.05816-1.068658.83118 1.147818-1.10824 1.543619z" fill="#68463a"/>
    <path d="M16.58618 84.8267573l2.09249-.08151 3.32472.55412 2.69144-.989499-3.42193-2.00315-4.06511 1.946664z" fill="#bc8a5d"/>
    <path d="M18.67867 84.7452463l3.3643 3.047656 1.30614.03958.63328.55412.75201-1.147818-.0396-2.928916-2.69144.989499z" fill="#6b4e32"/>
    <path d="M22.04297 87.7929003l1.02908 1.781101.3958.672859.15832 1.741514-1.10824 1.543621v1.978996l2.61228-3.008077 2.41437-.831178-3.56219-3.285135-.63328-.55412z" fill="#b19883"/>
    <path d="M22.79499 90.8405563l-.17747-2.053246.85033 1.45955.15832 1.741514z" fill="#765e4d"/>
    <path d="M14.22338 96.0884133l4.25739-.260782 2.09774 1.266558-1.10824 1.741517-2.09744.588989z" fill="#907e67"/>
    <path d="M24.7344 87.2387833l.94992-.514541s.51454 1.42488.55412 1.583198c.0396.158322-.54566 1.656525-.54566 1.656525l-1.71039-1.577364z" fill="#998368"/>
    <path d="M16.01403 68.4302133l2.71476 1.51131-3.43396-.150246z" fill="#eecb9b"/>
    <path d="M15.29483 69.7912773l-.52069.985401 2.24743 1.963571 1.70722-2.798726z" fill="#ca8f57"/>
    <path d="M14.77414 70.7766783l-.27322.51707 1.17726 1.278578 2.01508 1.51131-.67169-1.343387z" fill="#d29968"/>
    <path d="M17.02157 72.7402493l1.70722-2.798726s3.02263 3.554381 3.05061 3.722307c.028.167923-4.75783-.923581-4.75783-.923581z" fill="#e1ae76"/>
    <path d="M17.02157 72.7402493l.67169 1.343387 1.23144 2.406904.66439 3.103391 5.60476-2.99144-3.52916-2.922924z" fill="#dfaf75"/>
    <path d="M19.25241 70.5597673l6.58514-.282395-4.17286 3.402195z" fill="#f0ca95"/>
    <path d="M21.66469 73.6795673l4.17286-3.402195 2.69653 1.485651-5.09068 3.38971z" fill="#f2d29f"/>
    <path d="M25.19385 76.6024913l3.08296-2.425089s1.16761.771808 1.26656.752017c.099-.01979 1.54362-.969708 1.54362-.969708l-2.55291-2.19669-5.09068 3.389712z" fill="#edc08d"/>
    <path d="M24.6948 84.3098673l.67288-4.116314-.90701-3.199744-4.87158 2.600122 1.68381 2.712786z" fill="#d6a777"/>
    <path d="M24.46067 76.9938073l2.37114-1.679752.67319 1.396462-.94992-.07916-.31664 1.543619z" fill="#d1a37a"/>
    <path d="M26.83181 75.3140553l1.445-1.136653 1.28346.74586.95281.995657-.5937 1.543618 1.50404 1.860257-2.05816 1.622777-1.3853 2.968497-1.93942-.237479-.67286-3.483036-.90701-3.199746 1.77777 1.181169.31664-1.543619.94992.07916z" fill="#f9f1d9"/>
    <path d="M25.36768 80.1935533l-.67288 4.116314.0396 2.928916.94992-.514543.55517 1.58868-.54671 1.651045 3.39542.559953-.47496-3.364296.63328-3.443454.6172-3.163617 2.1801 2.340971 1.31901 1.416345.13078-5.869155-2.07019.882082-2.05816 1.622777-1.3853 2.968495-1.93942-.237477z" fill="#d6b992"/>
    <path d="M29.86372 80.5525513l-1.25048 6.607069.17734 1.25615.29762 2.108146 1.14335-.935345.2239 2.406904 1.90313 1.567286v-4.533934l1.90313-2.238978-.89888-2.479982z" fill="#9b6e45"/>
    <path d="M31.42342 79.3227943l-1.50404-1.860259.5937-1.543616-.95281-.995657 1.52672-.963551z" fill="#e8cbab"/>
    <path d="M31.42342 79.3227943l-.33643-5.363083-2.55291-2.19669 4.2723-.869929 5.7094.391821-2.29496 1.847157z" fill="#efc996"/>
    <path d="M31.42342 79.3227943l4.7974-6.190724 2.29496-1.847159s2.6443-1.105085 2.60472-.946764c-.0396.158319-2.13731 3.641355-2.13731 3.641355l-3.00808 3.403875z" fill="#c38953"/>
    <path d="M33.49361 78.4407103l-.13078 5.869157.35488.979098 4.19682-3.670535-1.74152-.870757.23748-1.06866 1.3853-.158319 3.20597 1.701938.3958-1.504038-2.41437-1.741519.35621-.989499-1.26655.474961.5937-1.662358-2.69144 1.583198z" fill="#d59f66"/>
    <path d="M33.71771 85.2889653l.544 1.500884 4.04862-3.152842 4.55169 1.622777-1.86026-4.037152-3.20597-1.701938-1.3853.158319-.23748 1.06866 1.74152.870757z" fill="#f1cb9b"/>
    <path d="M35.97511 77.3833773l3.00808-3.403875 2.12363-3.608279 1.71562.837681 5.42245-7.599349-.5937 5.699514-2.61227 1.108236-.55412.989499.94992 1.464459-1.7811 2.889337-4.31422 1.226976-1.26655.474959.5937-1.662356z" fill="#853"/>
    <path d="M39.3394 76.9875763l-.35621.989499 2.41437 1.741517 2.25606-3.957992z" fill="#86563b"/>
    <path d="M41.10682 70.3712233l4.24874-4.78267 5.14539-5.145394 2.7706-2.335215 2.45395-.791599-1.62277 1.266558-5.85784 5.026652-5.42245 7.599349z" fill="#835738"/>
    <path d="M41.90806 78.8229723c-.0851.149368.79564 1.84554.79564 1.84554l.71244-1.583198.83118.474959 1.1874-1.424876-1.7811-2.374797z" fill="#452016"/>
    <path d="M43.65362 75.7606003l1.7811-2.889337-.94992-1.464459.55412-.989499 2.61227-1.108236 2.3748 2.889334-4.59127 5.936994z" fill="#81442b"/>
    <path d="M45.43472 78.1353973l.7916.395798.0396.63328 3.24556-3.878837 1.10824-.07916s2.98259-4.388456 2.82426-4.348877c-.15831.03958-3.41796 1.3408-3.41796 1.3408z" fill="#834b32"/>
    <path d="M50.02602 72.1984013l3.04762-4.630852-4.02906 3.436808z" fill="#854528"/>
    <path d="M49.04458 71.0043573l-1.39339-1.695288.5937-5.699514 4.42761-3.799361-.15297 4.35348-3.04766 3.403875.37464 1.509094 1.24467.181954z" fill="#a8653b"/>
    <path d="M50.1013 70.1029693l2.97234-2.53542 1.66236-3.166395.55412-5.105813-1.27211-.639747-1.34551 1.1546-.15297 4.35348-3.04766 3.403875z" fill="#b06f3a"/>
    <path d="M55.7255 57.3163453l1.06866 1.464458-.35622 4.235053-1.86026 6.253631-1.06866 3.483036-1.34571 1.781098 2.13731-6.134891 1.66236-5.422453-.67286-3.680936-1.27211-.639747z" fill="#9f6940"/>
    <path d="M50.02602 72.1984013l4.70998-7.797247.55412-5.105813.67286 3.680936-1.28355 4.672197-1.10098 3.255901z" fill="#9b5d37"/>
    <path d="M53.44398 70.8576013l-2.82426 4.348877.39577 1.781098 1.14782-2.453955z" fill="#945d3f"/>
    <path d="M46.26592 79.1644753l2.7351-3.268776 2.29153 1.843897-1.50404 1.543619-4.07674 2.216475z" fill="#82462c"/>
    <path d="M49.00102 75.8956993l.51046-.610061 1.10824-.07916.39577 1.781098.86086.178109-1.24209 4.0547-.55975.223899.028 2.882685-4.39073-2.827279 4.07674-2.216475 1.50404-1.543619z" fill="#b17758"/>
    <path d="M50.63426 81.2203853l.92357-.867605-.0142-2.101112z" fill="#ab9075"/>
    <path d="M51.87635 77.1656833l.28696-2.632062-1.14782 2.453955z" fill="#815132"/>
    <path d="M45.43472 78.1353973l.7916.395798.0396.63328-.55414 2.335215-3.00808-.831178.71244-1.583198.83118.474959z" fill="#b18364"/>
    <path d="M41.90806 78.8229723l-.5105.89562-.3958 1.50404 1.86026 4.03715 4.5517 1.266563 1.42487 3.562194 1.979.593698s-3.12682-5.184971-2.9685-5.343292c.15832-.158319 2.25342-1.011978 2.25342-1.011978l-4.39073-2.827277-3.00808-.831178z" fill="#d09b62"/>
    <path d="M47.67959 85.1745233l2.42292-.847556 1.54626 3.663836-.83118 2.691434-1.9324-2.817523z" fill="#c69260"/>
    <path d="M34.26171 86.7898493l.11041.923893 3.28514-2.315427.1409-1.362461z" fill="#574634"/>
    <path d="M34.26171 86.7898493l-1.90313 2.238978v4.533934l1.1032-.604676.7916 1.959208 2.43417-1.325928-.33643-1.424879-2.55291-1.147818-.099-1.919629.67286-1.385297z" fill="#a06952"/>
    <path d="M36.35112 92.1664863s2.35501-.37601 2.43416-.395801c.0792-.01979 1.99879-1.602986 1.99879-1.602986l.96971-1.899838.15832-1.820677 1.20719 1.899838-.89055 1.959208-1.72173 1.642567-2.63206.514538.0396.81139-1.22698.316638z" fill="#a0795f"/>
    <path d="M37.65726 85.3983153l2.39224-1.141254-1.73917-.620056-.51217.398849z" fill="#be946b"/>
    <path d="M37.65726 85.3983153l2.65185-.07916 1.30614.712441.29685.415589.5937-.712438-2.84422-1.292625z" fill="#664529"/>
    <path d="M39.66158 84.4421213l.38792-.18506 2.81252 1.002721 4.5517 1.266563 1.42487 3.562194 1.979.593698-.2673 1.90097-1.20345.699683-2.09904-1.511313-.33585-1.623259-4.18794-.93169.39528-.869606-1.20719-1.899838.5937-.712438z" fill="#a37142"/>
    <path d="M37.87495 92.4633333l.0396.811392-1.22698.316638 3.42348.335232 5.183-4.138213-2.57004-.571754-.49527 1.089602-1.72173 1.642565z" fill="#a47f5f"/>
    <path d="M45.29405 89.7883823l1.6179.359934.33585 1.623261-1.65125 3.330482-6.74493 2.238981-.084 2.406904-3.83425-1.93112-.68003-2.899531s.83992-.457518 1.63704-.891723l.79713-.434207h.00002l3.42348.335232z" fill="#bba585"/>
    <path d="M38.85162 97.3410373l-.084 2.406904.22394 1.763203 1.7632-3.106587 1.48332-.279874 2.12703-1.93112 1.37138 3.582369 2.26696-1.791184 1.34339-4.701858-2.09904-1.511313-1.65125 3.33048z" fill="#9d876e"/>
    <path d="M38.99156 101.5111443l-.58773 2.32294-1.11949 1.0915-2.29496.951566s6.26915-.4478 6.35311-.55975c.084-.111946 3.27451-2.574826 3.27451-2.574826l1.87514-2.238975.86761-1.203452s-.008-.800753-.0902-.735541c-.0825.06521-1.53307 1.211326-1.53307 1.211326l-1.37138-3.582371-2.12703 1.931122-1.48332.279874z" fill="#77684f"/>
    <path d="M27.54458 91.6717343l-1.8518-1.707769 3.39542.559951 1.14335-.935347.2239 2.406904 1.90313 1.567288.0148 1.671172 1.88004-.31664.67999 2.899529-2.95583.108545-1.82068-2.533115z" fill="#ddc9ae"/>
    <path d="M25.13021 92.5029123l.43538.752022-.94993 1.1874 1.10824 1.306137-1.14781 2.493536 1.26655-1.068657 1.1874-.03958.93394.40417 1.40128-.602068 1.0683-1.158695-2.88898-4.105441z" fill="#e7d1b9"/>
    <path d="M29.36526 96.9358703l1.7811 1.583198.83122-.593704-1.54402-2.148189z" fill="#b48b6e"/>
    <path d="M15.5178 101.6194143l1.30062 2.08463 3.32471.83118-2.57269-3.08724 3.76009-.83118-.87076-1.464458-.35389-1.315453-.63561.998813-2.09744.588989.75172.796311-.55411 1.226978z" fill="#cdbaa6"/>
    <path d="M20.10588 97.8368903l.47263-.742703 1.93942-1.583198.89826-1.034357 1.71402-1.97372.43538.75202-.94993 1.187402 1.10824 1.306137-1.14781 2.493534-1.62278-.791597z" fill="#836043"/>
    <path d="M17.57044 101.4479843l2.57269 3.08724 6.09531-2.21648.47496-1.1874-2.13731-2.889339-1.62278-.791599-2.84743.386484.35389 1.315456.87076 1.464458z" fill="#71543b"/>
    <path d="M26.7134 101.1313443l.7916 1.34572-.0792 1.3853-3.52261 1.820666-1.14782-.35622 1.22698-1.226966-1.08397-.56655 3.34002-1.21455z" fill="#625140"/>
    <path d="M31.14636 98.5190683l-1.3853 1.978998-1.30614.949918s3.91842 2.29564 4.15589 2.37479c.23748.0792 3.7601-1.10823 3.7601-1.10823l-.47496-3.126816z" fill="#855f3f"/>
    <path d="M31.14636 98.5190663l.83122-.593704 2.95583-.10854 3.83421 1.931119.22394 1.763203-.58773 2.32294-2.03292-1.11954-.47496-3.126818z" fill="#ccb698"/>
    <path d="M28.45492 101.4479843l-.94992 1.02908 1.82068 2.13731 5.6637 1.262776 2.29496-.951566 1.11949-1.0915-2.03292-1.11954-3.80855 1.08705z" fill="#8e7861"/>
    <path d="M32.35858 93.5627613l1.1032-.604676.79164 1.959208-1.88004.31664z" fill="#6d4c35"/>
    <path d="M24.57609 98.2420053l1.26655-1.068655 1.1874-.03958.93394.40417 1.40128-.602068 1.7811 1.583196-1.32062.319291-.83962.014-.36384.61572.65771.909585-.14712.57727-.67795.49306-.94992 1.02908-.7916-1.34572-.53914-1.079228.50291-.262194-.15393-.69968-1.02153-.349841-.92562-.498398z" fill="#4d2b1f"/>
    <path d="M24.57609 98.2420133l1.41874 1.91793.68234-.370012-.15393-.69968-1.02153-.34984z" fill="#230f08"/>
    <path d="M28.62228 99.4680783l.36384-.615719 1.24903-.112985.91121-.220308-1.3853 1.978998-.62819.45687.14712-.577271z" fill="#230d06"/>
    <path d="M25.97644 100.1350823l.18335-.113966.55361 1.110238z" fill="#230f08"/>
    <path d="M20.14313 104.5352243l2.61224.791586 1.22698-1.226966-1.08397-.56655z" fill="#4c3b26"/>
    <path d="M24.38388 105.4345803l3.20418 2.05846 2.92695-.39688 1.90663-1.79151-3.09596-.690276-1.82068-2.1373-.0792 1.38529z" fill="#3c2c1b"/>
  </g>
</svg>
