<svg xmlns="http://www.w3.org/2000/svg" width="162.88741mm" height="60.283951mm" viewBox="0 0 162.88741 60.283951">
  <path d="M121.21853566 6.36205068l-3.788079-2.77306623 3.788079-1.01501277 3.78807901 2.77306623zM125.00661849 9.1351159l3.788079-1.01501278 3.78807901 2.77306623-7.57615801 2.03002555zM128.7946975 19.48434205l-3.78807901-2.77306815v3.78808092z" fill="#ffc000"/>
  <path d="M117.43046048 3.58898343v18.94039694l3.788079 2.77306623V6.36204966zM128.7946975 19.48434205v-3.78808092l-3.78807901 1.01501277z" fill="#80c9ff"/>
  <path d="M121.21853566 6.36205068l-3.788079-2.77306623 3.788079-1.01501277 3.78807901 2.77306623zM125.00661849 9.1351159l3.788079-1.01501278 3.78807901 2.77306623-7.57615801 2.03002555zM128.7946975 19.48434205l-3.78807901-2.77306815v3.78808092z" fill="#ffc000"/>
  <path d="M117.43046048 3.58898343v18.94039694l3.788079 2.77306623V6.36204966zM128.7946975 19.48434205v-3.78808092l-3.78807901 1.01501277z" fill="#80c9ff"/>
  <path d="M121.21853566 6.36205068l-3.788079-2.77306623 3.788079-1.01501277 3.78807901 2.77306623zM125.00661849 9.1351159l3.788079-1.01501278 3.78807901 2.77306623-7.57615801 2.03002555zM128.7946975 19.48434205l-3.78807901-2.77306815v3.78808092z" fill="#ffc000"/>
  <path d="M117.43046048 3.58898343v18.94039694l3.788079 2.77306623V6.36204966zM128.7946975 19.48434205v-3.78808092l-3.78807901 1.01501277z" fill="#80c9ff"/>
  <path d="M121.21853566 6.36205068l-3.788079-2.77306623 3.788079-1.01501277 3.78807901 2.77306623zM125.00661849 9.1351159l3.788079-1.01501278 3.78807901 2.77306623-7.57615801 2.03002555zM128.7946975 19.48434205l-3.78807901-2.77306815v3.78808092z" fill="#ffc000"/>
  <path d="M117.43046048 3.58898343v18.94039694l3.788079 2.77306623V6.36204966zM128.7946975 19.48434205v-3.78808092l-3.78807901 1.01501277z" fill="#80c9ff"/>
  <path d="M121.21853948 13.93820767l3.788079-1.01501277v3.78808091l-3.788079 1.01501278z" fill="#ff2a2a"/>
  <path d="M121.21853948 10.15012867l3.788079-1.01501278v3.78808092l-3.788079 1.01501277zM121.21853948 6.36204775l3.788079-1.01501277v3.78808091l-3.788079 1.01501278zM125.00661849 12.9231949l3.788079-1.01501278v3.78808092l-3.788079 1.01501277zM128.7946975 11.90818212l3.788079-1.01501277v3.78808092l-3.788079 1.01501277z" fill="#ff2a2a"/>
  <path d="M128.7946975 15.69626304l3.788079-1.01501277v3.78808091l-3.788079 1.01501277z" fill="#ff2a2a"/>
  <path d="M128.7946975 19.48434395l3.788079-1.01501277v3.78808092l-3.788079 1.01501277zM125.00661849 20.49935673l3.788079-1.01501278v3.78808092l-3.788079 1.01501277zM121.21853948 21.5143695l3.788079-1.01501277v3.78808091l-3.788079 1.01501278zM121.21853948 17.72628668l3.788079-1.01501278v3.78808092l-3.788079 1.01501277zM136.3708536 9.87815422l3.788079-1.01501277v3.788079l-3.788079 1.01501278z" fill="#ff2a2a"/>
  <path d="M136.3708536 13.66623323l3.788079-1.01501278v3.78808092l-3.788079 1.01501277zM136.3708536 17.45431414l3.788079-1.01501277v3.788079l-3.788079 1.01501278z" fill="#ff2a2a"/>
  <path d="M140.1589307 16.43930188l3.788079-1.01501277v3.788079l-3.788079 1.01501278z" fill="#ff2a2a"/>
  <path d="M140.1589307 16.43930188l3.788079-1.01501277v3.788079l-3.788079 1.01501278zM136.3708536 6.09007521l3.788079-1.01501277v3.788079l-3.788079 1.01501278z" fill="#ff2a2a"/>
  <path d="M140.1589307 5.07506295l3.788079-1.01501277v3.788079l-3.788079 1.01501278z" fill="#ff2a2a"/>
  <path d="M143.9470097 4.06005018l3.788079-1.01501277v3.788079l-3.788079 1.01501277zM143.9470097 15.4242891l3.788079-1.01501277v3.788079l-3.788079 1.01501278zM140.1589326 8.86314145l3.78807901-1.01501278v3.788079l-3.788079 1.01501278z" fill="#ff2a2a"/>
  <path d="M136.3708555 21.24239264l-3.788079-2.77306624V3.31701038l3.788079 2.77306623z" fill="#80c9ff"/>
  <path d="M147.73509253 3.0450383L143.94701352.27197205 132.5827765 3.31701038l3.788079 2.77306623zM147.73509253 14.40927531l-3.78807901-2.77306623-3.788079 1.01501277v3.788079z" fill="#ffc000"/>
  <g>
    <path d="M151.52316771 5.81810364l3.78807901-1.01501278v3.78807901l-3.788079 1.01501277z" fill="#ff2a2a"/>
    <path d="M151.52316771 9.60618264l3.78807901-1.01501277v3.78808092l-3.788079 1.01501277z" fill="#ff2a2a"/>
    <path d="M151.52316771 13.39426356l3.78807901-1.01501277v3.788079l-3.788079 1.01501278zM155.31124672 4.80309086l3.78806373-1.01500868v3.788079l-3.78806373 1.0150087zM159.09932954 3.78807707l3.78806947-1.01501022v3.788079l-3.78806947 1.01501022z" fill="#ff2a2a"/>
    <path d="M159.09932954 7.57615607l3.78806947-1.01501021v3.78808091l-3.78806947 1.01501022z" fill="#ff2a2a"/>
    <path d="M159.09932954 11.36423699l3.78806947-1.01501022v3.78807901l-3.78806947 1.01501022z" fill="#ff2a2a"/>
    <path d="M151.52317153 17.18234154l-3.788079-2.77306623V3.04503829l3.788079 2.77306623z" fill="#80c9ff"/>
    <path d="M162.887399 2.77306876L159.09932955-3e-8 147.73509253 3.0450383l3.788079 2.77306623z" fill="#ffc000"/>
    <path d="M159.09932954 15.152316l-3.788079-2.77306624v-3.788079l3.788079-1.01501278z" fill="#80c9ff"/>
  </g>
  <g>
    <path d="M106.06621582 10.27057799l-3.788079-2.77306624 3.788079-1.01501277 3.788079 2.77306623zM109.85429865 13.0436432l3.788079-1.01501278 3.788079 2.77306624-7.576158 2.03002554zM113.64237765 23.39286935l-3.788079-2.77306814v3.78808091z" fill="#ffc000"/>
    <path d="M102.27814063 7.49751073v18.94039694l3.788079 2.77306623V10.27057696zM113.64237765 23.39286935v-3.78808091l-3.788079 1.01501277z" fill="#80c9ff"/>
    <path d="M106.06621582 10.27057799l-3.788079-2.77306624 3.788079-1.01501277 3.788079 2.77306623zM109.85429865 13.0436432l3.788079-1.01501278 3.788079 2.77306624-7.576158 2.03002554zM113.64237765 23.39286935l-3.788079-2.77306814v3.78808091z" fill="#ffc000"/>
    <path d="M102.27814063 7.49751073v18.94039694l3.788079 2.77306623V10.27057696zM113.64237765 23.39286935v-3.78808091l-3.788079 1.01501277z" fill="#80c9ff"/>
    <path d="M106.06621582 10.27057799l-3.788079-2.77306624 3.788079-1.01501277 3.788079 2.77306623zM109.85429865 13.0436432l3.788079-1.01501278 3.788079 2.77306624-7.576158 2.03002554zM113.64237765 23.39286935l-3.788079-2.77306814v3.78808091z" fill="#ffc000"/>
    <path d="M102.27814063 7.49751073v18.94039694l3.788079 2.77306623V10.27057696zM113.64237765 23.39286935v-3.78808091l-3.788079 1.01501277z" fill="#80c9ff"/>
    <path d="M106.06621582 10.27057799l-3.788079-2.77306624 3.788079-1.01501277 3.788079 2.77306623zM109.85429865 13.0436432l3.788079-1.01501278 3.788079 2.77306624-7.576158 2.03002554zM113.64237765 23.39286935l-3.788079-2.77306814v3.78808091z" fill="#ffc000"/>
    <path d="M102.27814063 7.49751073v18.94039694l3.788079 2.77306623V10.27057696zM113.64237765 23.39286935v-3.78808091l-3.788079 1.01501277z" fill="#80c9ff"/>
    <path d="M106.06621964 17.84673498l3.788079-1.01501278v3.78808092l-3.788079 1.01501277z" fill="#ff2a2a"/>
    <path d="M106.06621964 14.05865597l3.788079-1.01501277v3.78808091l-3.788079 1.01501277z" fill="#ff2a2a"/>
    <path d="M106.06621964 10.27057505l3.788079-1.01501277v3.78808092l-3.788079 1.01501277zM109.85429865 16.8317222l3.788079-1.01501277v3.78808091l-3.788079 1.01501278zM113.64237765 15.81670943l3.788079-1.01501277v3.78808091l-3.788079 1.01501277zM113.64237765 19.60479034l3.788079-1.01501277v3.78808092l-3.788079 1.01501277z" fill="#ff2a2a"/>
    <path d="M113.64237765 23.39287126l3.788079-1.01501277v3.78808091l-3.788079 1.01501277zM109.85429865 24.40788403l3.788079-1.01501277v3.78808091l-3.788079 1.01501278zM106.06621964 25.4228968l3.788079-1.01501277v3.78808092l-3.788079 1.01501277zM106.06621964 21.63481398l3.788079-1.01501277v3.78808091l-3.788079 1.01501278z" fill="#ff2a2a"/>
  </g>
  <g>
    <path d="M90.9138998 22.05830983l3.788079-1.01501277v3.788079l-3.788079 1.01501278zM90.9138998 25.84638884l3.788079-1.01501277v3.78808091l-3.788079 1.01501277z" fill="#ff2a2a"/>
    <path d="M90.9138998 29.63446975l3.788079-1.01501277v3.788079l-3.788079 1.01501278zM94.7019788 28.61945698l3.788079-1.01501277v3.788079l-3.788079 1.01501278zM98.4900578 27.6044442l3.78807901-1.01501277v3.78807901l-3.788079 1.01501277z" fill="#ff2a2a"/>
    <path d="M98.4900578 23.8163633l3.78807901-1.01501278v3.78808091l-3.788079 1.01501278z" fill="#ff2a2a"/>
    <path d="M98.4900578 20.02828429l3.78807901-1.01501278v3.78808092l-3.788079 1.01501277z" fill="#ff2a2a"/>
    <path d="M90.9138998 22.05830983l-3.78807901-2.77306623 3.788079-1.01501277 3.78807901 2.77306623zM98.4900578 20.02828429l-3.788079-2.77306624 3.788079-1.01501277 3.78807901 2.77306623z" fill="#ffc000"/>
    <path d="M87.1258246 19.28524258V30.6494815l3.78807901 2.77306624V22.0583088zM94.70198262 17.25521703v7.57615801l3.788079 2.77306814v-7.57615992z" fill="#80c9ff"/>
    <path d="M94.70198262 24.83137504v3.78808092l3.788079-1.01501278z" fill="#ffc000"/>
  </g>
  <g>
    <path d="M83.33774197 24.08833481l3.78807901-1.01501277v3.788079l-3.788079 1.01501278z" fill="#ff2a2a"/>
    <path d="M83.33774197 20.3002558l3.78807901-1.01501277v3.788079l-3.788079 1.01501278z" fill="#ff2a2a"/>
    <path d="M83.33774197 16.5121768l3.78807901-1.01501278v3.78807901l-3.788079 1.01501277zM83.33774197 27.87641382l3.78807901-1.01501278v3.78808092l-3.788079 1.01501277z" fill="#ff2a2a"/>
    <path d="M83.33774197 31.66449473l3.78807901-1.01501277v3.788079l-3.788079 1.01501278z" fill="#ff2a2a"/>
    <path d="M83.33774197 16.5121768l-3.788079-2.77306623 3.788079-1.01501278 3.78807901 2.77306623z" fill="#ffc000"/>
    <path d="M79.54966106 13.73911108v18.94039694l3.788079 2.77306623V16.51217731z" fill="#80c9ff"/>
  </g>
  <g>
    <path d="M68.18542385 28.14839045l3.788079-1.01501278v3.78807901l-3.788079 1.01501277z" fill="#ff2a2a"/>
    <path d="M68.18542385 31.93646945l3.788079-1.01501277v3.78808092l-3.788079 1.01501277z" fill="#ff2a2a"/>
    <path d="M68.18542385 35.72455037l3.788079-1.01501277v3.788079l-3.788079 1.01501277zM75.76158186 26.1183649l3.788079-1.01501277v3.788079l-3.788079 1.01501278zM71.97350286 30.92145668l3.788079-1.01501277v3.78808091l-3.788079 1.01501278zM75.76158186 33.69452482l3.788079-1.01501277v3.788079l-3.788079 1.01501278zM68.18542385 24.36031144l3.788079-1.01501277v3.788079l-3.788079 1.01501278z" fill="#ff2a2a"/>
    <path d="M68.18542194 24.36031195l-3.788079-2.77306623 3.788079-1.01501277 3.788079 2.77306623zM75.76157995 26.11836541l-3.788079-2.77306623 3.788079-1.01501277 3.788079 2.77306623zM75.76157995 29.90644442l-3.788079-2.77306623v3.788079zM79.54965896 32.67951256l-3.788079-2.77306814v3.78808091z" fill="#ffc000"/>
    <path d="M71.97350095 27.13337819v-3.78807901l3.788079 2.77306623v3.788079zM64.39734293 21.58724572v15.15231793l3.78807901 2.77306624V24.36031195zM75.76157995 37.48260434l-3.788079-2.77306623 3.788079-1.01501278z" fill="#80c9ff"/>
  </g>
  <g>
    <path d="M53.0331063 35.99652192l3.788079-1.01501278v3.788079l-3.788079 1.01501278zM53.0331063 39.78460092l3.788079-1.01501277v3.788079l-3.788079 1.01501278z" fill="#ff2a2a"/>
    <path d="M53.0331063 32.20844291l3.788079-1.01501277v3.788079l-3.788079 1.01501278zM60.60926431 30.17841736l3.788079-1.01501277v3.788079l-3.788079 1.01501278z" fill="#ff2a2a"/>
    <path d="M56.8211853 31.19343014l3.78807901-1.01501278v3.788079l-3.788079 1.01501278z" fill="#ff2a2a"/>
    <path d="M56.8211853 31.19343014l3.78807901-1.01501278v3.788079l-3.788079 1.01501278zM60.60926431 33.96649637l3.788079-1.01501277v3.788079l-3.788079 1.01501278z" fill="#ff2a2a"/>
    <path d="M60.60926431 37.75457538l3.788079-1.01501278v3.788079l-3.788079 1.01501278z" fill="#ff2a2a"/>
    <path d="M56.8211853 38.76958815l3.78807901-1.01501277v3.788079l-3.788079 1.01501278zM60.60926431 26.39033836l3.788079-1.01501278v3.78807901l-3.788079 1.01501277zM60.60926431 22.60225935l3.788079-1.01501277v3.788079l-3.788079 1.01501278z" fill="#ff2a2a"/>
    <path d="M53.0331063 32.20844291l-3.788079-2.77306623 7.576158-2.03002555 3.78807901 2.77306623zM60.60926431 22.60225935l-3.788079-2.77306623 3.788079-1.01501278 3.788079 2.77306624z" fill="#ffc000"/>
    <path d="M49.2450273 29.43537668V40.7996137l3.788079 2.77306623V32.2084429z" fill="#80c9ff"/>
    <path d="M60.60926431 37.75457538l-3.788079-2.77306624v3.788079z" fill="#ffc000"/>
    <path d="M56.8211853 27.40535113v-7.57615801l3.78807901 2.77306623v7.57615801zM60.60926431 37.75457538v-3.78807901l-3.788079 1.01501277z" fill="#80c9ff"/>
  </g>
  <g>
    <path d="M30.30463207 38.29851906l3.788079-1.01501277v3.788079l-3.788079 1.01501278z" fill="#ff2a2a"/>
    <path d="M30.30463207 42.08659807l3.788079-1.01501278v3.788079l-3.788079 1.01501278z" fill="#ff2a2a"/>
    <path d="M30.30463207 45.87467707l3.788079-1.01501277v3.788079l-3.788079 1.01501278zM34.09271108 37.28350629l3.788079-1.01501278v3.788079l-3.788079 1.01501278z" fill="#ff2a2a"/>
    <path d="M37.88079008 36.26849351l3.788079-1.01501277v3.788079l-3.788079 1.01501278z" fill="#ff2a2a"/>
    <path d="M37.88079008 40.05657252l3.788079-1.01501278v3.78807901l-3.788079 1.01501277z" fill="#ff2a2a"/>
    <path d="M37.88079008 40.05657252l3.788079-1.01501278v3.78807901l-3.788079 1.01501277zM41.66886909 35.25348074l3.788079-1.01501277v3.788079l-3.788079 1.01501277zM45.4569481 34.23846797l3.788079-1.01501278v3.788079l-3.788079 1.01501278z" fill="#ff2a2a"/>
    <path d="M45.4569481 34.23846797l3.788079-1.01501278v3.788079l-3.788079 1.01501278z" fill="#ff2a2a"/>
    <path d="M45.4569481 38.02654697l3.788079-1.01501277v3.788079l-3.788079 1.01501278z" fill="#ff2a2a"/>
    <path d="M45.4569481 41.81462598l3.788079-1.01501278v3.78807901l-3.788079 1.01501277zM37.88079008 43.84465152l3.788079-1.01501277v3.788079l-3.788079 1.01501278z" fill="#ff2a2a"/>
    <path d="M30.30463207 49.66275608l-3.788079-2.77306624V35.52545283l3.788079 2.77306623z" fill="#80c9ff"/>
    <path d="M26.51655306 35.52545283l18.94039503-5.07506387 3.78807901 2.77306623-18.94039503 5.07506387z" fill="#ffc000"/>
    <path d="M37.88079008 47.63273053l-3.788079-2.77306623v-3.788079l3.788079-1.01501278zM45.4569481 45.60270498l-3.78807901-2.77306623v-3.788079l3.788079-1.01501278z" fill="#80c9ff"/>
  </g>
  <g>
    <path d="M15.15231623 46.14664856l3.78807882-1.01501272v3.788079l-3.78807882 1.01501273z" fill="#ff2a2a"/>
    <path d="M15.15231623 49.93472757l3.78807882-1.01501272v3.788079l-3.78807882 1.01501273zM18.94039505 48.91971485l3.788079-1.01501277v3.788079l-3.788079 1.01501278zM22.72847406 47.90470208l3.788079-1.01501278v3.788079l-3.788079 1.01501278z" fill="#ff2a2a"/>
    <path d="M22.72847406 44.11662307l3.788079-1.01501277v3.788079l-3.788079 1.01501278zM22.72847406 51.69278108l3.788079-1.01501277v3.788079l-3.788079 1.01501278z" fill="#ff2a2a"/>
    <path d="M22.72847406 55.48086009l3.788079-1.01501278v3.78807901l-3.788079 1.01501277zM18.94039505 56.49587286l3.788079-1.01501277v3.788079l-3.788079 1.01501278zM15.15231623 42.35856956l3.78807882-1.01501272v3.788079l-3.78807882 1.01501272zM22.72847406 40.32854406l3.788079-1.01501277v3.788079l-3.788079 1.01501278z" fill="#ff2a2a"/>
    <path d="M15.15231604 42.35856961l-3.788079-2.77306623 3.788079-1.01501278 3.78807901 2.77306624zM22.72847406 40.32854406l-3.78807901-2.77306623 3.788079-1.01501277 3.78807901 2.77306623zM22.72847406 55.48086009l-3.78807901-2.77306623-3.788079 1.01501277 3.788079 2.77306623z" fill="#ffc000"/>
    <path d="M11.36423704 39.58550338V50.9497404l3.788079 2.77306623V42.3585696z" fill="#80c9ff"/>
    <path d="M22.72847406 47.90470208l-3.78807901-2.77306624v3.788079z" fill="#ffc000"/>
    <path d="M18.94039505 37.55547783v7.57615801l3.788079 2.77306624v-7.57615802zM22.72847406 55.48086009v-3.788079l-3.78807901 1.01501277z" fill="#80c9ff"/>
    <path d="M15.15231604 53.72280663v3.788079" fill="none"/>
    <path d="M15.15231604 57.51088563l3.78807901 2.77306624v-3.788079l-3.788079-2.77306624z" fill="#80c9ff"/>
  </g>
  <g>
    <path d="M3.78807899 45.40360816l3.78807904-1.01501278v3.788079L3.788079 49.19168717z" fill="#ff2a2a"/>
    <path d="M3.78807899 49.19168717l3.78807904-1.01501279v3.78807901L3.788079 52.97976617z" fill="#ff2a2a"/>
    <path d="M3.78807899 52.97976617l3.78807904-1.01501278v3.788079L3.788079 56.7678452zM7.57615803 44.38859538l3.788079-1.01501278v3.78807901l-3.788079 1.01501277z" fill="#ff2a2a"/>
    <path d="M11.36423704 43.3735826l-3.788079-2.77306623L1e-8 42.63054192l3.78807897 2.77306624z" fill="#ffc000"/>
    <path d="M3.78807899 56.76784518L2e-8 53.99477894V42.63054192l3.78807897 2.77306624z" fill="#80c9ff"/>
  </g>
</svg>
